<svg width="22" height="22" viewBox="0 0 22 22" fill="none" xmlns="http://www.w3.org/2000/svg">
<path fill-rule="evenodd" clip-rule="evenodd" d="M22 11.0005C22 17.0756 17.0751 22.0005 11 22.0005C4.92487 22.0005 0 17.0756 0 11.0005C0 4.92536 4.92487 0.000488281 11 0.000488281C17.0751 0.000488281 22 4.92536 22 11.0005ZM11 21.0005C16.5228 21.0005 21 16.5233 21 11.0005C21 5.47764 16.5228 1.00049 11 1.00049C5.47715 1.00049 1 5.47764 1 11.0005C1 16.5233 5.47715 21.0005 11 21.0005ZM11 9.00049C11.2761 9.00049 11.5 9.22439 11.5 9.50049V16.5005C11.5 16.7766 11.2761 17.0005 11 17.0005C10.7239 17.0005 10.5 16.7766 10.5 16.5005V9.50049C10.5 9.22439 10.7239 9.00049 11 9.00049ZM11 7.00049C11.5523 7.00049 12 6.55277 12 6.00049C12 5.44821 11.5523 5.00049 11 5.00049C10.4477 5.00049 10 5.44821 10 6.00049C10 6.55277 10.4477 7.00049 11 7.00049Z" fill="white"/>
</svg>
