<svg width="20" height="21" viewBox="0 0 20 21" fill="none" xmlns="http://www.w3.org/2000/svg">
<path d="M12.5 16.25C12.9142 16.25 13.25 16.5858 13.25 17C13.25 17.4142 12.9142 17.75 12.5 17.75H7.5C7.08578 17.75 6.75 17.4142 6.75 17C6.75 16.5858 7.08578 16.25 7.5 16.25H12.5Z" fill="white" stroke="white" stroke-width="0.5"/>
<path fill-rule="evenodd" clip-rule="evenodd" d="M12.1688 1.57515C10.8972 0.571265 9.1028 0.571265 7.83124 1.57515L1.33124 6.70673C0.49051 7.37047 0 8.38265 0 9.4538V17.5C0 19.433 1.567 21 3.5 21H16.5C18.433 21 20 19.433 20 17.5V9.4538C20 8.38265 19.5095 7.37047 18.6688 6.70673L12.1688 1.57515ZM8.4509 2.36003C9.3592 1.64297 10.6408 1.64297 11.5491 2.36003L18.0491 7.49161C18.6496 7.96571 19 8.68869 19 9.4538V17.5C19 18.8807 17.8807 20 16.5 20H3.5C2.11929 20 1 18.8807 1 17.5V9.4538C1 8.68869 1.35036 7.96571 1.95089 7.49161L8.4509 2.36003Z" fill="white"/>
</svg>
