<svg width="24" height="24" viewBox="0 0 24 24" fill="none" xmlns="http://www.w3.org/2000/svg">
<path d="M23.5851 5.37959C23.8136 5.37959 23.9989 5.19431 23.9989 4.96579C23.9989 4.73727 23.8136 4.55199 23.5851 4.55199H19.0335V3.72444H23.5851C23.8136 3.72444 23.9989 3.53917 23.9989 3.31065C23.9989 3.08212 23.8136 2.89685 23.5851 2.89685H19.0335V2.48309C19.0335 2.02605 19.404 1.65554 19.861 1.65554H23.1713C23.3909 1.65673 23.6015 1.56857 23.7547 1.41142C23.93 1.24009 24.0185 0.998769 23.9956 0.754725C23.9421 0.316995 23.5658 -0.00904126 23.1249 0.000398194H17.7921C17.1066 0.000398194 16.5508 0.556181 16.5508 1.24175V22.7585C16.5508 23.4441 17.1066 23.9998 17.7921 23.9998C18.4777 23.9998 19.0335 23.4441 19.0335 22.7585V15.7242C19.0335 15.2671 19.404 14.8966 19.861 14.8966H23.1713C23.403 14.8951 23.6236 14.7971 23.7801 14.6261C23.9365 14.4552 24.0146 14.2267 23.9956 13.9958C23.9422 13.5581 23.5658 13.2321 23.125 13.2415H19.8611C19.404 13.2415 19.0335 12.871 19.0335 12.4139V12.0001H23.5852C23.8137 12.0001 23.9989 11.8148 23.9989 11.5863C23.9989 11.3578 23.8137 11.1725 23.5852 11.1725H19.0335V10.345H23.5851C23.8136 10.345 23.9989 10.1597 23.9989 9.93118C23.9989 9.70266 23.8136 9.51739 23.5851 9.51739H19.0335V8.68983H23.5851C23.8136 8.68983 23.9989 8.50456 23.9989 8.27604C23.9989 8.04752 23.8136 7.86224 23.5851 7.86224H19.0335V7.03469H23.5851C23.8136 7.03469 23.9989 6.84942 23.9989 6.62089C23.9989 6.39237 23.8136 6.2071 23.5851 6.2071H19.0335V5.37955H23.5851V5.37959Z" fill="black"/>
<path d="M12.1954 17.3834C11.9826 17.3699 11.7689 17.3797 11.5582 17.4124C11.1744 17.4744 10.7987 17.2634 10.652 16.9034L4.08935 0.261062C4.04393 0.148065 3.95107 0.0608192 3.83543 0.0225479C3.71979 -0.0157233 3.5932 -0.00110997 3.48937 0.062478C2.6536 0.595353 2.17215 1.53922 2.23147 2.52863C2.23254 2.94969 2.3184 3.36625 2.48389 3.75342L5.94726 12.5877L5.97211 12.6373L6.8452 14.8718C6.97233 15.1615 7.15188 15.4252 7.37483 15.6497L8.37621 16.651C8.84391 17.1165 9.10612 17.7497 9.10447 18.4096V20.9834C9.09704 21.7809 9.40921 22.5483 9.97124 23.1143C10.5333 23.6802 11.2985 23.9976 12.0961 23.9957C13.658 23.947 14.8986 22.6661 14.8974 21.1034V20.3669C14.9166 18.8183 13.7382 17.5172 12.1954 17.3834ZM13.2423 21.1033C13.2423 21.7889 12.6865 22.3447 12.0009 22.3447C11.3154 22.3447 10.7596 21.7889 10.7596 21.1033V20.2758C10.7596 19.5902 11.3154 19.0344 12.0009 19.0344C12.6865 19.0344 13.2423 19.5902 13.2423 20.2758V21.1033Z" fill="black"/>
<path d="M6.79047 16.2331C6.49406 15.9379 6.2555 15.5898 6.08706 15.2069L5.50363 13.7132L4.24573 16.9034C4.10189 17.2659 3.72391 17.4782 3.33954 17.4124C3.12867 17.381 2.915 17.3728 2.70232 17.3875C1.15816 17.5186 -0.0217348 18.8214 0.000303722 20.3709V21.1033C0.000738174 22.666 1.2398 23.9472 2.80161 23.9998C3.59966 24.0007 4.36489 23.6824 4.92683 23.1158C5.48878 22.5492 5.80075 21.7813 5.79325 20.9833V18.4096C5.79317 17.75 6.05514 17.1174 6.52151 16.651L6.86496 16.3075L6.79047 16.2331ZM4.13814 21.1034C4.13814 21.7889 3.58236 22.3447 2.8968 22.3447C2.21123 22.3447 1.65545 21.7889 1.65545 21.1034V20.2758C1.65545 19.5902 2.21123 19.0345 2.8968 19.0345C3.58236 19.0345 4.13814 19.5902 4.13814 20.2758V21.1034Z" fill="black"/>
<path d="M12.6655 2.52859C12.6644 2.94965 12.5786 3.36621 12.4131 3.75338L9.39244 11.458L7.89453 7.65121L10.8076 0.261062C10.853 0.148065 10.9459 0.0608192 11.0615 0.0225479C11.1771 -0.0157233 11.3038 -0.00110997 11.4076 0.062478C12.2434 0.595314 12.7248 1.53918 12.6655 2.52859Z" fill="black"/>
</svg>
