<svg width="24" height="24" viewBox="0 0 24 24" fill="none" xmlns="http://www.w3.org/2000/svg">
<path d="M11.829 11.5609C13.4172 11.5609 14.7925 10.9912 15.9162 9.86733C17.0399 8.74362 17.6096 7.36868 17.6096 5.78025C17.6096 4.19237 17.0399 2.81725 15.916 1.69317C14.7921 0.569639 13.417 0 11.829 0C10.2405 0 8.86559 0.569639 7.74188 1.69335C6.61816 2.81707 6.04834 4.19218 6.04834 5.78025C6.04834 7.36868 6.61816 8.7438 7.74206 9.86751C8.86596 10.991 10.2411 11.5609 11.829 11.5609Z" fill="black"/>
<path d="M21.9435 18.4546C21.9111 17.987 21.8455 17.4768 21.749 16.9382C21.6516 16.3954 21.5262 15.8824 21.376 15.4134C21.2209 14.9288 21.01 14.4501 20.7493 13.9914C20.4786 13.5154 20.1608 13.1008 19.8041 12.7597C19.4311 12.4028 18.9744 12.1159 18.4463 11.9066C17.9201 11.6984 17.3369 11.593 16.7131 11.593C16.4681 11.593 16.2311 11.6935 15.7736 11.9914C15.492 12.175 15.1625 12.3874 14.7949 12.6224C14.4805 12.8227 14.0546 13.0104 13.5285 13.1803C13.0153 13.3464 12.4942 13.4306 11.9798 13.4306C11.4655 13.4306 10.9445 13.3464 10.4308 13.1803C9.90524 13.0106 9.47934 12.8229 9.16532 12.6226C8.80112 12.3898 8.47153 12.1774 8.18571 11.9912C7.72868 11.6933 7.49156 11.5928 7.24656 11.5928C6.62254 11.5928 6.03954 11.6984 5.51347 11.9068C4.98577 12.1157 4.52892 12.4026 4.15557 12.7599C3.79907 13.1012 3.48101 13.5156 3.21075 13.9914C2.95019 14.4501 2.73925 14.9286 2.58398 15.4136C2.43402 15.8826 2.30859 16.3954 2.21118 16.9382C2.11468 17.4761 2.04913 17.9864 2.01672 18.4552C1.98486 18.9144 1.96875 19.391 1.96875 19.8724C1.96875 21.1252 2.367 22.1394 3.15234 22.8874C3.92797 23.6255 4.95427 24 6.20231 24H17.7584C19.0065 24 20.0324 23.6257 20.8082 22.8874C21.5937 22.14 21.992 21.1256 21.992 19.8722C21.9918 19.3886 21.9755 18.9117 21.9435 18.4546Z" fill="black"/>
</svg>
