<svg width="24" height="24" viewBox="0 0 24 24" fill="none" xmlns="http://www.w3.org/2000/svg">
<path d="M19.6 2.40006H22.7999C23.1165 2.40272 23.4207 2.27671 23.6427 2.05087C23.8979 1.80174 24.0273 1.45089 23.9951 1.09568C23.9257 0.465613 23.3889 -0.00863814 22.7551 0.000119332H17.6C16.7163 0.000119332 16 0.716449 16 1.60008V22.3997C16 23.2834 16.7163 23.9997 17.6 23.9997C18.4836 23.9997 19.1999 23.2834 19.1999 22.3997V15.5998C19.1999 15.3789 19.379 15.1998 19.5999 15.1998H22.7998C23.1165 15.2025 23.4207 15.0765 23.6426 14.8507C23.8978 14.6015 24.0273 14.2507 23.995 13.8955C23.9256 13.2654 23.3889 12.7911 22.755 12.7999H19.5999C19.379 12.7999 19.1999 12.6208 19.1999 12.3999V11.9999H23.1998C23.4208 11.9999 23.5998 11.8208 23.5998 11.5999C23.5998 11.379 23.4208 11.1999 23.1998 11.1999H19.1999V10.3999H23.1999C23.4208 10.3999 23.5999 10.2208 23.5999 9.99993C23.5999 9.77901 23.4208 9.59994 23.1999 9.59994H19.1999V8.79996H23.1999C23.4208 8.79996 23.5999 8.62088 23.5999 8.39997C23.5999 8.17905 23.4208 7.99997 23.1999 7.99997H19.1999V7.19999H23.1999C23.4208 7.19999 23.5999 7.02092 23.5999 6.8C23.5999 6.57908 23.4208 6.40001 23.1999 6.40001H19.1999V5.60003H23.1999C23.4208 5.60003 23.5999 5.42096 23.5999 5.20004C23.5999 4.97912 23.4208 4.80005 23.1999 4.80005H19.1999V4.00007H23.1999C23.4208 4.00007 23.5999 3.82099 23.5999 3.60008C23.5999 3.37916 23.4208 3.20009 23.1999 3.20009H19.1999V2.80005C19.1999 2.57914 19.379 2.40006 19.6 2.40006ZM19.6 13.5999H22.7551C22.9738 13.5912 23.1647 13.747 23.1999 13.9631C23.211 14.0825 23.1668 14.2004 23.0799 14.283C23.0066 14.3588 22.9053 14.4011 22.7999 14.3998H19.6C18.9373 14.3998 18.4 14.9371 18.4 15.5998V22.3997C18.4 22.8415 18.0418 23.1997 17.6 23.1997C17.1582 23.1997 16.8001 22.8415 16.8001 22.3997V1.60008C16.8001 1.15825 17.1582 0.800101 17.6 0.800101H22.7551C22.9738 0.791383 23.1647 0.947234 23.1999 1.16328C23.2116 1.28335 23.1674 1.40215 23.0799 1.48528C23.0063 1.5603 22.9051 1.60179 22.7999 1.60008H19.6C18.9373 1.60008 18.4 2.13734 18.4 2.80005V12.3999C18.3999 13.0626 18.9372 13.5999 19.6 13.5999Z" fill="black"/>
<path d="M12.0004 22.3993C12.884 22.3993 13.6003 21.683 13.6003 20.7994V19.9994C13.6003 19.1157 12.884 18.3994 12.0004 18.3994C11.1167 18.3994 10.4004 19.1157 10.4004 19.9994V20.7994C10.4004 21.683 11.1167 22.3993 12.0004 22.3993ZM11.2004 19.9994C11.2004 19.5575 11.5586 19.1994 12.0004 19.1994C12.4421 19.1994 12.8003 19.5576 12.8003 19.9994V20.7994C12.8003 21.2412 12.4421 21.5993 12.0004 21.5993C11.5586 21.5993 11.2004 21.2412 11.2004 20.7994V19.9994Z" fill="black"/>
<path d="M3.20055 22.3993C4.08418 22.3993 4.80051 21.683 4.80051 20.7994V19.9994C4.80051 19.1157 4.08418 18.3994 3.20055 18.3994C2.31692 18.3994 1.60059 19.1157 1.60059 19.9994V20.7994C1.60059 21.683 2.31692 22.3993 3.20055 22.3993ZM2.40057 19.9994C2.40057 19.5575 2.75875 19.1994 3.20055 19.1994C3.64235 19.1994 4.00053 19.5576 4.00053 19.9994V20.7994C4.00053 21.2412 3.64235 21.5993 3.20055 21.5993C2.75875 21.5993 2.40057 21.2412 2.40057 20.7994V19.9994Z" fill="black"/>
<path d="M3.09593 23.9996H3.18993C4.00841 23.9966 4.79306 23.6726 5.37509 23.0972C6.02743 22.4627 6.3969 21.5924 6.40027 20.6824V18.1945C6.39889 17.6628 6.61018 17.1527 6.98706 16.7777L7.60024 16.1645L8.21303 16.7773C8.58762 17.154 8.79859 17.6632 8.80022 18.1945V20.6828C8.8039 21.5936 9.17445 22.4645 9.82821 23.0988C10.4083 23.6725 11.1903 23.9959 12.0062 23.9996H12.1038C13.8305 23.9436 15.201 22.5272 15.2001 20.7996V20.0896C15.2265 19.1397 14.8296 18.2272 14.1168 17.5987C13.404 16.9703 12.4489 16.6909 11.5098 16.8361C11.323 16.8696 11.1384 16.7674 11.0678 16.5913L9.48021 12.5681L12.7677 4.18346C12.9487 3.75985 13.0424 3.3041 13.0434 2.84348C13.102 1.75058 12.5669 0.710938 11.6434 0.123514C11.4447 -0.00281563 11.1999 -0.0334866 10.9762 0.0399018C10.7483 0.113053 10.5648 0.284041 10.4758 0.506307L7.60024 7.79744L4.72347 0.503176C4.63348 0.280158 4.44823 0.109288 4.21867 0.0376035C3.99601 -0.034081 3.75294 -0.00226087 3.55627 0.124386C2.63297 0.711969 2.09794 1.75149 2.15631 2.84435C2.1567 3.30141 2.24907 3.75371 2.42791 4.17434L5.72024 12.5642L4.13228 16.5913C4.06226 16.7704 3.87356 16.8732 3.6851 16.8349C3.45435 16.8008 3.2206 16.7916 2.98791 16.8077C1.28262 16.9441 -0.0242663 18.3803 0.000341838 20.0908V20.7996C0.00089661 22.5263 1.37015 23.9418 3.09593 23.9996ZM11.2114 0.796373C11.9041 1.23853 12.3002 2.02361 12.2442 2.84352C12.2433 3.20127 12.1696 3.5551 12.0278 3.88352L9.05022 11.4758L8.02984 8.88824L11.2114 0.796373ZM2.95553 2.84515C2.8995 2.02773 3.292 1.24443 3.98032 0.799979L10.3238 16.8853C10.5319 17.4087 11.0759 17.717 11.6318 17.6265C11.807 17.5996 11.9846 17.5921 12.1614 17.6041C13.445 17.7153 14.4233 18.8015 14.4002 20.0896V20.7996C14.4009 22.0945 13.3743 23.1564 12.0802 23.1996C11.448 23.213 10.8373 22.9703 10.3866 22.5268C9.88666 22.0433 9.60309 21.3783 9.60024 20.6828V18.1945C9.59814 17.4511 9.30288 16.7387 8.77866 16.2117L7.81106 15.2441C7.63397 15.0665 7.49084 14.858 7.38868 14.6289L3.16789 3.8735C3.02865 3.54852 2.95641 3.19873 2.95553 2.84515ZM0.800363 20.0908C0.775596 18.8009 1.75667 17.7134 3.04232 17.6057C3.21691 17.5938 3.3923 17.6005 3.56551 17.6257C4.12246 17.7195 4.66911 17.4107 4.87627 16.8853L6.14864 13.6578L6.65063 14.9378C6.7566 15.1679 6.89243 15.3831 7.05463 15.5777L6.42143 16.2109C5.89357 16.7358 5.59783 17.4501 5.60025 18.1945V20.6824C5.59732 21.376 5.31534 22.0391 4.81786 22.5224C4.36485 22.9653 3.75377 23.209 3.1203 23.1996C1.82673 23.1552 0.800878 22.094 0.800323 20.7996V20.0908H0.800363Z" fill="black"/>
</svg>
