<svg width="18" height="22" viewBox="0 0 18 22" fill="none" xmlns="http://www.w3.org/2000/svg">
<path fill-rule="evenodd" clip-rule="evenodd" d="M13.25 6C13.25 6.414 12.914 6.75 12.5 6.75C12.086 6.75 11.75 6.414 11.75 6V4.5C11.75 2.981 10.519 1.75 9 1.75C7.481 1.75 6.25 2.981 6.25 4.5V6C6.25 6.414 5.914 6.75 5.5 6.75C5.086 6.75 4.75 6.414 4.75 6V4.5C4.75 2.153 6.653 0.25 9 0.25C11.347 0.25 13.25 2.153 13.25 4.5V6Z" fill="black"/>
<path fill-rule="evenodd" clip-rule="evenodd" d="M16.3424 7.35L17.1424 19.35C17.1834 19.972 16.9654 20.582 16.5404 21.037C16.1144 21.492 15.5194 21.75 14.8974 21.75H3.10341C2.48141 21.75 1.88641 21.492 1.46041 21.037C1.03541 20.582 0.817409 19.972 0.858409 19.35L1.65841 7.35C1.73741 6.168 2.71941 5.25 3.90341 5.25H14.0974C15.2814 5.25 16.2634 6.168 16.3424 7.35ZM11.4864 9.678C11.0444 10.607 10.0974 11.25 9.00041 11.25C7.90341 11.25 6.95641 10.607 6.51441 9.678C6.33741 9.304 5.88941 9.145 5.51541 9.323C5.14141 9.5 4.98241 9.948 5.15941 10.322C5.84141 11.758 7.30541 12.75 9.00041 12.75C10.6954 12.75 12.1594 11.758 12.8414 10.322C13.0184 9.948 12.8594 9.5 12.4854 9.323C12.1114 9.145 11.6634 9.304 11.4864 9.678Z" fill="black"/>
</svg>
