<svg width="18" height="22" viewBox="0 0 18 22" fill="none" xmlns="http://www.w3.org/2000/svg">
<path fill-rule="evenodd" clip-rule="evenodd" d="M16.3419 7.35L17.1419 19.35C17.1829 19.972 16.9649 20.582 16.5399 21.037C16.1139 21.492 15.5189 21.75 14.8969 21.75H3.10292C2.48092 21.75 1.88592 21.492 1.45992 21.037C1.03492 20.582 0.816921 19.972 0.857921 19.35L1.65792 7.35C1.73692 6.168 2.71892 5.25 3.90292 5.25H14.0969C15.2809 5.25 16.2629 6.168 16.3419 7.35ZM14.8449 7.45C14.8189 7.056 14.4919 6.75 14.0969 6.75H3.90292C3.50792 6.75 3.18092 7.056 3.15492 7.45L2.35492 19.45C2.34092 19.657 2.41392 19.861 2.55592 20.012C2.69692 20.164 2.89592 20.25 3.10292 20.25H14.8969C15.1039 20.25 15.3029 20.164 15.4439 20.012C15.5859 19.861 15.6589 19.657 15.6449 19.45L14.8449 7.45Z" fill="black" fill-opacity="0.6"/>
<path fill-rule="evenodd" clip-rule="evenodd" d="M13.25 6C13.25 6.414 12.914 6.75 12.5 6.75C12.086 6.75 11.75 6.414 11.75 6V4.5C11.75 2.981 10.519 1.75 9 1.75C7.481 1.75 6.25 2.981 6.25 4.5V6C6.25 6.414 5.914 6.75 5.5 6.75C5.086 6.75 4.75 6.414 4.75 6V4.5C4.75 2.153 6.653 0.25 9 0.25C11.347 0.25 13.25 2.153 13.25 4.5V6Z" fill="black" fill-opacity="0.6"/>
<path fill-rule="evenodd" clip-rule="evenodd" d="M11.4857 9.67794C11.6627 9.30394 12.1107 9.14494 12.4847 9.32294C12.8587 9.49994 13.0177 9.94794 12.8407 10.3219C12.1587 11.7579 10.6947 12.7499 8.99974 12.7499C7.30474 12.7499 5.84074 11.7579 5.15874 10.3219C4.98174 9.94794 5.14074 9.49994 5.51474 9.32294C5.88874 9.14494 6.33674 9.30394 6.51374 9.67794C6.95574 10.6069 7.90274 11.2499 8.99974 11.2499C10.0967 11.2499 11.0437 10.6069 11.4857 9.67794Z" fill="black" fill-opacity="0.6"/>
</svg>
