<svg width="32" height="32" viewBox="0 0 32 32" fill="none" xmlns="http://www.w3.org/2000/svg">
<path d="M13.5987 13.6V9.6C13.5987 9.38783 13.683 9.18435 13.833 9.03432C13.983 8.88429 14.1865 8.8 14.3987 8.8H17.5987C17.8109 8.8 18.0144 8.88429 18.1644 9.03432C18.3144 9.18435 18.3987 9.38783 18.3987 9.6V13.6H23.9987C24.7767 13.6 25.5228 13.909 26.0729 14.4592C26.623 15.0093 26.932 15.7554 26.932 16.5333V23.4667C26.932 23.6788 26.8477 23.8823 26.6977 24.0324C26.5477 24.1824 26.3442 24.2667 26.132 24.2667C25.9199 24.2667 25.7164 24.1824 25.5663 24.0324C25.4163 23.8823 25.332 23.6788 25.332 23.4667V16.5333C25.332 15.7973 24.7347 15.2 23.9987 15.2H7.9987C7.2627 15.2 6.66536 15.7973 6.66536 16.5333V23.4667C6.66536 23.5717 6.64467 23.6758 6.60447 23.7728C6.56426 23.8699 6.50534 23.9581 6.43105 24.0324C6.35676 24.1066 6.26857 24.1656 6.17151 24.2058C6.07445 24.246 5.97042 24.2667 5.86537 24.2667C5.76031 24.2667 5.65628 24.246 5.55922 24.2058C5.46216 24.1656 5.37397 24.1066 5.29968 24.0324C5.22539 23.9581 5.16646 23.8699 5.12626 23.7728C5.08606 23.6758 5.06536 23.5717 5.06536 23.4667V16.5333C5.06536 15.7554 5.37441 15.0093 5.92452 14.4592C6.47462 13.909 7.22073 13.6 7.9987 13.6H13.5987ZM15.1987 13.6H16.7987V10.4H15.1987V13.6ZM2.13203 27.4667C1.91986 27.4667 1.71637 27.3824 1.56635 27.2324C1.41632 27.0823 1.33203 26.8788 1.33203 26.6667C1.33203 26.4545 1.41632 26.251 1.56635 26.101C1.71637 25.951 1.91986 25.8667 2.13203 25.8667H29.8654C30.0775 25.8667 30.281 25.951 30.4311 26.101C30.5811 26.251 30.6654 26.4545 30.6654 26.6667C30.6654 26.8788 30.5811 27.0823 30.4311 27.2324C30.281 27.3824 30.0775 27.4667 29.8654 27.4667H2.13203Z" fill="black"/>
<path d="M25.3307 20.9387C24.7659 21.2004 24.1506 21.3351 23.5281 21.3333C22.5883 21.3333 21.7019 21.0347 21.0182 20.5131C20.2929 21.0527 19.4112 21.3407 18.5073 21.3333C17.5686 21.3333 16.6811 21.0347 15.9974 20.5131C15.2724 21.0524 14.3911 21.3404 13.4875 21.3333C12.5467 21.3333 11.6603 21.0347 10.9766 20.5131C10.2516 21.0524 9.37034 21.3404 8.46673 21.3333C7.84445 21.3351 7.22928 21.2011 6.66406 20.9408V18.5301C6.93393 19.0848 7.62406 19.5051 8.46673 19.5051C9.20486 19.5051 9.85446 19.1755 10.1798 18.6827C10.2681 18.5524 10.3869 18.4458 10.5259 18.3721C10.6649 18.2984 10.8198 18.2599 10.9771 18.2599C11.1345 18.2599 11.2894 18.2984 11.4284 18.3721C11.5674 18.4458 11.6862 18.5524 11.7745 18.6827C12.0987 19.1755 12.7494 19.504 13.4875 19.504C14.2246 19.504 14.8742 19.1755 15.2006 18.6827C15.2889 18.5527 15.4077 18.4462 15.5466 18.3727C15.6854 18.2991 15.8402 18.2606 15.9974 18.2606C16.1546 18.2606 16.3093 18.2991 16.4482 18.3727C16.5871 18.4462 16.7059 18.5527 16.7942 18.6827C17.1195 19.1755 17.7702 19.504 18.5073 19.504C19.2454 19.504 19.8961 19.1755 20.2203 18.6827C20.3086 18.5524 20.4274 18.4458 20.5664 18.3721C20.7054 18.2984 20.8603 18.2599 21.0177 18.2599C21.175 18.2599 21.3299 18.2984 21.4689 18.3721C21.6079 18.4458 21.7267 18.5524 21.815 18.6827C22.1403 19.1755 22.7899 19.504 23.5281 19.504C24.3707 19.504 25.0609 19.0848 25.3307 18.5333V20.9397V20.9387ZM15.9974 7.46667C14.8187 7.46667 13.8641 6.46827 13.8641 5.2352C13.8641 4.41387 14.5755 3.20107 15.9974 1.59787C17.4193 3.20107 18.1307 4.41387 18.1307 5.2352C18.1307 6.46827 17.1761 7.46667 15.9974 7.46667Z" fill="black"/>
</svg>
