<svg width="24" height="24" viewBox="0 0 24 24" fill="none" xmlns="http://www.w3.org/2000/svg">
<g clip-path="url(#clip0_352_3880)">
<path d="M6.65353 7.67459C6.65353 7.12025 6.20241 6.66931 5.64792 6.66931H4.85827C4.58963 6.66931 4.37109 6.88784 4.37109 7.15639V8.44658V9.73681C4.37109 10.0054 4.58963 10.2239 4.85827 10.2239H6.00816C6.56264 10.2239 7.01377 9.77291 7.01377 9.21856V9.10034C7.01377 8.74231 6.825 8.4283 6.54234 8.25012C6.61289 8.11278 6.65353 7.95758 6.65353 7.79286V7.67459ZM5.07422 7.37239H5.64792C5.8147 7.37239 5.95041 7.50795 5.95041 7.67455V7.79281C5.95041 7.95659 5.81189 8.09497 5.64792 8.09497H5.07422V7.37239ZM6.31064 9.21856C6.31064 9.3852 6.17494 9.52076 6.00816 9.52076H5.07422V8.79814H5.64792H6.0082C6.17498 8.79814 6.31069 8.9337 6.31069 9.10034V9.21856H6.31064Z" fill="white"/>
<path d="M12.1127 10.2239C12.7969 10.2239 13.3536 9.66738 13.3536 8.98338V7.90975C13.3536 7.22575 12.7969 6.66925 12.1127 6.66925H11.9519C11.2676 6.66925 10.7109 7.22575 10.7109 7.90975V8.98338C10.7109 9.66738 11.2676 10.2239 11.9519 10.2239H12.1127ZM11.4141 8.98338V7.90975C11.4141 7.61345 11.6553 7.37238 11.9519 7.37238H12.1127C12.4092 7.37238 12.6505 7.61345 12.6505 7.90975V8.98338C12.6505 9.27967 12.4092 9.52075 12.1127 9.52075H11.9519C11.6553 9.52075 11.4141 9.27967 11.4141 8.98338Z" fill="white"/>
<path d="M8.13281 6.66925C7.93866 6.66925 7.78125 6.82666 7.78125 7.02081V9.87231C7.78125 10.0665 7.93866 10.2239 8.13281 10.2239H9.83442C10.0286 10.2239 10.186 10.0665 10.186 9.87231C10.186 9.67816 10.0286 9.52075 9.83442 9.52075H8.48438V7.02081C8.48438 6.82666 8.32702 6.66925 8.13281 6.66925Z" fill="white"/>
<path d="M15.5742 1.90042C15.3801 1.90042 15.2227 2.05783 15.2227 2.25198V2.25597C15.2227 2.45012 15.3801 2.60556 15.5742 2.60556C15.7684 2.60556 15.9258 2.44619 15.9258 2.25203C15.9258 2.05787 15.7684 1.90042 15.5742 1.90042Z" fill="white"/>
<path d="M13.7695 1.89508C13.5754 1.89508 13.418 2.05249 13.418 2.24664V2.25194C13.418 2.4461 13.5754 2.6035 13.7695 2.6035C13.9637 2.6035 14.1211 2.4461 14.1211 2.25194V2.24664C14.1211 2.05249 13.9637 1.89508 13.7695 1.89508Z" fill="white"/>
<path d="M17.3828 1.9097C17.1887 1.9097 17.0312 2.0671 17.0312 2.26126V2.26656C17.0312 2.46071 17.1887 2.61812 17.3828 2.61812C17.577 2.61812 17.7344 2.46071 17.7344 2.26656V2.26126C17.7344 2.0671 17.577 1.9097 17.3828 1.9097Z" fill="white"/>
<path d="M11.607 1.90442H3.92188C3.72772 1.90442 3.57031 2.06183 3.57031 2.25598C3.57031 2.45014 3.72772 2.60754 3.92188 2.60754H11.607C11.8012 2.60754 11.9586 2.45014 11.9586 2.25598C11.9586 2.06183 11.8012 1.90442 11.607 1.90442Z" fill="white"/>
<path d="M14.9767 7.37238H16.1173C16.3114 7.37238 16.4688 7.21497 16.4688 7.02081C16.4688 6.82666 16.3114 6.66925 16.1173 6.66925H14.9767C14.411 6.66925 13.9844 7.12028 13.9844 7.71841V9.28497C13.9844 9.66363 14.2816 10.2238 14.9195 10.2238H15.6587C16.2944 10.2238 16.7215 9.80486 16.7215 9.18133V8.9395C16.7215 8.39608 16.332 8.01658 15.7743 8.01658H15.5789C15.3848 8.01658 15.2274 8.17399 15.2274 8.36814C15.2274 8.5623 15.3848 8.7197 15.5789 8.7197H15.7743C15.9011 8.7197 16.0183 8.74633 16.0183 8.9395V9.18133C16.0183 9.27414 16.0183 9.5207 15.6587 9.5207H14.9195C14.7011 9.5207 14.6875 9.28731 14.6875 9.28497V7.71841C14.6875 7.50499 14.7983 7.37238 14.9767 7.37238Z" fill="white"/>
<path d="M23.0057 7.10121C22.8661 6.76427 22.6018 6.48982 22.2621 6.32876L21.3973 5.91649C21.0342 5.74441 20.64 5.72707 20.2981 5.83765V0.867446C20.2981 0.389321 19.909 0.000305176 19.4308 0.000305176H1.758C1.27973 0.000305176 0.890625 0.389274 0.890625 0.867446V11.7538C0.890625 11.948 1.04803 12.1054 1.24219 12.1054C1.43634 12.1054 1.59375 11.948 1.59375 11.7538V4.34416H19.595V6.37638C19.5697 6.41684 19.5463 6.45902 19.5254 6.50304L18.0538 9.59637C17.9703 9.77173 18.0449 9.98145 18.2202 10.0649C18.3955 10.1483 18.6052 10.0737 18.6887 9.89848L19.371 8.46443L21.5649 9.50726L17.6836 17.6662L15.4898 16.6244L17.9988 11.3494C18.0822 11.1741 18.0076 10.9643 17.8323 10.8809C17.6569 10.7975 17.4473 10.8721 17.3638 11.0474L16.5422 12.7748H6.18614C5.99198 12.7748 5.83458 12.9322 5.83458 13.1264C5.83458 13.3205 5.99198 13.4779 6.18614 13.4779H16.2077L15.3527 15.2756H3.78661C3.59245 15.2756 3.43505 15.433 3.43505 15.6271C3.43505 15.8213 3.59245 15.9787 3.78661 15.9787H15.0183L14.7037 16.6401C14.6846 16.6803 14.6733 16.7239 14.6704 16.7683L14.6051 17.7762H3.8677C3.67355 17.7762 3.51614 17.9336 3.51614 18.1278C3.51614 18.3219 3.67355 18.4793 3.8677 18.4793H14.5595L14.4218 20.6057C14.4211 20.6153 14.4209 20.6248 14.421 20.6344C14.4246 20.8453 14.5307 21.0206 14.7049 21.1033C14.7706 21.1346 14.8405 21.1499 14.911 21.1499C15.0271 21.1499 15.1447 21.1082 15.2479 21.027C15.2554 21.0211 15.2626 21.0149 15.2696 21.0084L18.0892 18.3921C18.1219 18.3618 18.1485 18.3256 18.1676 18.2854L19.595 15.2848V23.1331C19.595 23.222 19.5198 23.2971 19.4308 23.2971H1.758C1.66898 23.2971 1.59375 23.222 1.59375 23.1331V13.3775C1.59375 13.1833 1.43634 13.0259 1.24219 13.0259C1.04803 13.0259 0.890625 13.1833 0.890625 13.3775V23.1331C0.890625 23.6112 1.27973 24.0003 1.758 24.0003H19.4308C19.909 24.0003 20.2981 23.6113 20.2981 23.1331V13.8069L22.9895 8.14948C23.1445 7.82252 23.1503 7.45029 23.0057 7.10121ZM15.1556 20.1551L15.2142 19.2497L15.8205 19.5381L15.1556 20.1551ZM16.3753 19.0234L15.2632 18.4944L15.3386 17.331L17.2308 18.2295L16.3753 19.0234ZM19.595 3.64104H1.59375V0.867446C1.59375 0.777024 1.66744 0.70343 1.758 0.70343H19.4308C19.5213 0.70343 19.595 0.776977 19.595 0.867446V3.64104ZM22.3543 7.84779L21.867 8.87229L19.673 7.82946L20.1605 6.80477C20.3092 6.49127 20.7289 6.37788 21.0954 6.55155L21.9602 6.96382C22.1429 7.05035 22.2834 7.19473 22.3561 7.37027C22.4237 7.53335 22.423 7.70304 22.3543 7.84779Z" fill="white"/>
</g>
<defs>
<clipPath id="clip0_352_3880">
<rect width="24" height="24" fill="white" transform="translate(0 0.000305176)"/>
</clipPath>
</defs>
</svg>
