<svg width="24" height="24" viewBox="0 0 24 24" fill="none" xmlns="http://www.w3.org/2000/svg">
<path d="M9.21755 11.7292C9.05883 11.663 8.87784 11.6989 8.75634 11.8206C8.63489 11.9422 8.59941 12.1234 8.66592 12.282C8.667 12.2846 8.66817 12.2872 8.6693 12.2898C8.6693 12.2898 10.0082 15.276 10.0102 15.2803C10.1918 15.6855 10.84 15.4124 10.6518 14.9926L10.417 14.4689L11.3991 13.4869L11.9205 13.7226C12.0975 13.8027 12.3057 13.724 12.3857 13.547C12.4657 13.3701 12.3871 13.1618 12.2101 13.0818L9.22697 11.7333C9.22383 11.7319 9.22074 11.7306 9.21755 11.7292ZM10.7142 13.1773L10.1092 13.7823L9.61514 12.6805L10.7142 13.1773Z" fill="white"/>
<path d="M10.4739 10.1335C10.4023 10.2698 10.4278 10.4367 10.5366 10.5455C10.5366 10.5455 12.7291 12.738 12.7292 12.738C12.864 12.8728 13.0908 12.8736 13.2264 12.738C13.3637 12.6007 13.3637 12.3781 13.2264 12.2408L11.8314 10.8458L14.3513 11.3071C14.5325 11.3399 14.7012 11.2625 14.7813 11.1096C14.8632 10.9532 14.828 10.764 14.6892 10.6252L12.5461 8.52309C12.4074 8.38715 12.1848 8.38931 12.0489 8.52792C11.9129 8.66657 11.915 8.88918 12.0537 9.02512L13.4909 10.4347L10.8485 9.95114C10.6973 9.92343 10.5454 9.99731 10.4739 10.1335Z" fill="white"/>
<path d="M15.2208 10.248C15.3564 10.3826 15.5836 10.3816 15.7181 10.2462C15.7363 10.2278 16.1649 9.79584 16.3338 9.62095C16.953 8.97984 16.8594 7.97165 16.1115 7.22381C15.7553 6.86751 15.351 6.64799 14.9424 6.58893C14.4775 6.52181 14.032 6.67448 13.6877 7.01878C13.6877 7.01878 13.0851 7.62135 13.084 7.62248C12.9509 7.75556 12.9513 7.98745 13.0845 8.1202C13.0845 8.1202 13.906 8.93859 14.149 9.18164C14.4452 9.47798 15.2207 10.2479 15.2208 10.248ZM14.1849 7.51598C14.3739 7.32693 14.595 7.24926 14.8418 7.28484C15.0954 7.3215 15.3697 7.47637 15.6143 7.72096C16.1684 8.27503 16.1209 8.82909 15.828 9.13242C15.7459 9.2174 15.5967 9.369 15.4664 9.50081C15.2135 9.24951 14.8337 8.87193 14.6461 8.68443C14.4895 8.52778 14.0928 8.13239 13.8302 7.87064L14.1849 7.51598Z" fill="white"/>
<path d="M4.24592 16.332C4.24592 16.332 3.61015 16.9678 3.6079 16.9701C3.47421 17.1038 3.47468 17.3341 3.6079 17.4673C3.6079 17.4673 5.80118 19.6605 5.80456 19.6639C5.93904 19.7984 6.16882 19.7981 6.30289 19.6628C6.30293 19.6628 6.88695 19.0735 7.04867 18.9118C7.51179 18.4487 7.51179 17.6952 7.04867 17.232C6.77646 16.9598 6.4039 16.8476 6.04892 16.8954C6.0117 16.6889 5.91345 16.4913 5.75412 16.332C5.33829 15.9162 4.66175 15.9162 4.24592 16.332ZM5.52757 18.0678L5.86611 17.7293C6.05506 17.5403 6.36247 17.5403 6.55142 17.7293C6.74037 17.9182 6.74037 18.2256 6.55142 18.4146C6.45964 18.5063 6.23225 18.7354 6.05211 18.917L5.36586 18.2307C5.4185 18.1777 5.47432 18.1214 5.52757 18.0678ZM5.25687 17.3429C5.21009 17.3896 5.12248 17.4777 5.02686 17.574L4.868 17.7329L4.35373 17.2186L4.74317 16.8292C4.88478 16.6875 5.11531 16.6876 5.25682 16.8292C5.39848 16.9708 5.39848 17.2013 5.25687 17.3429Z" fill="white"/>
<path d="M8.08139 14.1338C7.62957 13.682 6.8798 13.6964 6.41011 14.1662L5.82638 14.7499C5.82624 14.7501 5.82614 14.7501 5.826 14.7503C5.82586 14.7504 5.82577 14.7505 5.82563 14.7506C5.68833 14.8879 5.68833 15.1105 5.82563 15.2478L8.02229 17.4445C8.09091 17.5131 8.18091 17.5475 8.27091 17.5475C8.36091 17.5475 8.45086 17.5131 8.51954 17.4445C8.65683 17.3072 8.65683 17.0846 8.51954 16.9473L7.82893 16.2567L9.43622 16.3591C9.44382 16.3596 9.45141 16.3599 9.45891 16.3599C9.64289 16.3599 9.79758 16.2168 9.80944 16.0306C9.82182 15.8369 9.67472 15.6697 9.48094 15.6574L8.22929 15.5775C8.51269 15.1178 8.46572 14.5182 8.08139 14.1338ZM7.55189 15.3079C7.47474 15.3851 7.34039 15.5205 7.22058 15.6415C7.10213 15.5243 6.69666 15.1207 6.573 14.9977L6.90732 14.6633C7.0995 14.4711 7.40949 14.4563 7.58419 14.631C7.75889 14.8058 7.74408 15.1157 7.55189 15.3079Z" fill="white"/>
<path d="M18.0515 11.9401L7.55036 22.4411C7.38307 22.6084 7.11096 22.6084 6.94375 22.4411L2.56502 18.0624C2.42772 17.9251 2.20511 17.9251 2.06782 18.0624C1.93052 18.1997 1.93052 18.4223 2.06782 18.5596L6.44655 22.9383C6.66728 23.1591 6.95711 23.2694 7.24708 23.2694C7.53696 23.2694 7.82693 23.159 8.04761 22.9383L18.5487 12.4373C18.686 12.3 18.686 12.0774 18.5487 11.9401C18.4114 11.8028 18.1888 11.8028 18.0515 11.9401Z" fill="white"/>
<path d="M22.9789 1.75162C21.6175 0.390186 19.4022 0.390186 18.0407 1.75162C17.8272 1.96514 17.6434 2.20326 17.4927 2.4614L14.4887 1.80408C14.1099 1.7212 13.7203 1.83544 13.4461 2.10951L0.331594 15.2241C0.11775 15.4379 0 15.7222 0 16.0246C0 16.327 0.11775 16.6113 0.331594 16.8251L0.922875 17.4164C0.9915 17.4851 1.0815 17.5194 1.1715 17.5194C1.26145 17.5194 1.35145 17.4851 1.42013 17.4164C1.55742 17.2791 1.55742 17.0565 1.42013 16.9192L0.828844 16.3279C0.661594 16.1607 0.661594 15.8886 0.828844 15.7213L13.9433 2.60676C14.0472 2.50289 14.1948 2.45958 14.3384 2.49103L19.354 3.58856C19.5172 3.62428 19.6457 3.75276 19.6814 3.91589L20.3571 7.00397C19.8219 6.97486 19.2936 6.79275 18.8441 6.45759C19.2826 5.91806 19.2395 5.10183 18.747 4.60936C17.9002 3.76256 16.386 4.38244 16.3861 5.58731C16.3861 5.95673 16.53 6.30403 16.7912 6.56522C17.0524 6.82645 17.3997 6.97031 17.7691 6.97031C17.9365 6.97031 18.0993 6.94078 18.2516 6.8842C18.9007 7.43536 19.7052 7.71094 20.5098 7.71094H20.5118L20.7789 8.93161C20.8103 9.07509 20.7671 9.22275 20.6632 9.32658L19.2089 10.781C19.0716 10.9183 19.0716 11.1409 19.2089 11.2782C19.3462 11.4155 19.5688 11.4155 19.7061 11.2782L21.1605 9.82378C21.4346 9.54965 21.5487 9.15993 21.4659 8.78123L21.216 7.63931C21.8625 7.50679 22.4784 7.19029 22.9789 6.68976C24.3404 5.32837 24.3404 3.11311 22.9789 1.75162ZM18.3342 5.96564C18.2307 5.83697 18.139 5.69976 18.0603 5.55539C17.9673 5.3849 17.7538 5.32214 17.5833 5.41509C17.4128 5.50809 17.35 5.72165 17.443 5.89209C17.5126 6.01969 17.5902 6.14278 17.6752 6.26072C17.5292 6.24065 17.3944 6.174 17.2884 6.06797C17.16 5.93958 17.0893 5.76886 17.0893 5.58726C17.0893 5.2177 17.4005 4.90744 17.7691 4.90744C18.1373 4.90744 18.449 5.2214 18.449 5.58726C18.449 5.72405 18.4088 5.85464 18.3342 5.96564ZM21.0657 6.95259L20.3684 3.76556C20.2741 3.33497 19.935 2.99587 19.5044 2.90161L18.2247 2.62158C18.3176 2.48915 18.4223 2.36451 18.538 2.24883C19.6252 1.16156 21.3944 1.16151 22.4817 2.24883C23.569 3.33614 23.569 5.10529 22.4817 6.19261C22.0799 6.59447 21.585 6.84778 21.0657 6.95259Z" fill="white"/>
</svg>
