<svg width="24" height="24" viewBox="0 0 24 24" fill="none" xmlns="http://www.w3.org/2000/svg">
<g clip-path="url(#clip0_352_3899)">
<path d="M12.0013 16.4253C13.2013 16.4253 14.3263 15.9753 15.1513 15.1128C15.9763 14.2878 16.4263 13.2003 16.3888 12.0378V4.87532C16.3888 2.43782 14.4013 0.487823 12.0013 0.487823C9.5638 0.487823 7.6138 2.47532 7.6138 4.87532V12.0003C7.5763 14.4378 9.5638 16.4253 12.0013 16.4253ZM8.8888 4.87532C8.8888 3.18782 10.2763 1.80032 11.9638 1.80032C13.6513 1.80032 15.0388 3.18782 15.0388 4.87532V12.0378C15.0388 12.8628 14.7388 13.6128 14.1763 14.2128C13.5763 14.8128 12.7888 15.1503 11.9638 15.1503C10.2763 15.1503 8.8888 13.7628 8.8888 12.0753V4.87532Z" fill="white"/>
<path d="M19.7625 11.8128C19.7625 11.4378 19.4625 11.1378 19.0875 11.1378C18.7125 11.1378 18.4125 11.4378 18.4125 11.8128C18.4125 15.3753 15.525 18.2628 11.925 18.2628C8.3625 18.2628 5.475 15.3753 5.475 11.8128C5.475 11.4378 5.175 11.1378 4.8 11.1378C4.425 11.1378 4.125 11.4378 4.125 11.8128C4.125 15.8628 7.2375 19.2003 11.2125 19.5378V22.2003H8.5875C8.2125 22.2003 7.9125 22.5003 7.9125 22.8753C7.9125 23.2503 8.2125 23.5503 8.5875 23.5503H15.15C15.525 23.5503 15.825 23.2503 15.825 22.8753C15.825 22.5003 15.525 22.2003 15.15 22.2003H12.525V19.5378C16.6125 19.2378 19.7625 15.9003 19.7625 11.8128Z" fill="white"/>
</g>
<defs>
<clipPath id="clip0_352_3899">
<rect width="24" height="24" fill="white" transform="translate(0 0.000335693)"/>
</clipPath>
</defs>
</svg>
