<svg width="16" height="16" viewBox="0 0 16 16" fill="none" xmlns="http://www.w3.org/2000/svg">
<path fill-rule="evenodd" clip-rule="evenodd" d="M12.8948 5.56667L13.4281 13.5667C13.4554 13.9813 13.3101 14.388 13.0268 14.6913C12.7428 14.9947 12.3461 15.1667 11.9314 15.1667H4.06878C3.65411 15.1667 3.25744 14.9947 2.97344 14.6913C2.69011 14.388 2.54478 13.9813 2.57211 13.5667L3.10544 5.56667C3.15811 4.77867 3.81278 4.16667 4.60211 4.16667H11.3981C12.1874 4.16667 12.8421 4.77867 12.8948 5.56667ZM11.8968 5.63334C11.8794 5.37067 11.6614 5.16667 11.3981 5.16667H4.60211C4.33878 5.16667 4.12078 5.37067 4.10344 5.63334L3.57011 13.6333C3.56078 13.7713 3.60944 13.9073 3.70411 14.008C3.79811 14.1093 3.93078 14.1667 4.06878 14.1667H11.9314C12.0694 14.1667 12.2021 14.1093 12.2961 14.008C12.3908 13.9073 12.4394 13.7713 12.4301 13.6333L11.8968 5.63334Z" fill="black"/>
<path fill-rule="evenodd" clip-rule="evenodd" d="M10.8337 4.66667C10.8337 4.94267 10.6097 5.16667 10.3337 5.16667C10.0577 5.16667 9.83366 4.94267 9.83366 4.66667V3.66667C9.83366 2.654 9.01299 1.83334 8.00033 1.83334C6.98766 1.83334 6.16699 2.654 6.16699 3.66667V4.66667C6.16699 4.94267 5.94299 5.16667 5.66699 5.16667C5.39099 5.16667 5.16699 4.94267 5.16699 4.66667V3.66667C5.16699 2.102 6.43566 0.833336 8.00033 0.833336C9.56499 0.833336 10.8337 2.102 10.8337 3.66667V4.66667Z" fill="black"/>
<path fill-rule="evenodd" clip-rule="evenodd" d="M9.65732 7.11867C9.77532 6.86933 10.074 6.76333 10.3233 6.882C10.5727 7 10.6787 7.29867 10.5607 7.548C10.106 8.50533 9.12999 9.16667 7.99999 9.16667C6.86999 9.16667 5.89399 8.50533 5.43932 7.548C5.32132 7.29867 5.42732 7 5.67666 6.882C5.92599 6.76333 6.22466 6.86933 6.34266 7.11867C6.63732 7.738 7.26866 8.16667 7.99999 8.16667C8.73132 8.16667 9.36266 7.738 9.65732 7.11867Z" fill="black"/>
</svg>
