<svg width="24" height="25" viewBox="0 0 24 25" fill="none" xmlns="http://www.w3.org/2000/svg">
<g clip-path="url(#clip0_139_1439)">
<path d="M19.413 19.5H10.01C8.895 19.5 7.907 18.753 7.609 17.684L4.43 6.588C4.25 5.946 3.659 5.5 2.99 5.5H0.5C0.224 5.5 0 5.276 0 5C0 4.724 0.224 4.5 0.5 4.5H2.99C4.105 4.5 5.093 5.247 5.391 6.316L6.018 8.5H22.499C22.978 8.5 23.417 8.72 23.702 9.104C23.988 9.488 24.073 9.972 23.935 10.43L21.784 17.78C21.438 18.816 20.487 19.5 19.413 19.5ZM6.304 9.5L8.571 17.412C8.75 18.054 9.341 18.5 10.01 18.5H19.413C20.047 18.5 20.629 18.081 20.829 17.482L22.978 10.144C23.024 9.991 22.995 9.83 22.9 9.702C22.805 9.573 22.659 9.5 22.499 9.5H6.304Z" fill="white"/>
<path d="M11 24.5C9.897 24.5 9 23.603 9 22.5C9 21.397 9.897 20.5 11 20.5C12.103 20.5 13 21.397 13 22.5C13 23.603 12.103 24.5 11 24.5ZM11 21.5C10.448 21.5 10 21.949 10 22.5C10 23.051 10.448 23.5 11 23.5C11.552 23.5 12 23.051 12 22.5C12 21.949 11.552 21.5 11 21.5Z" fill="white"/>
<path d="M18 24.5C16.897 24.5 16 23.603 16 22.5C16 21.397 16.897 20.5 18 20.5C19.103 20.5 20 21.397 20 22.5C20 23.603 19.103 24.5 18 24.5ZM18 21.5C17.448 21.5 17 21.949 17 22.5C17 23.051 17.448 23.5 18 23.5C18.552 23.5 19 23.051 19 22.5C19 21.949 18.552 21.5 18 21.5Z" fill="white"/>
</g>
<defs>
<clipPath id="clip0_139_1439">
<rect width="24" height="24" fill="white" transform="translate(0 0.5)"/>
</clipPath>
</defs>
</svg>
