<svg width="24" height="24" viewBox="0 0 24 24" fill="none" xmlns="http://www.w3.org/2000/svg">
<path d="M23.5295 7.55392C23.147 7.40092 22.7089 7.58692 22.5559 7.97243L22.1074 9.09445C20.8204 4.29586 16.4478 0.749786 11.2502 0.749786C5.0461 0.749786 0 5.79588 0 12C0 18.2041 5.0461 23.2502 11.2502 23.2502C14.2548 23.2502 17.0808 22.0802 19.2064 19.9562C19.4989 19.6637 19.4989 19.1881 19.2064 18.8956C18.9139 18.6031 18.4384 18.6031 18.1459 18.8956C16.3023 20.7362 13.8543 21.7502 11.2502 21.7502C5.87411 21.7502 1.50003 17.3761 1.50003 12C1.50003 6.6239 5.87411 2.24982 11.2502 2.24982C15.9318 2.24982 19.8514 5.56788 20.7859 9.97497L19.2814 8.46894C18.9889 8.17643 18.5134 8.17643 18.2209 8.46894C17.9284 8.76144 17.9284 9.23695 18.2209 9.52946L21.2209 12.5295C21.3619 12.6735 21.5539 12.75 21.7504 12.75C21.7999 12.75 21.8509 12.7455 21.9019 12.735C22.1494 12.684 22.3534 12.513 22.4464 12.279L23.9465 8.52894C24.0995 8.14343 23.9135 7.70692 23.5295 7.55392Z" fill="white"/>
</svg>
