<svg width="24" height="24" viewBox="0 0 24 24" fill="none" xmlns="http://www.w3.org/2000/svg">
<g clip-path="url(#clip0_352_3982)">
<path fill-rule="evenodd" clip-rule="evenodd" d="M2.84229 16.3305H2.74507C2.02325 16.3305 1.33099 16.0437 0.820584 15.5333C0.310174 15.0229 0.0234375 14.3307 0.0234375 13.6088V11.4941C0.0234375 10.7723 0.310174 10.08 0.820584 9.56964C1.33099 9.05923 2.02325 8.77249 2.74507 8.77249H3.69595V8.7491C3.69595 4.16286 7.41385 0.445007 12 0.445007C16.5863 0.445007 20.3041 4.16286 20.3041 8.7491V8.77249H21.255C21.9768 8.77249 22.6691 9.05923 23.1795 9.56964C23.6899 10.08 23.9767 10.7723 23.9767 11.4941V13.6088C23.9767 14.3307 23.6899 15.0229 23.1795 15.5333C22.6691 16.0437 21.9768 16.3305 21.255 16.3305H19.9366C19.8107 16.3305 19.69 16.2805 19.601 16.1915C19.512 16.1025 19.462 15.9818 19.462 15.856V8.7491C19.462 4.62798 16.1212 1.28711 12 1.28711C7.87892 1.28711 4.53806 4.62798 4.53806 8.7491V15.856C4.53806 15.9818 4.48809 16.1025 4.39911 16.1915C4.31008 16.2805 4.18943 16.3305 4.06358 16.3305H3.68444C3.70601 18.9943 5.87186 21.1468 8.5404 21.1468H9.35509C9.43527 20.7766 9.62035 20.4339 9.89235 20.1619C10.2652 19.789 10.7709 19.5795 11.2983 19.5795H12.7018C13.7999 19.5795 14.6901 20.4697 14.6901 21.5678C14.6901 22.6659 13.7999 23.5561 12.7018 23.5561H11.2983C10.3447 23.5561 9.54788 22.8848 9.35467 21.9889H8.5404C5.40655 21.9889 2.86358 19.459 2.84229 16.3305ZM13.848 21.5678C13.848 20.9348 13.3348 20.4216 12.7018 20.4216H11.2983C10.9943 20.4216 10.7028 20.5424 10.4878 20.7573C10.2728 20.9723 10.1521 21.2638 10.1521 21.5678C10.1521 22.2008 10.6653 22.714 11.2983 22.714H12.7018C13.3348 22.714 13.848 22.2008 13.848 21.5678ZM3.69595 9.6146H2.74507C2.2466 9.6146 1.76851 9.81263 1.41605 10.1651C1.06358 10.5176 0.865543 10.9957 0.865543 11.4941V13.6088C0.865543 14.1073 1.06358 14.5854 1.41605 14.9379C1.76851 15.2903 2.2466 15.4884 2.74507 15.4884H3.69595V9.6146ZM20.3041 9.6146V15.4884H21.255C21.7535 15.4884 22.2316 15.2903 22.584 14.9379C22.9366 14.5854 23.1345 14.1073 23.1345 13.6088V11.4941C23.1345 10.9957 22.9366 10.5176 22.584 10.1651C22.2316 9.81263 21.7535 9.6146 21.255 9.6146H20.3041Z" fill="white"/>
</g>
<defs>
<clipPath id="clip0_352_3982">
<rect width="24" height="24" fill="white" transform="translate(0 0.000549316)"/>
</clipPath>
</defs>
</svg>
