<svg width="28" height="27" viewBox="0 0 28 27" fill="none" xmlns="http://www.w3.org/2000/svg">
<path d="M24.3654 21.5334L25.5292 16.056L24.4337 15.8224C23.8943 15.7077 23.4225 15.3835 23.122 14.9211C22.8216 14.4586 22.7171 13.8958 22.8316 13.3563L23.0641 12.2608L7.93556 9.04482L7.70303 10.1403C7.64624 10.4075 7.53738 10.6609 7.38265 10.886C7.22793 11.1112 7.03037 11.3036 6.80127 11.4524C6.57216 11.6011 6.316 11.7033 6.0474 11.7531C5.7788 11.8029 5.50302 11.7992 5.23583 11.7424L4.14036 11.5099L2.97662 16.9872L4.07209 17.2198C4.3393 17.2765 4.5927 17.3854 4.81783 17.5401C5.04296 17.6949 5.2354 17.8924 5.38418 18.1215C5.53295 18.3506 5.63514 18.6068 5.68491 18.8754C5.73467 19.144 5.73104 19.4198 5.67423 19.687L5.38623 21.0438L20.5137 24.2587L20.8017 22.903C20.8585 22.6357 20.9673 22.3823 21.1221 22.1572C21.2768 21.9321 21.4743 21.7396 21.7034 21.5909C21.9326 21.4421 22.1887 21.3399 22.4573 21.2901C22.7259 21.2404 23.0017 21.244 23.2689 21.3008L24.3665 21.5334H24.3654ZM24.0326 23.0982L22.9372 22.8656C22.8755 22.8525 22.8118 22.8516 22.7497 22.8631C22.6877 22.8746 22.6285 22.8982 22.5756 22.9326C22.5227 22.967 22.4771 23.0114 22.4414 23.0635C22.4057 23.1155 22.3806 23.174 22.3676 23.2358L22.0796 24.5915L23.6444 24.9243L24.0326 23.0982ZM25.862 14.4902L26.1948 12.9254L24.63 12.5926L24.3964 13.688C24.3832 13.7497 24.3824 13.8134 24.3939 13.8755C24.4054 13.9375 24.429 13.9967 24.4633 14.0496C24.4977 14.1025 24.5422 14.1481 24.5942 14.1838C24.6462 14.2195 24.7048 14.2446 24.7665 14.2576L25.862 14.4902ZM3.82036 20.712L4.10836 19.3552C4.13493 19.2307 4.11098 19.1008 4.04177 18.994C3.97256 18.8872 3.86376 18.8122 3.73929 18.7856L2.64382 18.5531L2.25556 20.3792L3.82036 20.712ZM6.37076 8.71202L4.80596 8.38135L4.47316 9.94509L5.56862 10.1787C5.63033 10.1918 5.69402 10.1927 5.75606 10.1812C5.81809 10.1697 5.87725 10.1461 5.93016 10.1117C5.98306 10.0773 6.02867 10.0329 6.06437 9.98084C6.10007 9.92883 6.12517 9.87028 6.13823 9.80855L6.37076 8.71309V8.71202ZM4.35582 6.64909L27.3105 11.528C27.4132 11.5499 27.5107 11.5919 27.5972 11.6515C27.6837 11.711 27.7577 11.7871 27.8148 11.8752C27.872 11.9634 27.9112 12.0619 27.9303 12.1652C27.9494 12.2685 27.9479 12.3746 27.926 12.4774L25.0428 26.04C25.021 26.1429 24.9791 26.2404 24.9196 26.3271C24.8601 26.4137 24.784 26.4878 24.6959 26.545C24.6077 26.6023 24.5091 26.6416 24.4057 26.6608C24.3024 26.6799 24.1962 26.6785 24.0934 26.6566L1.14089 21.7766C1.03814 21.7546 0.940721 21.7127 0.854185 21.6531C0.767648 21.5935 0.693693 21.5175 0.636541 21.4294C0.57939 21.3412 0.540161 21.2427 0.521096 21.1393C0.50203 21.036 0.503501 20.93 0.525425 20.8272L3.40649 7.26562C3.45053 7.05814 3.57516 6.87665 3.75298 6.76103C3.9308 6.64542 4.14832 6.60515 4.35582 6.64909ZM7.78302 5.34135C7.6949 5.53443 7.53369 5.68459 7.33485 5.75881C7.13601 5.83302 6.91584 5.82521 6.72276 5.73709C6.52968 5.64896 6.37952 5.48775 6.3053 5.28891C6.23109 5.09007 6.2389 4.8699 6.32702 4.67682L7.87049 1.29655C8.28649 0.442153 9.30943 0.0698866 10.1596 0.485887L25.0353 7.74135C25.1322 7.78581 25.2193 7.84919 25.2914 7.92778C25.3635 8.00637 25.4191 8.09858 25.455 8.19899C25.491 8.29939 25.5065 8.40597 25.5006 8.51245C25.4948 8.61894 25.4677 8.72317 25.421 8.81904C25.3742 8.9149 25.3088 9.00045 25.2285 9.07067C25.1483 9.14088 25.0548 9.19434 24.9536 9.2279C24.8523 9.26146 24.7454 9.27444 24.6391 9.26608C24.5328 9.25772 24.4292 9.22819 24.3345 9.17922L9.45769 1.92482C9.41289 1.90349 9.34356 1.92802 9.31689 1.98029L7.78302 5.34135Z" fill="black"/>
<path d="M13.3955 20.5648C12.8817 20.4556 12.3943 20.2463 11.9614 19.9487C11.5284 19.6512 11.1583 19.2713 10.8721 18.8308C10.5859 18.3902 10.3894 17.8976 10.2936 17.381C10.1978 16.8645 10.2047 16.3341 10.3139 15.8203C10.4231 15.3064 10.6324 14.8191 10.93 14.3861C11.2275 13.9531 11.6074 13.583 12.048 13.2968C12.4885 13.0107 12.9812 12.8141 13.4977 12.7183C14.0142 12.6226 14.5446 12.6295 15.0585 12.7387C15.5723 12.8479 16.0596 13.0573 16.4926 13.3549C16.9255 13.6525 17.2956 14.0325 17.5817 14.4731C17.8678 14.9137 18.0643 15.4064 18.1601 15.9229C18.2558 16.4395 18.2488 16.9699 18.1395 17.4837C18.0303 17.9976 17.8209 18.4849 17.5233 18.9179C17.2257 19.3508 16.8457 19.7209 16.4051 20.007C15.9645 20.2931 15.4718 20.4896 14.9553 20.5853C14.4387 20.681 13.9083 20.6741 13.3945 20.5648H13.3955ZM13.7283 18.9989C14.039 19.071 14.3609 19.0804 14.6753 19.0266C14.9896 18.9728 15.2901 18.8569 15.5592 18.6857C15.8282 18.5145 16.0604 18.2913 16.2423 18.0293C16.4241 17.7673 16.5519 17.4717 16.6182 17.1597C16.6844 16.8478 16.6879 16.5257 16.6283 16.2124C16.5687 15.8991 16.4472 15.6009 16.271 15.335C16.0948 15.0692 15.8674 14.8412 15.6021 14.6642C15.3367 14.4873 15.0388 14.365 14.7257 14.3045C14.1083 14.1853 13.4687 14.3131 12.9446 14.6605C12.4205 15.0079 12.0536 15.5472 11.923 16.1622C11.7923 16.7773 11.9082 17.4191 12.2458 17.9496C12.5835 18.4801 13.1158 18.8569 13.7283 18.9989Z" fill="black"/>
</svg>
