<svg width="24" height="24" viewBox="0 0 24 24" fill="none" xmlns="http://www.w3.org/2000/svg">
<path d="M6.75 21.7504C6.37916 21.7504 6.01665 21.6404 5.70831 21.4344C5.39996 21.2283 5.15964 20.9355 5.01773 20.5929C4.87581 20.2503 4.83868 19.8733 4.91103 19.5096C4.98338 19.1459 5.16195 18.8118 5.42418 18.5495C5.6864 18.2873 6.02049 18.1087 6.38421 18.0364C6.74792 17.964 7.12492 18.0012 7.46753 18.1431C7.81014 18.285 8.10298 18.5253 8.30901 18.8337C8.51503 19.142 8.625 19.5045 8.625 19.8754C8.62441 20.3725 8.42667 20.849 8.07517 21.2005C7.72367 21.552 7.2471 21.7498 6.75 21.7504ZM6.75 18.7504C6.5275 18.7504 6.30999 18.8163 6.12498 18.94C5.93998 19.0636 5.79579 19.2393 5.71064 19.4448C5.62549 19.6504 5.60321 19.8766 5.64662 20.0948C5.69003 20.3131 5.79717 20.5135 5.95451 20.6709C6.11184 20.8282 6.3123 20.9353 6.53052 20.9788C6.74875 21.0222 6.97495 20.9999 7.18052 20.9147C7.38609 20.8296 7.56179 20.6854 7.6854 20.5004C7.80902 20.3154 7.875 20.0979 7.875 19.8754C7.875 19.577 7.75647 19.2909 7.5455 19.0799C7.33452 18.8689 7.04837 18.7504 6.75 18.7504Z" fill="white"/>
<path d="M23.625 20.2504H21.375C21.2755 20.2504 21.1802 20.2109 21.1098 20.1405C21.0395 20.0702 21 19.9748 21 19.8754C21 19.2786 20.7629 18.7063 20.341 18.2844C19.919 17.8624 19.3467 17.6254 18.75 17.6254C18.1533 17.6254 17.581 17.8624 17.159 18.2844C16.7371 18.7063 16.5 19.2786 16.5 19.8754C16.5 19.9748 16.4605 20.0702 16.3902 20.1405C16.3198 20.2109 16.2245 20.2504 16.125 20.2504H9.375C9.27554 20.2504 9.18016 20.2109 9.10983 20.1405C9.03951 20.0702 9 19.9748 9 19.8754C9 19.2786 8.76295 18.7063 8.34099 18.2844C7.91903 17.8624 7.34674 17.6254 6.75 17.6254C6.15326 17.6254 5.58097 17.8624 5.15901 18.2844C4.73705 18.7063 4.5 19.2786 4.5 19.8754C4.5 19.9748 4.46049 20.0702 4.39016 20.1405C4.31984 20.2109 4.22446 20.2504 4.125 20.2504H1.875C1.77554 20.2504 1.68016 20.2109 1.60984 20.1405C1.53951 20.0702 1.5 19.9748 1.5 19.8754V16.1254C1.5 16.0259 1.53951 15.9305 1.60984 15.8602C1.68016 15.7899 1.77554 15.7504 1.875 15.7504H13.875V9.00037C13.875 8.90092 13.9145 8.80553 13.9848 8.73521C14.0552 8.66488 14.1505 8.62537 14.25 8.62537H15.75C15.8495 8.62537 15.9448 8.66488 16.0152 8.73521C16.0855 8.80553 16.125 8.90092 16.125 9.00037C16.125 9.09983 16.0855 9.19521 16.0152 9.26554C15.9448 9.33586 15.8495 9.37537 15.75 9.37537H14.625V16.1254C14.625 16.2248 14.5855 16.3202 14.5152 16.3905C14.4448 16.4609 14.3495 16.5004 14.25 16.5004H2.25V19.5004H3.77325C3.86409 18.7749 4.21671 18.1077 4.76484 17.6239C5.31298 17.1401 6.01891 16.8731 6.75 16.8731C7.48109 16.8731 8.18702 17.1401 8.73516 17.6239C9.28329 18.1077 9.63591 18.7749 9.72675 19.5004H15.7733C15.8641 18.7749 16.2167 18.1077 16.7648 17.6239C17.313 17.1401 18.0189 16.8731 18.75 16.8731C19.4811 16.8731 20.187 17.1401 20.7352 17.6239C21.2833 18.1077 21.6359 18.7749 21.7267 19.5004H23.25V15.9821L21.2074 14.9629C21.1251 14.9219 21.0608 14.8521 21.0266 14.7667L18.9641 9.61312C18.937 9.54319 18.8893 9.48308 18.8274 9.44066C18.7655 9.39824 18.6923 9.37549 18.6173 9.37537H17.25C17.1505 9.37537 17.0552 9.33586 16.9848 9.26554C16.9145 9.19521 16.875 9.09983 16.875 9.00037C16.875 8.90092 16.9145 8.80553 16.9848 8.73521C17.0552 8.66488 17.1505 8.62537 17.25 8.62537H18.6173C18.8423 8.62467 19.0623 8.69177 19.2487 8.81792C19.435 8.94407 19.5791 9.12343 19.662 9.33262L21.6701 14.3535L23.7926 15.4147C23.855 15.4459 23.9074 15.4938 23.944 15.5531C23.9806 15.6124 24 15.6807 24 15.7504V19.8754C24 19.9748 23.9605 20.0702 23.8902 20.1405C23.8198 20.2109 23.7245 20.2504 23.625 20.2504Z" fill="white"/>
<path d="M18.75 21.7504C18.3792 21.7504 18.0166 21.6404 17.7083 21.4344C17.4 21.2283 17.1596 20.9355 17.0177 20.5929C16.8758 20.2503 16.8387 19.8733 16.911 19.5096C16.9834 19.1459 17.162 18.8118 17.4242 18.5495C17.6864 18.2873 18.0205 18.1087 18.3842 18.0364C18.7479 17.964 19.1249 18.0012 19.4675 18.1431C19.8101 18.285 20.103 18.5253 20.309 18.8337C20.515 19.142 20.625 19.5045 20.625 19.8754C20.6244 20.3725 20.4267 20.849 20.0752 21.2005C19.7237 21.552 19.2471 21.7498 18.75 21.7504ZM18.75 18.7504C18.5275 18.7504 18.31 18.8163 18.125 18.94C17.94 19.0636 17.7958 19.2393 17.7106 19.4448C17.6255 19.6504 17.6032 19.8766 17.6466 20.0948C17.69 20.3131 17.7972 20.5135 17.9545 20.6709C18.1118 20.8282 18.3123 20.9353 18.5305 20.9788C18.7488 21.0222 18.975 20.9999 19.1805 20.9147C19.3861 20.8296 19.5618 20.6854 19.6854 20.5004C19.809 20.3154 19.875 20.0979 19.875 19.8754C19.875 19.577 19.7565 19.2909 19.5455 19.0799C19.3345 18.8689 19.0484 18.7504 18.75 18.7504Z" fill="white"/>
<path d="M19.5 15.0004H15.75C15.6505 15.0004 15.5552 14.9609 15.4848 14.8905C15.4145 14.8202 15.375 14.7248 15.375 14.6254V10.5004C15.375 10.4009 15.4145 10.3055 15.4848 10.2352C15.5552 10.1649 15.6505 10.1254 15.75 10.1254H18C18.077 10.1253 18.1521 10.149 18.2152 10.1932C18.2782 10.2373 18.3262 10.2998 18.3525 10.3721L19.8525 14.4971C19.8731 14.5538 19.8798 14.6146 19.8719 14.6743C19.864 14.7341 19.8419 14.7911 19.8073 14.8405C19.7727 14.8899 19.7267 14.9302 19.6732 14.958C19.6197 14.9859 19.5603 15.0004 19.5 15.0004ZM16.125 14.2504H18.9645L17.7375 10.8754H16.125V14.2504Z" fill="white"/>
<path d="M14.25 16.5004H1.875C1.77554 16.5004 1.68016 16.4609 1.60984 16.3905C1.53951 16.3202 1.5 16.2248 1.5 16.1254V12.3754C1.5 12.2759 1.53951 12.1805 1.60984 12.1102C1.68016 12.0399 1.77554 12.0004 1.875 12.0004C1.97446 12.0004 2.06984 12.0399 2.14016 12.1102C2.21049 12.1805 2.25 12.2759 2.25 12.3754V15.7504H13.875V7.50037H11.25C11.1505 7.50037 11.0552 7.46086 10.9848 7.39053C10.9145 7.32021 10.875 7.22482 10.875 7.12537C10.875 7.02591 10.9145 6.93053 10.9848 6.8602C11.0552 6.78987 11.1505 6.75037 11.25 6.75037H14.25C14.3495 6.75037 14.4448 6.78987 14.5152 6.8602C14.5855 6.93053 14.625 7.02591 14.625 7.12537V16.1254C14.625 16.2248 14.5855 16.3202 14.5152 16.3905C14.4448 16.4609 14.3495 16.5004 14.25 16.5004Z" fill="white"/>
<path d="M5.25012 14.2504C5.19348 14.2505 5.13757 14.2376 5.08662 14.2129C2.92287 13.1629 1.38462 10.9365 0.515373 7.59487C0.500906 7.54655 0.496338 7.4958 0.501942 7.44566C0.507546 7.39553 0.523208 7.34704 0.547989 7.30311C0.572771 7.25917 0.606163 7.22068 0.646166 7.18995C0.686169 7.15922 0.731962 7.13687 0.780803 7.12425C0.829644 7.11163 0.880529 7.10899 0.930413 7.1165C0.980297 7.124 1.02815 7.1415 1.07112 7.16793C1.11408 7.19436 1.15127 7.22919 1.18046 7.27033C1.20965 7.31148 1.23024 7.35809 1.241 7.40737C2.02887 10.4377 3.37737 12.4717 5.25012 13.4554C8.15037 11.937 9.28025 8.17837 9.71262 5.14425C8.15611 4.60612 6.66041 3.90603 5.25012 3.0555C3.84057 3.90557 2.34577 4.60552 0.790248 5.14387C0.827748 5.412 0.871623 5.67637 0.918123 5.93362C0.927309 5.98225 0.926779 6.03222 0.916563 6.08064C0.906346 6.12907 0.886645 6.17499 0.858596 6.21576C0.830548 6.25654 0.794705 6.29136 0.753136 6.31821C0.711566 6.34507 0.665092 6.36343 0.616392 6.37224C0.567692 6.38105 0.51773 6.38013 0.469387 6.36954C0.421043 6.35895 0.375274 6.33889 0.334719 6.31053C0.294163 6.28217 0.259623 6.24606 0.23309 6.20428C0.206556 6.1625 0.188555 6.11589 0.180123 6.06712C0.112623 5.69625 0.0537479 5.3115 0.00312289 4.92375C-0.00849261 4.83429 0.0125252 4.74365 0.0623228 4.66844C0.11212 4.59322 0.18736 4.53848 0.274248 4.51425C1.83762 4.07812 3.36912 3.25275 5.06262 2.29837C5.11892 2.26701 5.1823 2.25055 5.24675 2.25055C5.31119 2.25055 5.37457 2.26701 5.43087 2.29837C7.12437 3.252 8.65587 4.077 10.2249 4.51425C10.3117 4.53839 10.3869 4.59299 10.4368 4.66805C10.4866 4.74311 10.5078 4.83361 10.4964 4.923C10.0689 8.24662 8.83962 12.5557 5.41137 14.2129C5.36113 14.2373 5.30601 14.2502 5.25012 14.2504Z" fill="white"/>
<path d="M4.8743 9.75037C4.77485 9.75035 4.67948 9.71082 4.60917 9.64049L3.48417 8.51549C3.41586 8.44477 3.37807 8.35004 3.37892 8.25172C3.37977 8.15339 3.41921 8.05934 3.48874 7.98981C3.55827 7.92028 3.65232 7.88084 3.75065 7.87999C3.84897 7.87913 3.9437 7.91693 4.01442 7.98524L4.8743 8.84512L7.23417 6.48524C7.3049 6.41693 7.39962 6.37913 7.49795 6.37999C7.59627 6.38084 7.69033 6.42028 7.75985 6.48981C7.82938 6.55934 7.86882 6.65339 7.86968 6.75172C7.87053 6.85004 7.83273 6.94477 7.76442 7.01549L5.13942 9.64049C5.06911 9.71082 4.97375 9.75035 4.8743 9.75037Z" fill="white"/>
</svg>
