<svg width="24" height="18" viewBox="0 0 24 18" fill="none" xmlns="http://www.w3.org/2000/svg">
<path d="M21.8906 0.5625H2.10938C0.948656 0.5625 0 1.50698 0 2.67188V15.3281C0 16.4934 0.949266 17.4375 2.10938 17.4375H21.8906C23.0513 17.4375 24 16.493 24 15.3281V2.67188C24 1.5067 23.0509 0.5625 21.8906 0.5625ZM21.5667 1.96875C20.8847 2.65298 12.874 10.6898 12.5449 11.02C12.27 11.2957 11.7301 11.2959 11.4551 11.02L2.43328 1.96875H21.5667ZM1.40625 15.0696V2.93039L7.45617 9L1.40625 15.0696ZM2.43328 16.0312L8.44894 9.996L10.4592 12.0128C11.283 12.8393 12.7174 12.8389 13.5409 12.0128L15.5511 9.99605L21.5667 16.0312H2.43328ZM22.5938 15.0696L16.5438 9L22.5938 2.93039V15.0696Z" fill="black"/>
</svg>
