<svg width="32" height="32" viewBox="0 0 32 32" fill="none" xmlns="http://www.w3.org/2000/svg">
<path d="M5.86563 12.8H9.06563C9.48997 12.8 9.89694 12.9686 10.197 13.2686C10.4971 13.5687 10.6656 13.9756 10.6656 14.4V24C10.6656 24.4243 10.4971 24.8313 10.197 25.1314C9.89694 25.4314 9.48997 25.6 9.06563 25.6H5.86563C5.44128 25.6 5.03431 25.4314 4.73425 25.1314C4.4342 24.8313 4.26562 24.4243 4.26562 24V14.4C4.26562 13.9756 4.4342 13.5687 4.73425 13.2686C5.03431 12.9686 5.44128 12.8 5.86563 12.8Z" fill="black"/>
<path d="M24.9944 12.0267C25.9776 12.0269 26.9204 12.4177 27.6155 13.113C28.3106 13.8083 28.7011 14.7512 28.7011 15.7344C28.7011 17.7568 28.3128 19.7611 27.5576 21.6373L26.9187 23.2245C26.5414 24.1622 25.8923 24.9657 25.0548 25.5315C24.2173 26.0974 23.2297 26.3998 22.2189 26.4H17.9981C16.7939 26.3998 15.609 26.0976 14.5517 25.5211L12.4173 24.3584C12.3251 24.3081 12.2437 24.2401 12.1777 24.1584C12.1117 24.0766 12.0625 23.9827 12.0328 23.8819C12.0032 23.7811 11.9936 23.6755 12.0048 23.571C12.016 23.4665 12.0476 23.3653 12.0979 23.2731C12.1482 23.1808 12.2161 23.0994 12.2979 23.0334C12.3796 22.9674 12.4736 22.9182 12.5744 22.8885C12.6752 22.8589 12.7808 22.8494 12.8853 22.8605C12.9897 22.8717 13.091 22.9033 13.1832 22.9536L15.3165 24.1163C16.1391 24.5649 17.0611 24.8 17.9981 24.8H22.2189C22.9106 24.8 23.5864 24.593 24.1595 24.2058C24.7326 23.8186 25.1768 23.2689 25.4349 22.6272L26.0739 21.04C26.7523 19.3536 27.1011 17.552 27.1011 15.7344C27.1011 15.1756 26.8792 14.6396 26.4841 14.2444C26.0891 13.8491 25.5532 13.6269 24.9944 13.6267H20.9955C20.2595 13.6267 19.6621 13.0293 19.6621 12.2933V8.14613C19.6621 7.61706 19.4968 7.10079 19.1885 6.66986C19.0699 6.50387 18.9133 6.3686 18.7319 6.27529C18.5505 6.18197 18.3494 6.1333 18.1453 6.13333H17.4339C17.3632 6.13333 17.2953 6.16142 17.2453 6.21143C17.1953 6.26144 17.1672 6.32927 17.1672 6.39999V9.33653C17.1671 10.1635 16.9646 10.9779 16.5773 11.7087C16.19 12.4394 15.6297 13.0642 14.9453 13.5285L13.2493 14.6805C13.0737 14.7996 12.8579 14.8441 12.6494 14.8041C12.441 14.764 12.257 14.6429 12.1379 14.4672C12.0188 14.2915 11.9743 14.0757 12.0143 13.8673C12.0544 13.6588 12.1755 13.4748 12.3512 13.3557L14.0472 12.2048C14.5154 11.8871 14.8987 11.4595 15.1637 10.9596C15.4286 10.4596 15.5672 9.90236 15.5672 9.33653V6.39999C15.5672 5.36959 16.4024 4.53333 17.4339 4.53333H18.1453C19.0755 4.53333 19.948 4.98239 20.4899 5.73866C20.9921 6.44095 21.2621 7.28273 21.2621 8.14613V12.0267H24.9944Z" fill="black"/>
</svg>
