<svg width="22" height="22" viewBox="0 0 22 22" fill="none" xmlns="http://www.w3.org/2000/svg">
<path d="M21.3495 11.2376C21.3495 10.5424 21.2859 9.88239 21.1768 9.23999H10.9045V13.2088H16.7861C16.5225 14.5112 15.7498 15.6112 14.6044 16.3592V18.9992H18.1133C20.1677 17.16 21.3495 14.4496 21.3495 11.2376Z" fill="#1367F1"/>
<path d="M10.9056 21.56C13.8509 21.56 16.3144 20.6096 18.1144 18.9992L14.6054 16.3592C13.6236 16.9928 12.3783 17.38 10.9056 17.38C8.06027 17.38 5.65129 15.5232 4.78769 13.0152H1.16968V15.7344C2.9605 19.184 6.64215 21.56 10.9056 21.56Z" fill="#298341"/>
<path d="M4.78666 13.0152C4.5594 12.3816 4.44122 11.704 4.44122 11C4.44122 10.296 4.56849 9.61839 4.78666 8.98479V6.26559H1.16864C0.423224 7.69119 -0.00402832 9.29279 -0.00402832 11C-0.00402832 12.7072 0.423224 14.3088 1.16864 15.7344L4.78666 13.0152Z" fill="#946F02"/>
<path d="M10.9056 4.62C12.5146 4.62 13.9509 5.15681 15.0872 6.20401L18.1962 3.1944C16.3144 1.4872 13.8509 0.440002 10.9056 0.440002C6.64215 0.440002 2.9605 2.816 1.16968 6.26561L4.78769 8.98481C5.65129 6.47681 8.06027 4.62 10.9056 4.62Z" fill="#E72C1C"/>
</svg>
