<svg width="30" height="14" viewBox="0 0 30 14" fill="none" xmlns="http://www.w3.org/2000/svg">
<path d="M5.66913 2.27806C6.02233 1.83626 6.26198 1.24312 6.19882 0.636963C5.68178 0.662686 5.05085 0.978095 4.68557 1.42018C4.35757 1.79882 4.06729 2.41681 4.14299 2.99753C4.72331 3.04786 5.30321 2.70743 5.66913 2.27806Z" fill="black"/>
<path d="M6.19297 3.11091C5.3501 3.06069 4.63344 3.58927 4.2309 3.58927C3.82819 3.58927 3.21178 3.13622 2.5451 3.14841C1.67739 3.16118 0.87225 3.65179 0.431918 4.43208C-0.473766 5.99308 0.192914 8.30858 1.07364 9.57989C1.50131 10.2088 2.01682 10.9014 2.69598 10.8765C3.3377 10.8513 3.58924 10.461 4.36924 10.461C5.14871 10.461 5.3753 10.8765 6.05457 10.8639C6.75905 10.8513 7.19944 10.2346 7.62711 9.60503C8.11778 8.88802 8.31864 8.19573 8.33123 8.1577C8.31858 8.14511 6.97286 7.62884 6.96037 6.08085C6.94766 4.7847 8.01694 4.16811 8.06727 4.12991C7.46352 3.23694 6.52004 3.13622 6.19297 3.11091Z" fill="black"/>
<path d="M13.532 1.35693C15.3639 1.35693 16.6396 2.61975 16.6396 4.4583C16.6396 6.30342 15.3376 7.57279 13.486 7.57279H11.4577V10.7984H9.99219V1.35693H13.532ZM11.4576 6.34268H13.1391C14.4151 6.34268 15.1412 5.65572 15.1412 4.46486C15.1412 3.27412 14.4151 2.59361 13.1457 2.59361H11.4576V6.34268Z" fill="black"/>
<path d="M17.0234 8.84221C17.0234 7.63822 17.946 6.89889 19.5819 6.8073L21.4661 6.69609V6.16617C21.4661 5.40064 20.9492 4.94262 20.0857 4.94262C19.2676 4.94262 18.7573 5.33514 18.6331 5.95025H17.2984C17.3769 4.70701 18.4367 3.79102 20.138 3.79102C21.8064 3.79102 22.8729 4.67432 22.8729 6.05484V10.7985H21.5184V9.66656H21.4858C21.0867 10.4321 20.2164 10.9163 19.3136 10.9163C17.9657 10.9163 17.0234 10.0787 17.0234 8.84221ZM21.4661 8.22064V7.6776L19.7714 7.78225C18.9274 7.84119 18.4498 8.21414 18.4498 8.80301C18.4498 9.40488 18.947 9.79752 19.706 9.79752C20.694 9.7974 21.4661 9.11695 21.4661 8.22064Z" fill="black"/>
<path d="M24.1512 13.3307V12.1856C24.2557 12.2117 24.4912 12.2117 24.6091 12.2117C25.2633 12.2117 25.6167 11.937 25.8325 11.2304C25.8325 11.2172 25.957 10.8116 25.957 10.805L23.4707 3.91528H25.0016L26.7422 9.51608H26.7682L28.5089 3.91528H30.0005L27.4224 11.1583C26.8337 12.8269 26.1532 13.3633 24.7269 13.3633C24.6091 13.3633 24.2557 13.3502 24.1512 13.3307Z" fill="black"/>
</svg>
