<svg width="32" height="32" viewBox="0 0 32 32" fill="none" xmlns="http://www.w3.org/2000/svg">
<path fill-rule="evenodd" clip-rule="evenodd" d="M11.7328 6.39999C14.3397 6.39999 14.6661 6.41066 15.6901 6.45759C16.7131 6.50453 17.4107 6.66666 18.0208 6.90453C18.6523 7.14986 19.1877 7.47733 19.7211 8.01173C20.2544 8.54506 20.584 9.08053 20.8293 9.71199C21.0661 10.3221 21.2283 11.0197 21.2752 12.0416C21.3221 13.0656 21.3328 13.3931 21.3328 16C21.3328 18.6069 21.3221 18.9333 21.2752 19.9573C21.2283 20.9803 21.0661 21.6779 20.8293 22.288C20.588 22.9286 20.2098 23.5089 19.7211 23.9883C19.1877 24.5216 18.6523 24.8512 18.0208 25.0965C17.4107 25.3333 16.7131 25.4955 15.6912 25.5424C14.6672 25.5893 14.3397 25.6 11.7328 25.6C9.12588 25.6 8.79948 25.5893 7.77548 25.5424C6.75255 25.4955 6.05495 25.3333 5.44481 25.0965C4.8042 24.8552 4.22395 24.477 3.74455 23.9883C3.21121 23.4549 2.88161 22.9195 2.63735 22.288C2.39948 21.6779 2.23735 20.9803 2.19041 19.9584C2.14348 18.9333 2.13281 18.6069 2.13281 16C2.13281 13.3931 2.14348 13.0667 2.19041 12.0427C2.23735 11.0197 2.39948 10.3221 2.63735 9.71199C2.87791 9.07117 3.2554 8.49056 3.74348 8.01066C4.27681 7.47733 4.81228 7.14773 5.44375 6.90346C6.05388 6.66559 6.75148 6.50346 7.77335 6.45653C8.79948 6.41066 9.12588 6.39999 11.7328 6.39999ZM11.7328 8.13013C9.16961 8.13013 8.86561 8.13973 7.85335 8.18559C6.91788 8.22826 6.40908 8.38506 6.07201 8.51626C5.62295 8.69013 5.30401 8.89813 4.96695 9.23413C4.63095 9.57013 4.42295 9.89013 4.24908 10.3381C4.11788 10.6763 3.96108 11.1851 3.91841 12.1205C3.87255 13.1339 3.86295 13.4368 3.86295 16C3.86295 18.5632 3.87255 18.8672 3.91841 19.8795C3.96108 20.8149 4.11788 21.3237 4.24908 21.6608C4.42295 22.1099 4.63095 22.4288 4.96695 22.7659C5.30295 23.1019 5.62295 23.3099 6.07095 23.4837C6.40908 23.6149 6.91788 23.7717 7.85335 23.8144C8.86668 23.8603 9.16961 23.8699 11.7328 23.8699C14.296 23.8699 14.6 23.8603 15.6123 23.8144C16.5477 23.7717 17.0565 23.6149 17.3936 23.4837C17.8427 23.3099 18.1616 23.1019 18.4987 22.7659C18.8347 22.4299 19.0427 22.1099 19.2165 21.6619C19.3477 21.3237 19.5045 20.8149 19.5472 19.8795C19.5931 18.8661 19.6027 18.5632 19.6027 16C19.6027 13.4368 19.5931 13.1328 19.5472 12.1205C19.5045 11.1851 19.3477 10.6763 19.2165 10.3392C19.0629 9.92179 18.8176 9.54416 18.4987 9.23413C18.1889 8.91534 17.8117 8.67004 17.3947 8.51626C17.0565 8.38506 16.5477 8.22826 15.6123 8.18559C14.5989 8.13973 14.296 8.13013 11.7328 8.13013ZM6.80268 16C6.80268 14.6924 7.3221 13.4384 8.24668 12.5139C9.17126 11.5893 10.4253 11.0699 11.7328 11.0699C13.0404 11.0699 14.2944 11.5893 15.2189 12.5139C16.1435 13.4384 16.6629 14.6924 16.6629 16C16.6629 17.3075 16.1435 18.5615 15.2189 19.4861C14.2944 20.4107 13.0404 20.9301 11.7328 20.9301C10.4253 20.9301 9.17126 20.4107 8.24668 19.4861C7.3221 18.5615 6.80268 17.3075 6.80268 16ZM11.7328 19.2C12.5815 19.2 13.3954 18.8629 13.9956 18.2627C14.5957 17.6626 14.9328 16.8487 14.9328 16C14.9328 15.1513 14.5957 14.3374 13.9956 13.7373C13.3954 13.1371 12.5815 12.8 11.7328 12.8C10.8841 12.8 10.0702 13.1371 9.47007 13.7373C8.86995 14.3374 8.53281 15.1513 8.53281 16C8.53281 16.8487 8.86995 17.6626 9.47007 18.2627C10.0702 18.8629 10.8841 19.2 11.7328 19.2ZM16.8571 12.0277C16.5516 12.0277 16.2585 11.9064 16.0425 11.6903C15.8265 11.4743 15.7051 11.1813 15.7051 10.8757C15.7051 10.5702 15.8265 10.2772 16.0425 10.0611C16.2585 9.8451 16.5516 9.72373 16.8571 9.72373C17.1626 9.72373 17.4556 9.8451 17.6717 10.0611C17.8877 10.2772 18.0091 10.5702 18.0091 10.8757C18.0091 11.1813 17.8877 11.4743 17.6717 11.6903C17.4556 11.9064 17.1626 12.0277 16.8571 12.0277Z" fill="black"/>
<path d="M27.7315 15.4667H29.5982C29.8104 15.4667 30.0138 15.5509 30.1639 15.701C30.3139 15.851 30.3982 16.0545 30.3982 16.2667C30.3982 16.4788 30.3139 16.6823 30.1639 16.8323C30.0138 16.9824 29.8104 17.0667 29.5982 17.0667H27.7315V18.9333C27.7315 19.1455 27.6472 19.349 27.4972 19.499C27.3472 19.649 27.1437 19.7333 26.9315 19.7333C26.7193 19.7333 26.5159 19.649 26.3658 19.499C26.2158 19.349 26.1315 19.1455 26.1315 18.9333V17.0667H24.2648C24.0527 17.0667 23.8492 16.9824 23.6992 16.8323C23.5491 16.6823 23.4648 16.4788 23.4648 16.2667C23.4648 16.0545 23.5491 15.851 23.6992 15.701C23.8492 15.5509 24.0527 15.4667 24.2648 15.4667H26.1315V13.6C26.1315 13.3878 26.2158 13.1843 26.3658 13.0343C26.5159 12.8843 26.7193 12.8 26.9315 12.8C27.1437 12.8 27.3472 12.8843 27.4972 13.0343C27.6472 13.1843 27.7315 13.3878 27.7315 13.6V15.4667Z" fill="black"/>
</svg>
