<svg width="24" height="24" viewBox="0 0 24 24" fill="none" xmlns="http://www.w3.org/2000/svg">
<path d="M12.5156 4.10156C12.2568 4.10156 12.0469 4.31142 12.0469 4.57031C12.0469 4.8292 12.2568 5.03906 12.5156 5.03906H14.0567C14.0599 6.15502 14.4221 7.19738 15.039 8.0482C14.3998 8.67117 13.5626 9.09642 12.6214 9.21459C12.3645 9.24684 12.1824 9.48122 12.2146 9.73805C12.2444 9.97509 12.4463 10.1484 12.6791 10.1484C12.6986 10.1484 12.7183 10.1472 12.7381 10.1447C13.8703 10.0026 14.88 9.49748 15.6563 8.75559C16.4325 9.49748 17.4423 10.0026 18.5745 10.1447C18.5943 10.1472 18.614 10.1484 18.6335 10.1484C18.8663 10.1484 19.0682 9.97505 19.098 9.73805C19.1302 9.48117 18.9481 9.2468 18.6912 9.21459C17.75 9.09642 16.9127 8.67122 16.2736 8.0482C16.8905 7.19733 17.2527 6.15502 17.2559 5.03906H18.7969C19.0557 5.03906 19.2656 4.8292 19.2656 4.57031C19.2656 4.31142 19.0557 4.10156 18.7969 4.10156H16.125V2.88281C16.125 2.62392 15.9151 2.41406 15.6562 2.41406C15.3974 2.41406 15.1875 2.62392 15.1875 2.88281V4.10156H12.5156ZM15.6562 7.2892C15.239 6.63502 14.9972 5.86177 14.9944 5.03906H16.3181C16.3153 5.86177 16.0735 6.63502 15.6562 7.2892Z" fill="white"/>
<path d="M21.5138 0H17.7656C17.5068 0 17.2969 0.209859 17.2969 0.46875C17.2969 0.727641 17.5068 0.9375 17.7656 0.9375H21.5138C22.3678 0.9375 23.0625 1.63223 23.0625 2.4862V10.0763C23.0625 10.9303 22.3678 11.625 21.5138 11.625C21.255 11.625 21.045 11.8349 21.045 12.0938V14.0772L18.3044 11.7373C18.2195 11.6648 18.1116 11.625 18 11.625H9.79866C8.94469 11.625 8.25 10.9303 8.25 10.0763V2.4862C8.25 1.63223 8.94469 0.9375 9.79866 0.9375H13.5469C13.8057 0.9375 14.0156 0.727641 14.0156 0.46875C14.0156 0.209859 13.8057 0 13.5469 0H9.79866C8.4278 0 7.3125 1.1153 7.3125 2.4862V8.4375H2.48616C1.1153 8.4375 0 9.5528 0 10.9237V18.5138C0 19.7245 0.869906 20.7358 2.01741 20.9557V23.5312C2.01741 23.7142 2.12381 23.8803 2.28989 23.9569C2.35266 23.9858 2.41959 24 2.48611 24C2.59566 24 2.70398 23.9617 2.79056 23.8877L6.17288 21H14.2013C15.5722 21 16.6875 19.8847 16.6875 18.5138V12.5625H17.8271L21.2094 15.4502C21.296 15.5242 21.4043 15.5625 21.5139 15.5625C21.5804 15.5625 21.6473 15.5483 21.7101 15.5194C21.8762 15.4428 21.9826 15.2767 21.9826 15.0938L21.9826 12.5182C23.1301 12.2983 24 11.287 24 10.0763V2.4862C24 1.1153 22.8847 0 21.5138 0ZM8.35139 13.1018L9.28008 15.5626H7.41422L8.35139 13.1018ZM15.75 18.5138C15.75 19.3678 15.0553 20.0625 14.2013 20.0625H6C5.88839 20.0625 5.78048 20.1023 5.69564 20.1748L2.95491 22.5147V20.5312C2.95491 20.2724 2.745 20.0625 2.48616 20.0625C1.63219 20.0625 0.9375 19.3678 0.9375 18.5138V10.9237C0.9375 10.0697 1.63219 9.375 2.48616 9.375H7.3125V10.0763C7.3125 10.702 7.54533 11.274 7.9282 11.7114C7.87744 11.7642 7.83591 11.8269 7.80694 11.8977C7.80548 11.9013 7.80403 11.9048 7.80272 11.9085L5.79628 17.1766C5.70412 17.4186 5.82553 17.6894 6.06745 17.7815C6.30937 17.8736 6.58017 17.7522 6.67233 17.5103L7.05708 16.5001H9.6338L10.0145 17.5089C10.0853 17.6967 10.2637 17.8123 10.4531 17.8123C10.5081 17.8123 10.564 17.8026 10.6185 17.782C10.8608 17.6906 10.983 17.4201 10.8915 17.1779L9.1132 12.4657C9.33108 12.5282 9.56081 12.5625 9.79852 12.5625H15.75V18.5138Z" fill="white"/>
<path d="M15.6562 0.9375C15.7795 0.9375 15.9005 0.887344 15.9876 0.800156C16.0748 0.712969 16.125 0.592031 16.125 0.46875C16.125 0.345469 16.0748 0.224531 15.9876 0.137344C15.9005 0.0501563 15.7795 0 15.6562 0C15.533 0 15.412 0.0501563 15.3248 0.137344C15.2376 0.224531 15.1875 0.345469 15.1875 0.46875C15.1875 0.592031 15.2376 0.712969 15.3248 0.800156C15.4121 0.887344 15.533 0.9375 15.6562 0.9375Z" fill="white"/>
</svg>
