<svg width="19" height="18" viewBox="0 0 19 18" fill="none" xmlns="http://www.w3.org/2000/svg">
<path d="M1.32528 15.0006V3.00059C1.32528 2.09732 2.05837 1.36422 2.96165 1.36422H10.0526V0.273315H2.41619C1.21074 0.273315 0.234375 1.24968 0.234375 2.45513V15.546C0.234375 16.7515 1.21074 17.7279 2.41619 17.7279H10.0526V16.637H2.96165C2.05728 16.637 1.32528 15.9039 1.32528 15.0006ZM18.6587 8.61441L14.8013 4.75695C14.5886 4.54422 14.2427 4.54422 14.03 4.75695C13.8173 4.96968 13.8173 5.3155 14.03 5.52822L16.9558 8.45404H6.23437C5.93328 8.45404 5.68892 8.69841 5.68892 8.9995C5.68892 9.30059 5.93328 9.54495 6.23437 9.54495H16.9558L14.03 12.4708C13.8173 12.6835 13.8173 13.0293 14.03 13.242C14.2427 13.4548 14.5886 13.4548 14.8013 13.242L18.6587 9.38459C18.8715 9.17295 18.8715 8.82822 18.6587 8.61441Z" fill="white"/>
</svg>
