<svg width="24" height="24" viewBox="0 0 24 24" fill="none" xmlns="http://www.w3.org/2000/svg">
<g clip-path="url(#clip0_352_3861)">
<path d="M4.46961 16.3835L5.28721 20.4707C5.39695 21.0143 5.69117 21.5033 6.12007 21.855C6.54897 22.2066 7.08619 22.3992 7.64081 22.4003H8.62561C8.80301 22.4 8.97816 22.3605 9.13843 22.2844C9.29871 22.2084 9.44014 22.0978 9.55253 21.9605C9.66492 21.8233 9.74549 21.6628 9.78842 21.4907C9.83135 21.3185 9.83558 21.139 9.80081 20.9651L9.28881 18.4003H10.0008C10.3003 18.3993 10.5886 18.2862 10.8088 18.0832C11.0291 17.8801 11.1652 17.6019 11.1904 17.3035L16.0236 20.6263C16.0813 20.9181 16.2453 21.178 16.4838 21.3558C16.7223 21.5335 17.0183 21.6163 17.3144 21.5882C17.6105 21.56 17.8856 21.4229 18.0863 21.2034C18.2871 20.9839 18.3991 20.6977 18.4008 20.4003V14.1223C18.8787 13.8967 19.2827 13.54 19.5656 13.0937C19.8485 12.6473 19.9988 12.1297 19.9988 11.6013C19.9988 11.0728 19.8485 10.5552 19.5656 10.1089C19.2827 9.66253 18.8787 9.3058 18.4008 9.08027V2.80027C18.3991 2.50283 18.2871 2.21661 18.0863 1.99712C17.8856 1.77764 17.6105 1.64052 17.3144 1.61237C17.0183 1.58422 16.7223 1.66704 16.4838 1.84477C16.2453 2.0225 16.0813 2.28247 16.0236 2.57427L9.87641 6.80027H4.80081C3.55658 6.79933 2.36066 7.28186 1.46546 8.146C0.57027 9.01014 0.0458408 10.1883 0.00286528 11.4318C-0.0401103 12.6753 0.40173 13.8868 1.23513 14.8107C2.06853 15.7346 3.22828 16.2985 4.46961 16.3835ZM18.4008 10.0003C18.6492 10.1866 18.8508 10.4281 18.9897 10.7058C19.1285 10.9836 19.2008 11.2898 19.2008 11.6003C19.2008 11.9108 19.1285 12.217 18.9897 12.4947C18.8508 12.7724 18.6492 13.014 18.4008 13.2003V10.0003ZM16.8008 2.80027C16.8008 2.69418 16.843 2.59244 16.918 2.51743C16.993 2.44241 17.0947 2.40027 17.2008 2.40027C17.3069 2.40027 17.4086 2.44241 17.4837 2.51743C17.5587 2.59244 17.6008 2.69418 17.6008 2.80027V20.4003C17.6008 20.5064 17.5587 20.6081 17.4837 20.6831C17.4086 20.7581 17.3069 20.8003 17.2008 20.8003C17.0947 20.8003 16.993 20.7581 16.918 20.6831C16.843 20.6081 16.8008 20.5064 16.8008 20.4003V2.80027ZM8.93441 21.4539C8.8969 21.4996 8.84972 21.5365 8.79625 21.5618C8.74278 21.5871 8.68437 21.6002 8.62521 21.6003H7.64081C7.2711 21.5996 6.913 21.4711 6.62712 21.2367C6.34124 21.0023 6.14514 20.6763 6.07201 20.3139L5.28881 16.4003H8.07321L9.01721 21.1223C9.02876 21.1802 9.02732 21.24 9.01301 21.2974C8.99869 21.3547 8.97185 21.4081 8.93441 21.4539ZM12.4008 6.03547L16.0008 3.56027V19.6403L12.4008 17.1655V6.03547ZM10.4008 7.41067L11.6008 6.58547V16.6151L10.4008 15.7899V7.41067ZM10.4008 16.7603V17.2003C10.4008 17.3064 10.3587 17.4081 10.2837 17.4831C10.2086 17.5581 10.1069 17.6003 10.0008 17.6003H9.12881L8.88881 16.4003H9.87641L10.4008 16.7603ZM4.80081 7.60027H9.60081V15.6003H4.80081C3.73994 15.6003 2.72253 15.1788 1.97238 14.4287C1.22223 13.6785 0.800807 12.6611 0.800807 11.6003C0.800807 10.5394 1.22223 9.52199 1.97238 8.77184C2.72253 8.0217 3.73994 7.60027 4.80081 7.60027Z" fill="white"/>
<path d="M2.4 12.0003H3.6C3.70609 12.0003 3.80783 11.9581 3.88284 11.8831C3.95786 11.8081 4 11.7064 4 11.6003C4 11.4942 3.95786 11.3924 3.88284 11.3174C3.80783 11.2424 3.70609 11.2003 3.6 11.2003H2.4C2.29391 11.2003 2.19217 11.2424 2.11716 11.3174C2.04214 11.3924 2 11.4942 2 11.6003C2 11.7064 2.04214 11.8081 2.11716 11.8831C2.19217 11.9581 2.29391 12.0003 2.4 12.0003Z" fill="white"/>
<path d="M2.4 10.4003H3.6C3.70609 10.4003 3.80783 10.3581 3.88284 10.2831C3.95786 10.2081 4 10.1064 4 10.0003C4 9.89418 3.95786 9.79244 3.88284 9.71742C3.80783 9.64241 3.70609 9.60027 3.6 9.60027H2.4C2.29391 9.60027 2.19217 9.64241 2.11716 9.71742C2.04214 9.79244 2 9.89418 2 10.0003C2 10.1064 2.04214 10.2081 2.11716 10.2831C2.19217 10.3581 2.29391 10.4003 2.4 10.4003Z" fill="white"/>
<path d="M2.4 13.6003H3.6C3.70609 13.6003 3.80783 13.5581 3.88284 13.4831C3.95786 13.4081 4 13.3063 4 13.2003C4 13.0942 3.95786 12.9924 3.88284 12.9174C3.80783 12.8424 3.70609 12.8003 3.6 12.8003H2.4C2.29391 12.8003 2.19217 12.8424 2.11716 12.9174C2.04214 12.9924 2 13.0942 2 13.2003C2 13.3063 2.04214 13.4081 2.11716 13.4831C2.19217 13.5581 2.29391 13.6003 2.4 13.6003Z" fill="white"/>
<path d="M19.5997 8.80027C19.6786 8.80021 19.7557 8.77683 19.8213 8.73307L22.2213 7.13307C22.265 7.10392 22.3025 7.06644 22.3318 7.02278C22.361 6.97912 22.3813 6.93014 22.3916 6.87862C22.4019 6.8271 22.4019 6.77406 22.3917 6.72253C22.3815 6.67099 22.3613 6.62198 22.3321 6.57827C22.303 6.53457 22.2655 6.49703 22.2218 6.46781C22.1782 6.43859 22.1292 6.41826 22.0777 6.40797C22.0261 6.39768 21.9731 6.39764 21.9216 6.40785C21.87 6.41806 21.821 6.43832 21.7773 6.46747L19.3773 8.06747C19.3058 8.11512 19.2516 8.18451 19.2227 8.26536C19.1937 8.34622 19.1915 8.43425 19.2165 8.51644C19.2414 8.59863 19.2921 8.6706 19.3612 8.72172C19.4302 8.77284 19.5138 8.80038 19.5997 8.80027Z" fill="white"/>
<path d="M20.4231 10.1267C20.4566 10.2273 20.5287 10.3104 20.6235 10.3579C20.7183 10.4054 20.8281 10.4133 20.9287 10.3799L23.3287 9.57986C23.4295 9.54634 23.5129 9.47415 23.5604 9.37919C23.608 9.28422 23.6159 9.17425 23.5823 9.07346C23.5488 8.97268 23.4766 8.88934 23.3817 8.84179C23.2867 8.79423 23.1767 8.78634 23.0759 8.81986L20.6759 9.61986C20.626 9.63649 20.5799 9.6628 20.5402 9.69728C20.5004 9.73176 20.4679 9.77374 20.4444 9.82082C20.4209 9.8679 20.407 9.91914 20.4033 9.97162C20.3997 10.0241 20.4064 10.0768 20.4231 10.1267Z" fill="white"/>
<path d="M19.2665 14.5783C19.2373 14.622 19.2171 14.671 19.2068 14.7225C19.1966 14.7741 19.1967 14.8271 19.207 14.8786C19.2173 14.9301 19.2376 14.9791 19.2668 15.0228C19.296 15.0665 19.3336 15.1039 19.3773 15.1331L21.7773 16.7331C21.821 16.7622 21.87 16.7825 21.9215 16.7927C21.9731 16.8029 22.0261 16.8029 22.0776 16.7926C22.1292 16.7823 22.1781 16.762 22.2218 16.7327C22.2655 16.7035 22.3029 16.666 22.3321 16.6223C22.3612 16.5786 22.3815 16.5296 22.3917 16.478C22.4019 16.4265 22.4019 16.3734 22.3916 16.3219C22.3813 16.2704 22.361 16.2214 22.3317 16.1778C22.3025 16.1341 22.265 16.0966 22.2213 16.0675L19.8213 14.4675C19.7776 14.4383 19.7286 14.4181 19.677 14.4078C19.6255 14.3976 19.5725 14.3977 19.5209 14.408C19.4694 14.4182 19.4204 14.4386 19.3768 14.4678C19.3331 14.497 19.2956 14.5346 19.2665 14.5783Z" fill="white"/>
<path d="M23.1989 14.4003C23.2939 14.4003 23.3859 14.3666 23.4583 14.305C23.5307 14.2434 23.5788 14.1581 23.594 14.0643C23.6093 13.9705 23.5906 13.8743 23.5413 13.793C23.4921 13.7117 23.4155 13.6506 23.3253 13.6207L20.9253 12.8207C20.8245 12.7871 20.7146 12.795 20.6196 12.8426C20.5246 12.8902 20.4524 12.9735 20.4189 13.0743C20.3854 13.1751 20.3933 13.285 20.4408 13.38C20.4884 13.475 20.5717 13.5471 20.6725 13.5807L23.0725 14.3807C23.1133 14.3939 23.156 14.4006 23.1989 14.4003Z" fill="white"/>
<path d="M20.8008 11.6003C20.8008 11.7064 20.8429 11.8081 20.9179 11.8831C20.993 11.9581 21.0947 12.0003 21.2008 12.0003H23.6008C23.7069 12.0003 23.8086 11.9581 23.8836 11.8831C23.9586 11.8081 24.0008 11.7064 24.0008 11.6003C24.0008 11.4942 23.9586 11.3924 23.8836 11.3174C23.8086 11.2424 23.7069 11.2003 23.6008 11.2003H21.2008C21.0947 11.2003 20.993 11.2424 20.9179 11.3174C20.8429 11.3924 20.8008 11.4942 20.8008 11.6003Z" fill="white"/>
</g>
<defs>
<clipPath id="clip0_352_3861">
<rect width="24" height="24" fill="white" transform="translate(0 0.000274658)"/>
</clipPath>
</defs>
</svg>
