<svg width="24" height="24" viewBox="0 0 24 24" fill="none" xmlns="http://www.w3.org/2000/svg">
<path d="M21.4286 9.91821e-05H2.57143C1.15127 9.91821e-05 0 1.15137 0 2.57153V16.2858C0 17.706 1.15127 18.8572 2.57143 18.8572H5.6143L5.14803 23.0487C5.09605 23.5192 5.43535 23.9427 5.90589 23.9947C6.14887 24.0215 6.39175 23.9433 6.57346 23.7798L12.0437 18.8572H21.4286C22.8487 18.8572 24 17.706 24 16.2858V2.57153C24 1.15137 22.8487 9.91821e-05 21.4286 9.91821e-05ZM22.2857 16.2858C22.2857 16.7592 21.9019 17.143 21.4285 17.143H11.7146C11.5028 17.143 11.2985 17.2215 11.1411 17.3633L7.10055 21.0001L7.42369 18.0953C7.47622 17.6248 7.13747 17.2008 6.66698 17.1483C6.63534 17.1447 6.60354 17.1429 6.5717 17.143H2.57143C2.09802 17.143 1.71427 16.7592 1.71427 16.2858V2.57153C1.71427 2.09812 2.09802 1.71437 2.57143 1.71437H21.4286C21.902 1.71437 22.2857 2.09812 22.2857 2.57153V16.2858H22.2857Z" fill="black"/>
</svg>
