<svg width="24" height="24" viewBox="0 0 24 24" fill="none" xmlns="http://www.w3.org/2000/svg">
<path d="M18.8983 7.96812C18.637 7.96812 18.3871 8.06544 18.1947 8.24214C18.0023 8.41884 17.8841 8.65952 17.8618 8.91983L17.5589 12.4675C17.5127 12.4614 17.4658 12.4583 17.4185 12.4583C17.137 12.4583 16.8724 12.5679 16.6733 12.7669L15.7563 13.684C15.5421 13.8982 15.2573 14.0161 14.9544 14.0161H14.947C14.6975 14.0161 14.4542 14.0645 14.2237 14.16C13.9932 14.2555 13.7869 14.3933 13.6105 14.5697L12.1914 15.9889C12.1196 16.0606 12.0559 16.1386 12.0005 16.2221C11.9451 16.1386 11.8814 16.0606 11.8096 15.9889L10.3904 14.5697C10.214 14.3933 10.0078 14.2555 9.77728 14.16C9.54681 14.0645 9.30347 14.0161 9.05401 14.0161H9.04659C8.74369 14.0161 8.45892 13.8982 8.24473 13.684L7.32769 12.7669C7.12864 12.5679 6.86399 12.4583 6.58249 12.4583C6.53515 12.4583 6.48829 12.4614 6.44214 12.4675L6.13917 8.91983C6.11694 8.65952 5.99871 8.41884 5.80628 8.24214C5.61384 8.06544 5.36398 7.96812 5.10272 7.96812C4.52914 7.96812 4.0625 8.43476 4.0625 9.00834V15.1322C4.0625 15.3318 4.10122 15.5265 4.1776 15.7108C4.25397 15.8952 4.36424 16.0602 4.50535 16.2014L7.44288 19.1389C7.53807 19.2341 7.5905 19.3606 7.5905 19.4953V19.8121C7.5905 19.9513 7.70332 20.0641 7.8425 20.0641C7.98168 20.0641 8.0945 19.9513 8.0945 19.8121V19.4953C8.0945 19.226 7.98964 18.9729 7.79926 18.7825L4.86173 15.845C4.67134 15.6546 4.56649 15.4015 4.56649 15.1322V9.00834C4.56649 8.71267 4.80704 8.47212 5.10272 8.47212C5.38342 8.47212 5.61311 8.68303 5.637 8.96272L5.95329 12.6665C5.91262 12.6969 5.87385 12.7304 5.83731 12.7669C5.42641 13.1778 5.42641 13.8464 5.83731 14.2573L8.04231 16.4623C8.14072 16.5607 8.30028 16.5607 8.39869 16.4623C8.4971 16.3639 8.4971 16.2043 8.39869 16.1059L6.19369 13.9009C5.9793 13.6865 5.9793 13.3377 6.19369 13.1233C6.29754 13.0195 6.43562 12.9623 6.58249 12.9623C6.72937 12.9623 6.86745 13.0195 6.9713 13.1233L7.88835 14.0404C8.04123 14.1932 8.22002 14.3127 8.41976 14.3954C8.6195 14.4782 8.83039 14.5201 9.04659 14.5201H9.05401C9.42423 14.5201 9.77228 14.6643 10.0341 14.9261L11.4533 16.3453C11.6436 16.5357 11.7485 16.7888 11.7485 17.058V19.8121C11.7485 19.9513 11.8613 20.0641 12.0005 20.0641C12.1397 20.0641 12.2525 19.9513 12.2525 19.8121V17.058C12.2525 16.7888 12.3574 16.5357 12.5477 16.3453L13.9669 14.9261C14.2287 14.6643 14.5768 14.5201 14.947 14.5201H14.9544C15.1706 14.5201 15.3815 14.4782 15.5812 14.3954C15.781 14.3127 15.9598 14.1932 16.1126 14.0404L17.0297 13.1233C17.1335 13.0195 17.2716 12.9623 17.4185 12.9623C17.5654 12.9623 17.7034 13.0195 17.8073 13.1233C18.0217 13.3377 18.0217 13.6865 17.8073 13.9009L15.6023 16.1059C15.5039 16.2043 15.5039 16.3639 15.6023 16.4623C15.7007 16.5607 15.8603 16.5607 15.9587 16.4623L18.1637 14.2573C18.5746 13.8464 18.5746 13.1778 18.1637 12.7669C18.1271 12.7304 18.0884 12.6969 18.0477 12.6665L18.364 8.96272C18.3879 8.68304 18.6176 8.47212 18.8983 8.47212C19.1939 8.47212 19.4345 8.71267 19.4345 9.00834V15.1322C19.4345 15.4015 19.3296 15.6546 19.1393 15.845L16.2017 18.7825C16.0113 18.9729 15.9065 19.226 15.9065 19.4953V19.8121C15.9065 19.9513 16.0193 20.0641 16.1585 20.0641C16.2977 20.0641 16.4105 19.9513 16.4105 19.8121V19.4953C16.4105 19.3606 16.4629 19.2341 16.5581 19.1389L19.4956 16.2014C19.6368 16.0602 19.747 15.8952 19.8234 15.7108C19.8998 15.5265 19.9385 15.3318 19.9385 15.1322V9.00834C19.9385 8.43476 19.4719 7.96812 18.8983 7.96812Z" fill="white"/>
<path d="M13.1355 10.2361C12.8457 10.2361 12.5641 10.3186 12.3212 10.4747C12.2018 10.5515 12.0943 10.6442 12.0015 10.7498C11.9087 10.6442 11.8012 10.5515 11.6817 10.4747C11.4388 10.3186 11.1572 10.2361 10.8675 10.2361C10.4636 10.2361 10.0839 10.3934 9.79832 10.679C9.51274 10.9646 9.35547 11.3443 9.35547 11.7481C9.35547 12.1429 9.49519 12.5563 9.77074 12.9769C9.98134 13.2983 10.2726 13.6264 10.6364 13.9519C11.2472 14.4984 11.8498 14.8495 11.8752 14.8642C11.9143 14.8868 11.9579 14.8981 12.0015 14.8981C12.0451 14.8981 12.0887 14.8868 12.1277 14.8642C12.1531 14.8495 12.7557 14.4984 13.3665 13.9519C13.7303 13.6264 14.0216 13.2983 14.2322 12.9769C14.5078 12.5563 14.6475 12.1429 14.6475 11.7481C14.6475 11.3443 14.4902 10.9646 14.2046 10.679C13.919 10.3934 13.5393 10.2361 13.1355 10.2361ZM13.0367 13.5707C12.6235 13.9414 12.2046 14.2219 12.0014 14.3505C11.7995 14.2229 11.3849 13.9453 10.9725 13.5763C10.4647 13.122 9.85947 12.4361 9.85947 11.7481C9.85947 11.1923 10.3117 10.7401 10.8675 10.7401C11.2569 10.7401 11.6044 10.959 11.7745 11.3113C11.8166 11.3983 11.9048 11.4537 12.0015 11.4537C12.0982 11.4537 12.1863 11.3983 12.2284 11.3113C12.3985 10.959 12.7461 10.7401 13.1355 10.7401C13.6913 10.7401 14.1435 11.1923 14.1435 11.7481C14.1435 12.4339 13.5416 13.1178 13.0367 13.5707Z" fill="white"/>
<path d="M8.66064 12.0471C8.72164 12.0471 8.78281 12.0251 8.83123 11.9805C8.93364 11.8863 8.94025 11.7268 8.846 11.6244C8.17369 10.894 7.7798 9.96166 7.72228 8.97612H9.23074C9.23996 9.28756 9.2662 9.59605 9.30921 9.89621C9.32722 10.0219 9.435 10.1125 9.55834 10.1125C9.57023 10.1125 9.58229 10.1116 9.59441 10.1099C9.73217 10.0902 9.82786 9.96248 9.80811 9.82471C9.76846 9.54802 9.74401 9.26356 9.73496 8.97612H11.7469V9.73212C11.7469 9.8713 11.8598 9.98412 11.9989 9.98412C12.1381 9.98412 12.2509 9.8713 12.2509 9.73212V8.97612H14.263C14.2552 9.2211 14.2363 9.46414 14.2064 9.70147C14.1889 9.83955 14.2867 9.96561 14.4248 9.98304C14.5629 10.0005 14.689 9.90265 14.7064 9.76457C14.739 9.50651 14.7593 9.24226 14.7672 8.97612H16.2756C16.2183 9.95557 15.8286 10.8834 15.1635 11.6118C15.0696 11.7146 15.0769 11.874 15.1796 11.9678C15.2824 12.0617 15.4418 12.0544 15.5356 11.9516C16.3426 11.0679 16.7869 9.9217 16.7869 8.72413C16.7869 8.07786 16.6603 7.4508 16.4106 6.86034C16.1694 6.29016 15.8242 5.77814 15.3846 5.3385C14.9449 4.89886 14.4329 4.55366 13.8627 4.31249C13.2723 4.06275 12.6452 3.93613 11.9989 3.93613C11.3527 3.93613 10.7256 4.06275 10.1352 4.31249C9.56498 4.55366 9.05295 4.89886 8.61331 5.3385C8.17367 5.77814 7.82847 6.29016 7.58731 6.86034C7.33756 7.4508 7.21094 8.07786 7.21094 8.72413C7.21094 9.92875 7.65991 11.08 8.47516 11.9658C8.52484 12.0197 8.59263 12.0471 8.66064 12.0471ZM9.73489 8.47213C9.76826 7.39791 10.0147 6.39982 10.4373 5.63907C10.8039 4.97918 11.2616 4.5724 11.7469 4.46737V8.47213H9.73489ZM12.2509 4.46737C12.7362 4.57241 13.194 4.97918 13.5606 5.63908C13.9832 6.39982 14.2296 7.39792 14.263 8.47213H12.2509V4.46737ZM16.2755 8.47213H14.7672C14.7331 7.31261 14.4642 6.22774 14.0011 5.39431C13.8603 5.14072 13.7053 4.91735 13.5377 4.72592C15.0674 5.31664 16.1758 6.76118 16.2755 8.47213ZM10.4602 4.72592C10.2926 4.91735 10.1376 5.14073 9.99674 5.39431C9.53373 6.22774 9.26478 7.31261 9.23068 8.47213H7.72235C7.82208 6.76118 8.93049 5.31664 10.4602 4.72592Z" fill="white"/>
</svg>
