<svg width="20" height="23" viewBox="0 0 20 23" fill="none" xmlns="http://www.w3.org/2000/svg">
<path d="M18.1667 19.5H1.8332C1.44841 19.5 1.07337 19.3789 0.761228 19.1539C0.449082 18.9289 0.215652 18.6114 0.0940105 18.2463C-0.0276312 17.8813 -0.0313169 17.4872 0.0834753 17.1199C0.198268 16.7526 0.425717 16.4308 0.7336 16.2L1.5571 15.5823C1.86701 15.3508 2.07495 15.0079 2.1371 14.626L3.1703 8.35405C3.42256 6.72319 4.25008 5.23643 5.50322 4.16266C6.75635 3.08888 8.35236 2.49898 10.0026 2.49963C11.6529 2.50029 13.2484 3.09145 14.5007 4.16622C15.753 5.24098 16.5793 6.72839 16.8303 8.35945L17.8628 14.626C17.925 15.0079 18.1329 15.3508 18.4428 15.5823L19.2666 16.2C19.5745 16.4308 19.802 16.7527 19.9168 17.12C20.0316 17.4873 20.0279 17.8815 19.9062 18.2465C19.7845 18.6116 19.551 18.9292 19.2387 19.1541C18.9265 19.3791 18.5515 19.5001 18.1667 19.5ZM10.0007 3.5C8.58699 3.49314 7.21815 3.99597 6.14505 4.91635C5.07195 5.83672 4.36647 7.11299 4.1579 8.51125L3.12395 14.7886C3.02022 15.4249 2.67365 15.9961 2.1572 16.3821L1.33345 17C1.19348 17.1049 1.09007 17.2512 1.03789 17.4182C0.985706 17.5851 0.987393 17.7643 1.04271 17.9302C1.09803 18.0962 1.20417 18.2405 1.34609 18.3428C1.48802 18.4451 1.65852 18.5001 1.83345 18.5H18.167C18.3418 18.5 18.5123 18.445 18.6542 18.3428C18.796 18.2405 18.9021 18.0962 18.9574 17.9303C19.0128 17.7644 19.0145 17.5853 18.9623 17.4184C18.9102 17.2515 18.8069 17.1052 18.667 17.0002L17.843 16.3821C17.3265 15.9961 16.9799 15.4249 16.8762 14.7886L15.8427 8.5166C15.6352 7.11757 14.9303 5.84024 13.8572 4.91883C12.7842 3.99742 11.415 3.49369 10.0007 3.5Z" fill="white"/>
<path d="M11.5 3.68C11.3674 3.68 11.2402 3.62732 11.1464 3.53355C11.0527 3.43979 11 3.31261 11 3.18V2.5C11 2.23478 10.8946 1.98043 10.7071 1.79289C10.5196 1.60536 10.2652 1.5 10 1.5C9.73478 1.5 9.48043 1.60536 9.29289 1.79289C9.10536 1.98043 9 2.23478 9 2.5V3.18C9 3.31261 8.94732 3.43979 8.85355 3.53355C8.75979 3.62732 8.63261 3.68 8.5 3.68C8.36739 3.68 8.24021 3.62732 8.14645 3.53355C8.05268 3.43979 8 3.31261 8 3.18V2.5C8 1.96957 8.21071 1.46086 8.58579 1.08579C8.96086 0.710714 9.46957 0.5 10 0.5C10.5304 0.5 11.0391 0.710714 11.4142 1.08579C11.7893 1.46086 12 1.96957 12 2.5V3.18C12 3.31261 11.9473 3.43979 11.8536 3.53355C11.7598 3.62732 11.6326 3.68 11.5 3.68Z" fill="white"/>
<path d="M10 22.5C9.07206 22.499 8.18242 22.1299 7.52627 21.4737C6.87011 20.8176 6.50103 19.9279 6.5 19C6.5 18.8674 6.55268 18.7402 6.64645 18.6464C6.74021 18.5527 6.86739 18.5 7 18.5C7.13261 18.5 7.25979 18.5527 7.35355 18.6464C7.44732 18.7402 7.5 18.8674 7.5 19C7.5 19.663 7.76339 20.2989 8.23223 20.7678C8.70107 21.2366 9.33696 21.5 10 21.5C10.663 21.5 11.2989 21.2366 11.7678 20.7678C12.2366 20.2989 12.5 19.663 12.5 19C12.5 18.8674 12.5527 18.7402 12.6464 18.6464C12.7402 18.5527 12.8674 18.5 13 18.5C13.1326 18.5 13.2598 18.5527 13.3536 18.6464C13.4473 18.7402 13.5 18.8674 13.5 19C13.499 19.9279 13.1299 20.8176 12.4737 21.4737C11.8176 22.1299 10.9279 22.499 10 22.5Z" fill="white"/>
</svg>
