<svg width="24" height="24" viewBox="0 0 24 24" fill="none" xmlns="http://www.w3.org/2000/svg">
<path d="M12.2365 22.5844C11.8919 22.4016 11.5474 22.2211 11.2029 22.0383C10.3732 21.6 9.54115 21.1617 8.71146 20.7234C7.71068 20.1937 6.7099 19.6664 5.70677 19.1367C4.83958 18.6773 3.97005 18.2203 3.10286 17.7609C2.68333 17.5406 2.27083 17.2992 1.84427 17.0953C1.83724 17.093 1.83255 17.0883 1.82786 17.0859C1.90521 17.2219 1.98255 17.3555 2.0599 17.4914C2.0599 17.1258 2.0599 16.7602 2.0599 16.3945C2.0599 15.5203 2.0599 14.6484 2.0599 13.7742C2.0599 12.7148 2.0599 11.6555 2.0599 10.5937C2.0599 9.68203 2.0599 8.76797 2.0599 7.85625C2.0599 7.41328 2.0763 6.96797 2.0599 6.525C2.0599 6.51797 2.0599 6.51328 2.0599 6.50625C1.82552 6.64218 1.5888 6.77578 1.35443 6.91172C1.69896 7.09453 2.04349 7.275 2.38802 7.45781C3.21771 7.89609 4.04974 8.33437 4.87943 8.775C5.88021 9.30468 6.88099 9.83437 7.88411 10.3617C8.7513 10.8211 9.62083 11.2805 10.488 11.7375C10.9076 11.9578 11.3201 12.1992 11.7466 12.4031C11.7536 12.4055 11.7583 12.4102 11.763 12.4125C11.6857 12.2766 11.6083 12.143 11.531 12.007V13.1016V15.7195V18.8977V21.6328C11.531 22.0758 11.5193 22.5211 11.531 22.9641V22.9828C11.531 23.2289 11.7466 23.4633 11.9997 23.4516C12.2529 23.4398 12.4685 23.2453 12.4685 22.9828C12.4685 22.6172 12.4685 22.2516 12.4685 21.8883C12.4685 21.0164 12.4685 20.1422 12.4685 19.2703C12.4685 18.2109 12.4685 17.1516 12.4685 16.0922C12.4685 15.1805 12.4685 14.2687 12.4685 13.357C12.4685 12.9141 12.4802 12.4687 12.4685 12.0258C12.4685 12.0187 12.4685 12.0141 12.4685 12.007C12.4685 11.8477 12.3794 11.6789 12.2365 11.6016C11.8919 11.4187 11.5474 11.2383 11.2029 11.0555C10.3732 10.6172 9.54115 10.1789 8.71146 9.73828C7.71068 9.20859 6.7099 8.6789 5.70677 8.15156C4.83958 7.69218 3.97005 7.23281 3.10286 6.77578C2.68333 6.55312 2.26615 6.32578 1.84427 6.11015C1.83724 6.10781 1.83255 6.10312 1.82786 6.10078C1.51849 5.93672 1.1224 6.13828 1.1224 6.50625V7.60312V10.2234V13.4039V16.1414C1.1224 16.5844 1.11068 17.0297 1.1224 17.4727V17.4914C1.1224 17.6508 1.21146 17.8195 1.35443 17.8969C1.69896 18.0797 2.04349 18.2602 2.38802 18.443C3.21771 18.8812 4.04974 19.3195 4.87943 19.7578C5.88021 20.2875 6.88099 20.8148 7.88411 21.3445C8.7513 21.8039 9.62083 22.2609 10.488 22.7203C10.9076 22.943 11.3247 23.1703 11.7466 23.3859C11.7536 23.3883 11.7583 23.393 11.763 23.3953C11.9786 23.5102 12.2833 23.4586 12.4052 23.2266C12.5201 23.0086 12.4685 22.7062 12.2365 22.5844Z" fill="white"/>
<path d="M22.1732 17.0883C21.8286 17.2711 21.4841 17.4516 21.1396 17.6344C20.3099 18.0727 19.4779 18.5109 18.6482 18.9492C17.6474 19.4789 16.6466 20.0062 15.6435 20.5359C14.7763 20.9953 13.9068 21.4523 13.0396 21.9117C12.6201 22.132 12.1888 22.3406 11.781 22.5773C11.7763 22.5797 11.7693 22.5844 11.7646 22.5867C11.999 22.7227 12.2357 22.8562 12.4701 22.9922C12.4701 22.6266 12.4701 22.2609 12.4701 21.8977C12.4701 21.0258 12.4701 20.1516 12.4701 19.2797C12.4701 18.2203 12.4701 17.1609 12.4701 16.1016C12.4701 15.1898 12.4701 14.2781 12.4701 13.3664C12.4701 12.9234 12.4888 12.4781 12.4701 12.0352C12.4701 12.0281 12.4701 12.0234 12.4701 12.0164C12.3927 12.1523 12.3154 12.2859 12.238 12.4219C12.5826 12.2391 12.9271 12.0586 13.2716 11.8758C14.1013 11.4375 14.9333 10.9992 15.763 10.5586C16.7638 10.0289 17.7646 9.49921 18.7677 8.97187C19.6349 8.51249 20.5044 8.05312 21.3716 7.59609C21.7911 7.37578 22.2224 7.16718 22.6302 6.93046C22.6349 6.92812 22.6419 6.92343 22.6466 6.92109C22.4122 6.78515 22.1755 6.65156 21.9411 6.51562V7.61249V10.2328V13.4133V16.1508C21.9411 16.5937 21.9294 17.0391 21.9411 17.482V17.5008C21.9411 17.7469 22.1568 17.9812 22.4099 17.9695C22.663 17.9578 22.8786 17.7633 22.8786 17.5008C22.8786 17.1352 22.8786 16.7695 22.8786 16.4039C22.8786 15.5297 22.8786 14.6578 22.8786 13.7836C22.8786 12.7242 22.8786 11.6648 22.8786 10.6031C22.8786 9.6914 22.8786 8.77734 22.8786 7.86562C22.8786 7.42265 22.8904 6.97734 22.8786 6.53437C22.8786 6.52734 22.8786 6.52265 22.8786 6.51562C22.8786 6.14765 22.4826 5.94609 22.1732 6.11015C21.8286 6.29296 21.4841 6.47343 21.1396 6.65624C20.3099 7.09453 19.4779 7.53281 18.6482 7.97343C17.6474 8.50312 16.6466 9.03281 15.6435 9.56015C14.7763 10.0195 13.9068 10.4789 13.0396 10.9359C12.6201 11.1586 12.1911 11.3672 11.781 11.6016C11.7763 11.6039 11.7693 11.6086 11.7646 11.6109C11.6193 11.6883 11.5326 11.857 11.5326 12.0164V13.1109V15.7289V18.907V21.6422C11.5326 22.0852 11.5208 22.5305 11.5326 22.9734V22.9922C11.5326 23.3602 11.9286 23.5617 12.238 23.3977C12.5826 23.2148 12.9271 23.0344 13.2716 22.8516C14.1013 22.4133 14.9333 21.975 15.763 21.5367C16.7638 21.007 17.7646 20.4797 18.7677 19.95C19.6349 19.4906 20.5044 19.0336 21.3716 18.5742C21.7911 18.3539 22.2201 18.143 22.6302 17.9086C22.6349 17.9062 22.6419 17.9016 22.6466 17.8992C22.8646 17.7844 22.949 17.4633 22.8154 17.257C22.6724 17.0367 22.4052 16.9664 22.1732 17.0883Z" fill="white"/>
<path d="M22.173 6.10547C21.8285 6.28828 21.484 6.46875 21.1395 6.65156C20.3098 7.08984 19.4777 7.52812 18.648 7.96875C17.6473 8.49844 16.6465 9.02812 15.6434 9.55547C14.7762 10.0148 13.9066 10.4742 13.0395 10.9312C12.6199 11.1516 12.191 11.3602 11.7809 11.5969C11.7762 11.5992 11.7691 11.6039 11.7645 11.6062H12.2379C11.8934 11.4234 11.5488 11.243 11.2043 11.0602C10.3746 10.6219 9.54258 10.1836 8.71289 9.74297C7.71211 9.21328 6.71133 8.68359 5.7082 8.15625C4.84102 7.69687 3.97148 7.2375 3.1043 6.78047C2.68477 6.56015 2.27227 6.31875 1.8457 6.11484C1.83867 6.1125 1.83398 6.10781 1.8293 6.10547V6.91406C2.17383 6.73125 2.51836 6.55078 2.86289 6.36797C3.69258 5.92969 4.52461 5.4914 5.3543 5.05312C6.35508 4.52344 7.35586 3.99609 8.35898 3.4664C9.22617 3.00703 10.0957 2.55 10.9629 2.09062C11.3824 1.87031 11.8113 1.66172 12.2215 1.425C12.2262 1.42265 12.2332 1.41797 12.2379 1.41562C12.0809 1.41562 11.9215 1.41562 11.7645 1.41562C12.109 1.59844 12.4535 1.7789 12.798 1.96172C13.6277 2.4 14.4598 2.83828 15.2895 3.27656C16.2902 3.80625 17.291 4.33359 18.2941 4.86328C19.1613 5.32265 20.0309 5.77969 20.898 6.23906C21.3176 6.46172 21.7348 6.68906 22.1566 6.90469C22.1637 6.90703 22.1684 6.91172 22.173 6.91406C22.3887 7.0289 22.6934 6.97734 22.8152 6.74531C22.9301 6.52969 22.8785 6.22734 22.6465 6.10312C22.2973 5.91797 21.9504 5.73515 21.6012 5.55C20.7691 5.10937 19.9371 4.67109 19.1027 4.23047C18.0973 3.70078 17.0941 3.16875 16.0887 2.63906C15.2238 2.18203 14.359 1.725 13.4918 1.26797C13.0793 1.05 12.6691 0.82031 12.2496 0.611716C11.9965 0.487498 11.8184 0.574216 11.6098 0.684373C11.3941 0.799216 11.1785 0.911716 10.9652 1.02656C10.1824 1.43906 9.40195 1.8539 8.61914 2.2664C7.61602 2.79609 6.61289 3.32578 5.60977 3.85547C4.70742 4.33125 3.80508 4.80937 2.90273 5.28515C2.4082 5.54531 1.91602 5.80547 1.42148 6.06797C1.39805 6.07969 1.37461 6.0914 1.35352 6.10547C1.04883 6.26719 1.04883 6.75468 1.35352 6.91406C1.70273 7.09922 2.04961 7.28203 2.39883 7.46719C3.23086 7.90781 4.06289 8.34609 4.89727 8.78672C5.90273 9.31875 6.90586 9.84844 7.91133 10.3805C8.77617 10.8375 9.64102 11.2945 10.5082 11.7516C10.9207 11.9695 11.3309 12.2016 11.7504 12.4078C12.0035 12.532 12.1816 12.4453 12.3902 12.3352C12.6059 12.2203 12.8215 12.1078 13.0348 11.993C13.8176 11.5805 14.598 11.1656 15.3809 10.7531C16.384 10.2234 17.3871 9.69375 18.3902 9.16406C19.2926 8.68594 20.1949 8.21015 21.0973 7.73203C21.5918 7.47187 22.084 7.20937 22.5785 6.94922C22.602 6.9375 22.6254 6.92578 22.6465 6.91172C22.8645 6.79687 22.9488 6.47578 22.8152 6.26953C22.6723 6.05156 22.4051 5.98125 22.173 6.10547Z" fill="white"/>
<path d="M7.03049 9.66796C7.37502 9.48515 7.71955 9.30468 8.06408 9.12187C8.89377 8.68359 9.7258 8.24531 10.5555 7.80468C11.5563 7.275 12.5571 6.74531 13.5602 6.21796C14.4274 5.75859 15.2969 5.29921 16.1641 4.84218C16.5836 4.61953 17.0125 4.41093 17.4227 4.17656C17.4274 4.17421 17.4344 4.16953 17.4391 4.16718C17.6571 4.05234 17.7414 3.73124 17.6078 3.52499C17.4649 3.30468 17.1977 3.23437 16.9656 3.35625C16.6211 3.53906 16.2766 3.71953 15.9321 3.90234C15.1024 4.34062 14.2703 4.7789 13.4406 5.21953C12.4399 5.74921 11.4391 6.2789 10.436 6.80624C9.56877 7.26562 8.69924 7.725 7.83205 8.18203C7.41252 8.40468 6.98362 8.61328 6.57346 8.84765C6.56877 8.85 6.56174 8.85468 6.55705 8.85703C6.33908 8.97187 6.25471 9.29296 6.3883 9.49921C6.53127 9.72187 6.79846 9.79218 7.03049 9.66796Z" fill="white"/>
</svg>
