<svg width="24" height="24" viewBox="0 0 24 24" fill="none" xmlns="http://www.w3.org/2000/svg">
<g clip-path="url(#clip0_352_3945)">
<path d="M9.82017 5.00679L9.32817 7.396C9.29845 7.54019 9.35592 7.68846 9.47503 7.77499C9.59414 7.86152 9.75286 7.87038 9.88087 7.79754L12.0011 6.59135L14.1213 7.79754C14.179 7.83035 14.243 7.84657 14.3067 7.84657C14.3844 7.84657 14.4618 7.82247 14.5272 7.77494C14.6463 7.68841 14.7037 7.54014 14.674 7.39596L14.1821 5.00674L15.9844 3.36302C16.0932 3.26379 16.1339 3.11008 16.0884 2.97007C16.0429 2.83005 15.9196 2.7296 15.7733 2.71324L13.349 2.44282L12.3427 0.220801C12.282 0.0866445 12.1484 0.000488281 12.0011 0.000488281C11.8539 0.000488281 11.7202 0.0866445 11.6595 0.220801L10.6532 2.44291L8.2289 2.71333C8.08256 2.72964 7.95933 2.8301 7.91381 2.97016C7.86829 3.11022 7.90898 3.26393 8.01778 3.36311L9.82017 5.00679ZM10.9484 3.1646C11.0798 3.14993 11.1938 3.0671 11.2484 2.94663L12.0011 1.28449L12.7538 2.94658C12.8084 3.06705 12.9224 3.14988 13.0539 3.16455L14.8673 3.36682L13.5191 4.5963C13.4214 4.68541 13.3778 4.81947 13.4045 4.94899L13.7725 6.73614L12.1866 5.83389C12.1291 5.80122 12.0652 5.78486 12.0012 5.78486C11.9372 5.78486 11.8732 5.80122 11.8157 5.83389L10.2298 6.73614L10.5978 4.94904C10.6245 4.81947 10.5809 4.68546 10.4832 4.59635L9.13504 3.36686L10.9484 3.1646ZM2.07389 8.30369C2.04417 8.44793 2.10164 8.59614 2.22075 8.68268C2.33986 8.76921 2.49857 8.77807 2.62659 8.70522L4.24837 7.78258L5.87015 8.70522C5.92786 8.73804 5.99179 8.75425 6.05554 8.75425C6.13322 8.75425 6.21061 8.73016 6.276 8.68263C6.39515 8.5961 6.45257 8.44783 6.42286 8.30364L6.04654 6.47613L7.42514 5.21885C7.53393 5.11961 7.57458 4.96591 7.52911 4.82589C7.48364 4.68588 7.36036 4.58543 7.21401 4.56907L5.35968 4.36221L4.59 2.66261C4.52925 2.5285 4.39565 2.4423 4.24837 2.4423C4.10109 2.4423 3.9675 2.52846 3.90675 2.66261L3.13701 4.3623L1.28268 4.56911C1.13634 4.58543 1.01311 4.68588 0.967591 4.82594C0.922075 4.966 0.962763 5.11971 1.07156 5.21889L2.45015 6.47618L2.07389 8.30369ZM2.18878 5.22274L3.43218 5.08403C3.56367 5.06936 3.67767 4.98654 3.73223 4.86607L4.24837 3.72635L4.76451 4.86602C4.81908 4.98649 4.93307 5.06932 5.06456 5.08399L6.30797 5.22269L5.38354 6.06574C5.28581 6.15489 5.24226 6.28891 5.26893 6.41843L5.52126 7.64388L4.43381 7.02522C4.37629 6.9925 4.31236 6.97619 4.24837 6.97619C4.18439 6.97619 4.12045 6.99255 4.06293 7.02522L2.97548 7.64393L3.22781 6.41847C3.25448 6.28891 3.21093 6.15489 3.1132 6.06579L2.18878 5.22274ZM23.0346 4.82594C22.9891 4.68593 22.8659 4.58547 22.7195 4.56911L20.8652 4.36225L20.0955 2.66261C20.0347 2.5285 19.9012 2.4423 19.7539 2.4423C19.6066 2.4423 19.473 2.52846 19.4122 2.66261L18.6425 4.3623L16.7882 4.56916C16.6418 4.58547 16.5186 4.68593 16.4731 4.82599C16.4276 4.96605 16.4683 5.11975 16.5771 5.21894L17.9557 6.47622L17.5793 8.30374C17.5496 8.44797 17.6071 8.59619 17.7262 8.68272C17.8453 8.76925 18.004 8.77811 18.132 8.70527L19.7538 7.78263L21.3756 8.70527C21.4333 8.73808 21.4972 8.7543 21.561 8.7543C21.6387 8.7543 21.7161 8.73021 21.7815 8.68268C21.9006 8.59614 21.958 8.44788 21.9283 8.30369L21.552 6.47618L22.9306 5.21889C23.0394 5.11966 23.0801 4.96596 23.0346 4.82594ZM20.889 6.06579C20.7913 6.15494 20.7478 6.28896 20.7744 6.41847L21.0268 7.64393L19.9393 7.02527C19.8818 6.99255 19.8179 6.97624 19.7539 6.97624C19.6899 6.97624 19.6259 6.9926 19.5684 7.02527L18.481 7.64393L18.7333 6.41847C18.76 6.28891 18.7164 6.15489 18.6187 6.06579L17.6943 5.22274L18.9377 5.08408C19.0692 5.06941 19.1832 4.98658 19.2377 4.86611L19.7539 3.72639L20.27 4.86611C20.3246 4.98658 20.4386 5.06941 20.5701 5.08408L21.8135 5.22278L20.889 6.06579ZM20.0043 9.96846C19.9253 9.76478 19.6694 9.67066 19.4777 9.77336L17.5882 10.7847C17.1554 11.01 16.7083 10.8476 16.0148 10.5641C15.0648 10.1758 13.7785 9.65135 12.1036 10.6901C10.8857 9.96944 9.84534 10.2146 9.00033 10.4141C8.34998 10.5678 7.83633 10.6891 7.33964 10.4096C7.33087 10.4047 7.32197 10.4001 7.31283 10.3959L4.84439 9.25713C4.65736 9.17083 4.43559 9.25164 4.34793 9.43811C4.34793 9.43811 1.77468 14.9131 1.76976 14.9237C1.67953 15.1156 1.77257 15.3516 1.96861 15.4308C2.00184 15.4452 4.2712 16.4667 4.48758 16.5507C4.66893 16.6211 4.72533 16.8294 4.803 17.255C4.84453 17.4828 4.88728 17.7162 4.98323 17.9286L4.61357 18.6197C4.23661 19.3246 4.50332 20.2047 5.20818 20.5817C5.42526 20.6978 5.65898 20.7528 5.88947 20.7528C5.92092 20.7528 5.95232 20.7517 5.98359 20.7497C5.8642 21.3583 6.14747 22.0003 6.72225 22.3077C7.14431 22.5335 7.73217 22.5183 8.14378 22.2766C8.26828 22.5719 8.49051 22.8281 8.7945 22.9908C9.19575 23.2054 9.68559 23.2151 10.0969 23.0224C10.2117 23.3567 10.4476 23.6503 10.7832 23.8298C11.4115 24.1658 12.2316 23.9798 12.649 23.3901L13.1591 23.6707C13.3801 23.7923 13.6192 23.8499 13.8553 23.8499C14.3672 23.8499 14.8643 23.5785 15.128 23.0992C15.2961 22.7935 15.3416 22.4524 15.2811 22.1331C15.7634 22.1057 16.2218 21.8387 16.4713 21.3851C16.6128 21.1278 16.6665 20.8447 16.643 20.5702C16.7106 20.5798 16.7784 20.5851 16.846 20.5851C17.3579 20.5851 17.8549 20.3137 18.1186 19.8343C18.2788 19.5431 18.3263 19.2187 18.2767 18.9113C18.4004 18.909 18.525 18.8912 18.6478 18.8563C19.0255 18.749 19.3372 18.5013 19.5255 18.159C19.6865 17.8663 19.7334 17.5391 19.6813 17.2292L22.0404 16.2233C22.2265 16.144 22.3161 15.9314 22.243 15.7428C22.2428 15.7429 20.0115 9.98693 20.0043 9.96846ZM5.56181 19.9204C5.22164 19.7385 5.09292 19.3137 5.27484 18.9735C5.27484 18.9735 5.95683 17.6984 5.95725 17.6976C6.13631 17.3628 6.57065 17.2323 6.90473 17.4109C7.23928 17.5898 7.36992 18.0232 7.19118 18.3575L6.50751 19.6355C6.32493 19.9741 5.90132 20.102 5.56181 19.9204ZM7.60847 21.6979C7.42879 21.7524 7.2397 21.7341 7.07592 21.6465C6.73575 21.4646 6.60703 21.0398 6.78895 20.6996C6.78895 20.6996 7.71497 18.9685 7.71539 18.9677C7.88859 18.6438 8.33761 18.5111 8.66109 18.6841C8.99536 18.8628 9.12618 19.2965 8.9475 19.6307L8.02284 21.3595C7.93523 21.5233 7.78809 21.6435 7.60847 21.6979ZM9.68067 22.3809C9.50095 22.4352 9.31186 22.417 9.14817 22.3295C8.808 22.1476 8.67928 21.7227 8.8612 21.3825L9.60886 19.9844V19.9844C9.69642 19.8206 9.84356 19.7005 10.0232 19.6461C10.2029 19.5916 10.392 19.6099 10.5563 19.6978C10.7193 19.7846 10.839 19.9312 10.8936 20.1107C10.9484 20.291 10.9304 20.4805 10.8427 20.6444L10.095 22.0425C10.0075 22.2063 9.86029 22.3264 9.68067 22.3809ZM11.6693 23.2199C11.4896 23.2743 11.3005 23.2561 11.1367 23.1685C10.7966 22.9866 10.6679 22.5618 10.8498 22.2216C10.8498 22.2216 11.5036 20.9989 11.5041 20.9981C11.6834 20.6628 12.1163 20.5321 12.4515 20.7115C12.78 20.8874 12.9179 21.3215 12.7379 21.6581L12.0836 22.8816C11.9962 23.0453 11.849 23.1655 11.6693 23.2199ZM14.4707 22.7378C14.2848 23.0757 13.8585 23.1995 13.5204 23.0136L13.0129 22.7344L13.3994 22.0117C13.4952 21.8325 13.5507 21.6389 13.5658 21.4415L14.1906 21.7851L14.1939 21.787C14.5319 21.9742 14.6561 22.4006 14.4707 22.7378ZM18.8682 17.7976C18.689 18.1234 18.2472 18.2593 17.9218 18.0754L15.2573 16.5705C15.0771 16.4686 14.8483 16.5322 14.7464 16.7126C14.6445 16.8929 14.7082 17.1216 14.8885 17.2235C14.8885 17.2235 17.1731 18.5157 17.1823 18.5209C17.5202 18.7112 17.6454 19.1382 17.4613 19.4729C17.2754 19.8109 16.8491 19.9347 16.5111 19.7487L13.6087 18.1268C13.4283 18.0252 13.1996 18.0891 13.098 18.2696C12.9964 18.4502 13.0604 18.6788 13.2409 18.7804L15.535 20.0716C15.873 20.2618 15.9982 20.6889 15.8141 21.0236C15.6282 21.3616 15.2019 21.4854 14.8639 21.2994L13.2331 20.3977C13.1155 20.2566 12.9711 20.1383 12.8048 20.0498C12.4644 19.8677 12.0724 19.8295 11.7011 19.942C11.6775 19.9491 11.6543 19.9568 11.6314 19.965C11.6253 19.9407 11.6187 19.9165 11.6114 19.8924C11.4984 19.5211 11.2491 19.2168 10.9096 19.0361C10.5693 18.854 10.1772 18.8156 9.80587 18.9282C9.78234 18.9354 9.75909 18.9431 9.73612 18.9513C9.73007 18.927 9.72342 18.9028 9.71611 18.8787C9.60318 18.5074 9.35381 18.2031 9.01434 18.0223C8.69653 17.8524 8.34318 17.8136 8.01628 17.8865C8.00676 17.7923 7.98797 17.6983 7.95975 17.6055C7.84683 17.2341 7.5974 16.9299 7.25798 16.7491C6.91758 16.5671 6.52561 16.5287 6.15422 16.6413C5.90986 16.7154 5.69461 16.849 5.52389 17.0285C5.44364 16.6016 5.31093 16.0656 4.75903 15.8514C4.54312 15.7675 3.36698 15.2375 2.73515 14.9528C2.68954 14.9323 2.64829 14.9137 2.61098 14.8969L4.86834 10.0939L6.98564 11.0707C7.73278 11.4841 8.46473 11.3111 9.17278 11.1439C9.90506 10.9709 10.603 10.8061 11.4271 11.1804C11.2354 11.3395 11.0444 11.5144 10.8559 11.7049C10.1302 12.4383 9.2025 13.1308 8.09878 13.763C8.00639 13.816 7.94086 13.9056 7.91854 14.0097C7.89623 14.1138 7.91915 14.2225 7.98168 14.3087C9.43087 16.3056 11.1452 15.6115 12.5227 15.0539C13.4399 14.6825 14.232 14.3619 14.8708 14.7259L18.5876 16.8444C18.9254 17.0372 19.0513 17.4647 18.8682 17.7976ZM19.3733 16.5452C19.2613 16.4065 19.1223 16.2862 18.9589 16.193L15.2421 14.0745C14.9168 13.8891 14.5817 13.8158 14.2413 13.8158C13.5827 13.8158 12.9044 14.0904 12.2412 14.3589C10.9813 14.8689 9.8797 15.3149 8.85018 14.1908C9.84829 13.5853 10.701 12.9278 11.3889 12.2326C11.6918 11.9265 11.9995 11.6648 12.3034 11.4548C13.7554 10.4509 14.7597 10.8614 15.731 11.2584C16.439 11.5478 17.1712 11.8471 17.9381 11.4481L19.4581 10.6346L21.4123 15.6758L19.3733 16.5452Z" fill="white"/>
</g>
<defs>
<clipPath id="clip0_352_3945">
<rect width="24" height="24" fill="white" transform="translate(0 0.000488281)"/>
</clipPath>
</defs>
</svg>
