<svg width="24" height="24" viewBox="0 0 24 24" fill="none" xmlns="http://www.w3.org/2000/svg">
<path fill-rule="evenodd" clip-rule="evenodd" d="M21.5843 12.4126C19.6476 15.8904 15.9749 18.0509 12.0013 18.0509C8.02503 18.0509 4.35233 15.8904 2.41564 12.4126C2.26649 12.1426 2.26649 11.8571 2.41564 11.5873C4.35233 8.10956 8.02503 5.94937 12.0013 5.94937C15.9749 5.94937 19.6476 8.10956 21.5843 11.5873C21.7361 11.8571 21.7361 12.1426 21.5843 12.4126ZM22.8214 10.8978C20.6353 6.9712 16.4893 4.53225 12.0013 4.53225C7.51063 4.53225 3.36467 6.9712 1.17852 10.8978C0.787581 11.5984 0.787581 12.4016 1.17852 13.1017C3.36467 17.0282 7.51063 19.4677 12.0013 19.4677C16.4893 19.4677 20.6353 17.0282 22.8214 13.1017C23.2123 12.4016 23.2123 11.5984 22.8214 10.8978ZM12.0013 14.9069C13.6036 14.9069 14.9075 13.6029 14.9075 11.9999C14.9075 10.3968 13.6036 9.09281 12.0013 9.09281C10.3963 9.09281 9.09238 10.3968 9.09238 11.9999C9.09238 13.6029 10.3964 14.9069 12.0013 14.9069ZM12.0013 7.67569C9.61447 7.67569 7.67525 9.6157 7.67525 11.9999C7.67525 14.3846 9.61452 16.3238 12.0013 16.3238C14.3855 16.3238 16.3247 14.3846 16.3247 11.9999C16.3247 9.6157 14.3855 7.67569 12.0013 7.67569Z" fill="black"/>
</svg>
