<svg width="20" height="19" viewBox="0 0 20 19" fill="none" xmlns="http://www.w3.org/2000/svg">
<path fill-rule="evenodd" clip-rule="evenodd" d="M2.40001 12.8792H0.844392C0.737939 12.8792 0.647402 12.9565 0.630802 13.0616L0.00163188 17.0506C-0.0108734 17.1294 0.0500852 17.2003 0.129927 17.2003H0.872593C0.979045 17.2003 1.06958 17.123 1.08618 17.0177L1.25588 15.9418C1.27225 15.8364 1.363 15.7592 1.46924 15.7592H1.96169C2.98643 15.7592 3.5778 15.2633 3.73233 14.2806C3.8019 13.8507 3.73527 13.5129 3.5339 13.2763C3.31285 13.0166 2.92064 12.8792 2.40001 12.8792ZM2.57948 14.3361C2.49443 14.8943 2.06792 14.8943 1.65553 14.8943H1.42078L1.58547 13.8518C1.59525 13.7888 1.64984 13.7424 1.71353 13.7424H1.82112C2.10204 13.7424 2.36706 13.7424 2.50401 13.9025C2.58559 13.9981 2.61064 14.14 2.57948 14.3361ZM7.05012 14.3182H6.30517C6.2417 14.3182 6.18686 14.3646 6.17707 14.4277L6.14412 14.636L6.09202 14.5605C5.93075 14.3264 5.57117 14.2482 5.21222 14.2482C4.38896 14.2482 3.6859 14.8717 3.54896 15.7463C3.4778 16.1825 3.57896 16.5997 3.82643 16.8906C4.05348 17.1581 4.37833 17.2696 4.76475 17.2696C5.42801 17.2696 5.79591 16.8431 5.79591 16.8431L5.76265 17.0501C5.75012 17.1293 5.81107 17.2002 5.89044 17.2002H6.56149C6.66823 17.2002 6.75823 17.1228 6.77507 17.0176L7.1777 14.4679C7.19044 14.3895 7.1297 14.3182 7.05012 14.3182ZM6.0117 15.7681C5.9398 16.1937 5.60201 16.4794 5.17128 16.4794C4.95496 16.4794 4.78201 16.41 4.67106 16.2785C4.56096 16.148 4.51906 15.9621 4.55412 15.7552C4.62127 15.3332 4.96475 15.0382 5.38896 15.0382C5.60044 15.0382 5.77244 15.1084 5.8857 15.241C5.99917 15.3751 6.04423 15.562 6.0117 15.7681ZM10.269 14.3181H11.0176C11.1224 14.3181 11.1836 14.4357 11.124 14.5217L8.63423 18.1156C8.59392 18.1738 8.5275 18.2084 8.45655 18.2084H7.70886C7.6036 18.2084 7.54212 18.0899 7.60307 18.0037L8.37834 16.9094L7.55381 14.4896C7.52528 14.4055 7.58739 14.3181 7.67686 14.3181H8.41244C8.50802 14.3181 8.59234 14.3808 8.61992 14.4723L9.0575 15.9338L10.09 14.4129C10.1304 14.3536 10.1976 14.3181 10.269 14.3181Z" fill="#253B80"/>
<path fill-rule="evenodd" clip-rule="evenodd" d="M18.3851 17.0506L19.0236 12.9886C19.0334 12.9255 19.088 12.8791 19.1515 12.8789H19.8702C19.9496 12.8789 20.0105 12.9501 19.998 13.0288L19.3684 17.0177C19.352 17.1229 19.2615 17.2003 19.1548 17.2003H18.5129C18.4336 17.2003 18.3726 17.1293 18.3851 17.0506ZM13.4958 12.8791H11.9399C11.8337 12.8791 11.7431 12.9565 11.7265 13.0615L11.0973 17.0506C11.0848 17.1293 11.1458 17.2003 11.2252 17.2003H12.0236C12.0978 17.2003 12.1612 17.1462 12.1728 17.0725L12.3513 15.9418C12.3678 15.8364 12.4585 15.7591 12.5647 15.7591H13.0569C14.0819 15.7591 14.6731 15.2632 14.8278 14.2806C14.8976 13.8507 14.8305 13.5129 14.6292 13.2763C14.4083 13.0166 14.0164 12.8791 13.4958 12.8791ZM13.6752 14.3361C13.5904 14.8943 13.1639 14.8943 12.7512 14.8943H12.5167L12.6817 13.8518C12.6914 13.7888 12.7456 13.7424 12.8094 13.7424H12.917C13.1978 13.7424 13.463 13.7424 13.5999 13.9025C13.6816 13.9981 13.7064 14.14 13.6752 14.3361ZM18.1455 14.3182H17.401C17.337 14.3182 17.2827 14.3646 17.2731 14.4276L17.2402 14.636L17.1879 14.5605C17.0266 14.3264 16.6672 14.2482 16.3083 14.2482C15.485 14.2482 14.7822 14.8716 14.6452 15.7463C14.5743 16.1825 14.675 16.5997 14.9225 16.8906C15.15 17.1581 15.4744 17.2695 15.8608 17.2695C16.5241 17.2695 16.8919 16.843 16.8919 16.843L16.8587 17.0501C16.8462 17.1292 16.9071 17.2002 16.987 17.2002H17.6578C17.764 17.2002 17.8545 17.1228 17.8711 17.0175L18.274 14.4679C18.2863 14.3894 18.2254 14.3182 18.1455 14.3182ZM17.1071 15.7681C17.0357 16.1937 16.6975 16.4793 16.2666 16.4793C16.0507 16.4793 15.8775 16.41 15.7664 16.2785C15.6563 16.148 15.6149 15.9621 15.6496 15.7551C15.717 15.3331 16.0601 15.0382 16.4843 15.0382C16.6959 15.0382 16.8678 15.1084 16.9811 15.241C17.095 15.375 17.1401 15.562 17.1071 15.7681Z" fill="#179BD7"/>
<path d="M8.15665 11.4521L8.34791 10.2374L7.92191 10.2275H5.8877L7.30138 1.26365C7.3057 1.23659 7.32001 1.21135 7.34086 1.19344C7.3617 1.17552 7.38844 1.16565 7.41623 1.16565H10.8462C11.985 1.16565 12.7708 1.40261 13.1811 1.8703C13.3734 2.08971 13.4959 2.31899 13.5552 2.57131C13.6173 2.83606 13.6184 3.15237 13.5577 3.53816L13.5533 3.56632V3.81351L13.7457 3.92249C13.9077 4.00841 14.0363 4.10678 14.1351 4.21941C14.2997 4.407 14.4061 4.64543 14.4511 4.92809C14.4975 5.21881 14.4821 5.56473 14.4061 5.95638C14.3183 6.40689 14.1765 6.79926 13.9849 7.12033C13.8086 7.41616 13.584 7.66147 13.3175 7.85169C13.063 8.03232 12.7606 8.16948 12.4187 8.25727C12.0873 8.34348 11.7096 8.38706 11.2953 8.38706H11.0283C10.8375 8.38706 10.652 8.45579 10.5065 8.57906C10.3607 8.70485 10.264 8.87664 10.2344 9.06464L10.2143 9.174L9.87644 11.315L9.86107 11.3936C9.85707 11.4185 9.85013 11.431 9.83992 11.4394C9.83076 11.447 9.8176 11.4521 9.80476 11.4521H8.15665Z" fill="#253B80"/>
<path d="M13.9279 3.59497C13.9177 3.66042 13.906 3.72734 13.8928 3.79609C13.4404 6.1185 11.8929 6.9208 9.9164 6.9208H8.91008C8.6684 6.9208 8.46471 7.09632 8.42703 7.33474L7.91176 10.6025L7.76587 11.5287C7.74134 11.6852 7.86208 11.8264 8.01998 11.8264H9.80493C10.0163 11.8264 10.1958 11.6728 10.229 11.4644L10.2466 11.3736L10.5827 9.24098L10.6043 9.12404C10.6371 8.91488 10.817 8.7613 11.0284 8.7613H11.2954C13.0246 8.7613 14.3784 8.05919 14.7741 6.02745C14.9394 5.17871 14.8538 4.47004 14.4164 3.97161C14.2841 3.82132 14.1199 3.69662 13.9279 3.59497Z" fill="#179BD7"/>
<path d="M13.4545 3.40638C13.3854 3.38626 13.314 3.36798 13.2409 3.35152C13.1674 3.33544 13.092 3.32118 13.0146 3.30875C12.7432 3.26486 12.4459 3.24402 12.1274 3.24402H9.43897C9.37276 3.24402 9.30992 3.25901 9.2536 3.28607C9.1296 3.34567 9.0375 3.46306 9.01518 3.60677L8.44318 7.22916L8.42676 7.33484C8.46444 7.09642 8.66813 6.92089 8.90981 6.92089H9.91613C11.8927 6.92089 13.4402 6.11824 13.8926 3.79619C13.906 3.72744 13.9174 3.66052 13.9276 3.59507C13.8132 3.53437 13.6892 3.48244 13.5557 3.43819C13.5229 3.42722 13.4889 3.41662 13.4545 3.40638Z" fill="#222D65"/>
<path d="M9.01557 3.60673C9.03788 3.46301 9.13009 3.34563 9.25399 3.28639C9.31073 3.25933 9.37325 3.24434 9.43936 3.24434H12.1279C12.4464 3.24434 12.7437 3.26518 13.0149 3.30906C13.0925 3.32149 13.1679 3.33576 13.2414 3.35184C13.3145 3.3683 13.3858 3.38659 13.4549 3.40669C13.4893 3.41694 13.5233 3.42754 13.5565 3.43815C13.69 3.48239 13.814 3.53468 13.9284 3.59502C14.0631 2.73678 13.9274 2.15243 13.4634 1.62329C12.9518 1.04077 12.0284 0.791382 10.8469 0.791382H7.41683C7.17546 0.791382 6.96967 0.966898 6.9323 1.20569L5.50367 10.2617C5.47546 10.4408 5.61367 10.6025 5.7943 10.6025H7.91199L8.44367 7.22911L9.01557 3.60673Z" fill="#253B80"/>
</svg>
