<svg width="22" height="18" viewBox="0 0 22 18" fill="none" xmlns="http://www.w3.org/2000/svg">
<path d="M20.6085 8.89175C20.1853 8.46859 19.6858 8.1293 19.1365 7.89175C19.5063 7.62845 19.8168 7.29051 20.0478 6.89976C20.2789 6.50901 20.4254 6.07414 20.478 5.62323C20.5305 5.17232 20.4879 4.71541 20.3529 4.28199C20.2179 3.84858 19.9934 3.44831 19.6941 3.10704C19.3947 2.76576 19.0271 2.49107 18.615 2.30071C18.2029 2.11034 17.7554 2.00854 17.3015 2.00186C16.8476 1.99519 16.3973 2.0838 15.9798 2.26198C15.5623 2.44015 15.1867 2.70392 14.8775 3.03625C14.6635 2.16961 14.1653 1.39965 13.4624 0.849283C12.7596 0.298915 11.8927 -0.000137329 11 -0.000137329C10.1073 -0.000137329 9.24038 0.298915 8.53755 0.849283C7.83472 1.39965 7.33653 2.16961 7.1225 3.03625C6.81331 2.70351 6.43773 2.43937 6.02005 2.2609C5.60237 2.08244 5.15188 1.99361 4.69771 2.00018C4.24355 2.00675 3.79582 2.10856 3.38347 2.29903C2.97112 2.48949 2.60334 2.76438 2.3039 3.10592C2.00446 3.44745 1.78003 3.84803 1.64512 4.28174C1.51022 4.71546 1.46783 5.17266 1.52072 5.62378C1.57361 6.07491 1.72058 6.50991 1.95214 6.90066C2.1837 7.29142 2.49469 7.62923 2.865 7.89225C2.0149 8.26069 1.29092 8.86938 0.781953 9.64357C0.272991 10.4178 0.00121424 11.3237 0 12.2502V14.5002C0.000793929 15.163 0.264441 15.7985 0.73311 16.2671C1.20178 16.7358 1.8372 16.9995 2.5 17.0002H6.013C6.24393 17.3096 6.54368 17.5611 6.88855 17.7346C7.23341 17.9082 7.61393 17.9991 8 18.0002H14C14.3861 17.9991 14.7666 17.9082 15.1115 17.7346C15.4563 17.5611 15.7561 17.3096 15.987 17.0002H19.5C20.1628 16.9995 20.7982 16.7358 21.2669 16.2671C21.7356 15.7985 21.9992 15.163 22 14.5002V12.2502C22.0017 11.6262 21.8796 11.0081 21.6408 10.4316C21.4019 9.85508 21.051 9.3317 20.6085 8.89175ZM17.25 3.00025C17.695 3.00025 18.13 3.13221 18.5 3.37944C18.87 3.62667 19.1584 3.97807 19.3287 4.38921C19.499 4.80034 19.5436 5.25274 19.4568 5.6892C19.3699 6.12566 19.1557 6.52657 18.841 6.84124C18.5263 7.1559 18.1254 7.3702 17.689 7.45701C17.2525 7.54383 16.8001 7.49927 16.389 7.32897C15.9778 7.15868 15.6264 6.87029 15.3792 6.50028C15.132 6.13027 15 5.69525 15 5.25025C15.0007 4.65371 15.2379 4.0818 15.6597 3.65999C16.0816 3.23817 16.6535 3.00091 17.25 3.00025ZM14.573 8.32725C14.1271 7.94386 13.6225 7.63459 13.0785 7.41125C13.5169 7.14286 13.9 6.79307 14.207 6.38075C14.4341 6.98963 14.8381 7.51671 15.367 7.89425C15.0893 8.01324 14.8234 8.15822 14.573 8.32725ZM11 1.00025C11.5933 1.00025 12.1734 1.17619 12.6667 1.50584C13.1601 1.83548 13.5446 2.30402 13.7716 2.8522C13.9987 3.40037 14.0581 4.00357 13.9424 4.58552C13.8266 5.16746 13.5409 5.70201 13.1213 6.12157C12.7018 6.54112 12.1672 6.82685 11.5853 6.9426C11.0033 7.05836 10.4001 6.99895 9.85195 6.77188C9.30377 6.54482 8.83524 6.1603 8.50559 5.66696C8.17595 5.17361 8 4.59359 8 4.00025C8.00079 3.20484 8.31712 2.44224 8.87956 1.8798C9.44199 1.31737 10.2046 1.00104 11 1.00025ZM7.427 8.32725C7.17657 8.15822 6.91072 8.01324 6.633 7.89425C7.16194 7.51671 7.56591 6.98963 7.793 6.38075C8.10001 6.79307 8.48306 7.14286 8.9215 7.41125C8.3775 7.63459 7.87291 7.94386 7.427 8.32725ZM2.5 5.25025C2.5 4.80524 2.63196 4.37022 2.87919 4.00021C3.12643 3.6302 3.47783 3.34181 3.88896 3.17152C4.3001 3.00122 4.7525 2.95666 5.18895 3.04348C5.62541 3.1303 6.02632 3.34459 6.34099 3.65926C6.65566 3.97392 6.86995 4.37484 6.95677 4.81129C7.04358 5.24775 6.99903 5.70015 6.82873 6.11128C6.65843 6.52242 6.37004 6.87382 6.00003 7.12105C5.63002 7.36829 5.19501 7.50025 4.75 7.50025C4.15347 7.49958 3.58155 7.26232 3.15974 6.84051C2.73793 6.41869 2.50066 5.84678 2.5 5.25025ZM2.5 16.0002C2.10218 16.0002 1.72064 15.8422 1.43934 15.5609C1.15804 15.2796 1 14.8981 1 14.5002V12.2502C0.999035 11.5828 1.1765 10.9272 1.51401 10.3514C1.85153 9.77551 2.33683 9.30035 2.91967 8.97508C3.50251 8.6498 4.1617 8.48622 4.829 8.50128C5.49629 8.51635 6.14743 8.7095 6.715 9.06075C5.92828 10.0344 5.4994 11.2485 5.5 12.5002V15.5002C5.49983 15.6682 5.51658 15.8357 5.55 16.0002H2.5ZM15.5 15.5002C15.5 15.8981 15.342 16.2796 15.0607 16.5609C14.7794 16.8422 14.3978 17.0002 14 17.0002H8C7.60218 17.0002 7.22064 16.8422 6.93934 16.5609C6.65804 16.2796 6.5 15.8981 6.5 15.5002V12.5002C6.5 11.3068 6.97411 10.1622 7.81802 9.31827C8.66193 8.47435 9.80653 8.00025 11 8.00025C12.1935 8.00025 13.3381 8.47435 14.182 9.31827C15.0259 10.1622 15.5 11.3068 15.5 12.5002V15.5002ZM21 14.5002C21 14.8981 20.842 15.2796 20.5607 15.5609C20.2794 15.8422 19.8978 16.0002 19.5 16.0002H16.45C16.4834 15.8357 16.5002 15.6682 16.5 15.5002V12.5002C16.5006 11.2485 16.0717 10.0344 15.285 9.06075C15.8527 8.71035 16.5037 8.51788 17.1707 8.50322C17.8377 8.48857 18.4965 8.65226 19.079 8.97738C19.6616 9.3025 20.1468 9.77727 20.4845 10.3526C20.8222 10.928 21.0002 11.5831 21 12.2502V14.5002Z" fill="white"/>
</svg>
