<svg width="27" height="28" viewBox="0 0 27 28" fill="none" xmlns="http://www.w3.org/2000/svg">
<path d="M22.8102 25.9408C22.9143 25.9264 23.0202 25.9326 23.1219 25.9591C23.2236 25.9856 23.319 26.0318 23.4028 26.0952C23.4866 26.1586 23.5571 26.2379 23.6103 26.3285C23.6634 26.4192 23.6982 26.5194 23.7126 26.6234C23.7271 26.7275 23.7208 26.8334 23.6943 26.9351C23.6678 27.0368 23.6216 27.1322 23.5582 27.216C23.4948 27.2998 23.4155 27.3703 23.3249 27.4235C23.2343 27.4766 23.134 27.5114 23.03 27.5258C22.95 27.5365 23.7809 27.5365 1.88009 27.5333C1.68951 27.5333 1.50114 27.4924 1.32769 27.4134C1.15423 27.3345 0.999729 27.2192 0.874586 27.0755C0.749442 26.9317 0.656569 26.7628 0.602226 26.5802C0.547883 26.3975 0.533333 26.2053 0.559558 26.0165L3.01822 8.34185C3.0805 7.89586 3.3019 7.48741 3.64161 7.1918C3.98132 6.8962 4.41644 6.73336 4.86676 6.73331H5.51956C5.73173 6.73331 5.93521 6.8176 6.08524 6.96763C6.23527 7.11766 6.31956 7.32114 6.31956 7.53331C6.31956 7.74549 6.23527 7.94897 6.08524 8.099C5.93521 8.24903 5.73173 8.33331 5.51956 8.33331H4.86676C4.80244 8.33349 4.74035 8.3569 4.69194 8.39924C4.64352 8.44158 4.61204 8.49999 4.60329 8.56371L2.18729 25.9333C8.48063 25.9333 22.8572 25.9344 22.8102 25.9408ZM16.4934 8.79945C16.4765 8.7343 16.4679 8.66728 16.4678 8.59998V5.33278C16.4678 3.45865 14.919 1.93331 13.0012 1.93331C11.0833 1.93331 9.53449 3.45865 9.53449 5.33385V8.59998C9.53437 8.66728 9.52577 8.7343 9.50889 8.79945C9.81931 8.97114 10.0639 9.24112 10.2041 9.56695C10.3444 9.89277 10.3724 10.256 10.2837 10.5994C10.1951 10.9429 9.99476 11.2472 9.71433 11.4644C9.4339 11.6817 9.08922 11.7996 8.73449 11.7996C8.37976 11.7996 8.03508 11.6817 7.75465 11.4644C7.47422 11.2472 7.27393 10.9429 7.18527 10.5994C7.09661 10.256 7.12461 9.89277 7.26486 9.56695C7.40512 9.24112 7.64968 8.97114 7.96009 8.79945C7.94321 8.7343 7.93461 8.66728 7.93449 8.59998V5.33278C7.93449 2.56905 10.2065 0.333313 13.0012 0.333313C15.7958 0.333313 18.0678 2.56905 18.0678 5.33385V8.59998C18.0677 8.66728 18.0591 8.7343 18.0422 8.79945C18.3526 8.97114 18.5972 9.24112 18.7375 9.56695C18.8777 9.89277 18.9057 10.256 18.817 10.5994C18.7284 10.9429 18.5281 11.2472 18.2477 11.4644C17.9672 11.6817 17.6226 11.7996 17.2678 11.7996C16.9131 11.7996 16.5684 11.6817 16.288 11.4644C16.0076 11.2472 15.8073 10.9429 15.7186 10.5994C15.6299 10.256 15.6579 9.89277 15.7982 9.56695C15.9385 9.24112 16.183 8.97114 16.4934 8.79945ZM20.4401 8.33331C20.2279 8.33331 20.0244 8.24903 19.8744 8.099C19.7244 7.94897 19.6401 7.74549 19.6401 7.53331C19.6401 7.32114 19.7244 7.11766 19.8744 6.96763C20.0244 6.8176 20.2279 6.73331 20.4401 6.73331H21.1356C21.586 6.7334 22.0213 6.89638 22.361 7.1922C22.7008 7.48803 22.9221 7.89673 22.9841 8.34291L23.3681 11.1056C23.3862 11.2113 23.383 11.3195 23.3584 11.4239C23.3339 11.5283 23.2887 11.6267 23.2254 11.7132C23.1621 11.7998 23.082 11.8727 22.99 11.9277C22.8979 11.9827 22.7958 12.0187 22.6896 12.0334C22.5833 12.0481 22.4753 12.0414 22.3717 12.0135C22.2682 11.9856 22.1713 11.9372 22.0868 11.8712C22.0024 11.8051 21.932 11.7228 21.88 11.629C21.828 11.5352 21.7954 11.4319 21.7841 11.3253L21.4001 8.56265C21.3911 8.49894 21.3593 8.44064 21.3107 8.39849C21.2621 8.35634 21.1999 8.33319 21.1356 8.33331H20.439H20.4401ZM11.9345 8.33331C11.7223 8.33331 11.5188 8.24903 11.3688 8.099C11.2188 7.94897 11.1345 7.74549 11.1345 7.53331C11.1345 7.32114 11.2188 7.11766 11.3688 6.96763C11.5188 6.8176 11.7223 6.73331 11.9345 6.73331H14.0678C14.28 6.73331 14.4835 6.8176 14.6335 6.96763C14.7835 7.11766 14.8678 7.32114 14.8678 7.53331C14.8678 7.74549 14.7835 7.94897 14.6335 8.099C14.4835 8.24903 14.28 8.33331 14.0678 8.33331H11.9345Z" fill="black"/>
<path fill-rule="evenodd" clip-rule="evenodd" d="M17.1965 17.9387L17.9752 13.7488C18.0007 13.6115 18.079 13.4898 18.1933 13.4096C18.3075 13.3294 18.4487 13.2973 18.5864 13.32L22.7891 14.0219C22.929 14.0451 23.0628 14.0961 23.1828 14.1717C23.3027 14.2474 23.4064 14.3462 23.4877 14.4624L26.756 19.1301C26.7963 19.1875 26.8248 19.2523 26.84 19.3208C26.8552 19.3892 26.8568 19.46 26.8446 19.5291C26.8324 19.5981 26.8067 19.6641 26.769 19.7232C26.7313 19.7823 26.6823 19.8334 26.6248 19.8736L21.3843 23.544C21.3269 23.5843 21.2621 23.6128 21.1936 23.628C21.1252 23.6432 21.0544 23.6448 20.9853 23.6326C20.9163 23.6204 20.8503 23.5947 20.7912 23.557C20.7321 23.5193 20.681 23.4703 20.6408 23.4128L17.3725 18.7451C17.2913 18.629 17.234 18.4979 17.2039 18.3595C17.1739 18.221 17.1707 18.0779 17.1965 17.9387Z" fill="black"/>
</svg>
