<svg width="18" height="22" viewBox="0 0 18 22" fill="none" xmlns="http://www.w3.org/2000/svg">
<path d="M9.00014 21.4518C8.90602 21.4531 8.81232 21.4391 8.72264 21.4105C8.05139 21.2005 3.98639 19.123 1.93514 16.3105C-0.0561079 13.5768 0.000142179 7.87302 0.187642 3.81927C0.191671 3.74053 0.212098 3.6635 0.247614 3.59312C0.28313 3.52273 0.332953 3.46054 0.393892 3.41052C0.455092 3.36186 0.525536 3.32613 0.600955 3.3055C0.676373 3.28487 0.755195 3.27978 0.832642 3.29052C0.877642 3.29052 5.41139 3.92052 8.60264 0.714268C8.70951 0.611599 8.85195 0.55426 9.00014 0.55426C9.14833 0.55426 9.29078 0.611599 9.39764 0.714268C12.5889 3.92052 17.1226 3.29802 17.1676 3.29052C17.2454 3.27915 17.3246 3.28429 17.4002 3.30561C17.4758 3.32694 17.5461 3.36396 17.6064 3.41427C17.6676 3.46323 17.7176 3.52469 17.7532 3.59452C17.7888 3.66436 17.809 3.74098 17.8126 3.81927C18.0151 7.87302 18.0564 13.5693 16.0651 16.3105C14.0139 19.123 9.94889 21.1855 9.27764 21.4105C9.18797 21.4391 9.09426 21.4531 9.00014 21.4518ZM1.28264 4.46052C1.11764 8.28552 1.15139 13.3218 2.84639 15.6468C4.54139 17.9718 8.16014 20.0005 9.00014 20.3155C9.84014 20.0118 13.4364 18.0055 15.1539 15.6468C16.8714 13.288 16.8751 8.28552 16.7176 4.46052C15.3189 4.53552 11.8426 4.43052 9.00014 1.88802C6.16889 4.43052 2.68514 4.53552 1.28264 4.46052Z" fill="white"/>
<path d="M9.00063 11.5968C8.59567 11.5968 8.19981 11.4767 7.8631 11.2517C7.52639 11.0267 7.26395 10.7069 7.10898 10.3328C6.95401 9.95868 6.91346 9.547 6.99247 9.14982C7.07147 8.75265 7.26648 8.38782 7.55282 8.10147C7.83917 7.81512 8.204 7.62012 8.60118 7.54111C8.99835 7.46211 9.41004 7.50266 9.78417 7.65763C10.1583 7.8126 10.4781 8.07503 10.7031 8.41174C10.928 8.74845 11.0481 9.14431 11.0481 9.54927C11.0471 10.092 10.8311 10.6122 10.4473 10.996C10.0636 11.3797 9.54335 11.5958 9.00063 11.5968ZM9.00063 8.62677C8.81817 8.62677 8.63982 8.68087 8.48811 8.78224C8.33641 8.88361 8.21817 9.02768 8.14835 9.19625C8.07853 9.36481 8.06026 9.55029 8.09585 9.72924C8.13145 9.90819 8.21931 10.0726 8.34832 10.2016C8.47733 10.3306 8.64171 10.4185 8.82066 10.454C8.9996 10.4896 9.18509 10.4714 9.35365 10.4016C9.52222 10.3317 9.66629 10.2135 9.76766 10.0618C9.86902 9.91008 9.92313 9.73172 9.92313 9.54927C9.92313 9.30461 9.82593 9.06997 9.65293 8.89697C9.47993 8.72396 9.24529 8.62677 9.00063 8.62677Z" fill="white"/>
<path d="M9 14.4992C8.85082 14.4992 8.70774 14.44 8.60225 14.3345C8.49676 14.229 8.4375 14.0859 8.4375 13.9367V11.0342C8.4375 10.8851 8.49676 10.742 8.60225 10.6365C8.70774 10.531 8.85082 10.4717 9 10.4717C9.14918 10.4717 9.29226 10.531 9.39775 10.6365C9.50324 10.742 9.5625 10.8851 9.5625 11.0342V13.9367C9.5625 14.0859 9.50324 14.229 9.39775 14.3345C9.29226 14.44 9.14918 14.4992 9 14.4992Z" fill="white"/>
</svg>
