<svg width="363" height="167" viewBox="0 0 363 167" fill="none" xmlns="http://www.w3.org/2000/svg">
<path d="M250.391 147.874C255.158 149.589 260.29 148.468 265.787 144.51C259.135 143.216 254.003 144.337 250.391 147.874Z" fill="#1D6468"/>
<path d="M257.695 141.587C262.071 143.064 266.727 142.253 271.662 138.547C265.576 137.484 260.92 138.295 257.695 141.587Z" fill="#1D6468"/>
<path d="M264.605 135.59C268.983 135.883 272.988 133.729 276.621 129.127C270.77 129.619 266.765 131.774 264.605 135.59Z" fill="#1D6468"/>
<path d="M279.615 120.574C274.896 122.116 272.014 124.669 270.969 128.231C274.64 127.616 277.522 125.063 279.615 120.574Z" fill="#1D6468"/>
<path d="M279.396 113.837C275.738 115.809 273.743 118.336 273.41 121.419C276.336 120.375 278.332 117.848 279.396 113.837Z" fill="#1D6468"/>
<path d="M272.19 118.404C274.549 116.384 275.509 113.309 275.068 109.179C272.358 112.332 271.399 115.407 272.19 118.404Z" fill="#1D6468"/>
<path d="M252.875 132.309C249.183 138.062 248.333 143.293 250.323 148.003C253.693 144.174 254.543 138.942 252.875 132.309Z" fill="#1D6468"/>
<path d="M261.629 136.955C263.157 133.066 262.351 128.804 259.21 124.169C257.985 129.623 258.792 133.885 261.629 136.955Z" fill="#1D6468"/>
<path d="M263.969 119.437C262.899 124.183 263.6 127.891 266.073 130.562C267.406 127.179 266.704 123.47 263.969 119.437Z" fill="#1D6468"/>
<path d="M269.221 124.163C270.545 120.78 269.844 117.072 267.117 113.038C266.048 117.787 266.749 121.495 269.221 124.163Z" fill="#1D6468"/>
<path d="M241.812 153.95C252.118 147.574 251.115 147.58 256.704 142.709C258.216 141.394 259.62 140.062 260.917 138.712C263.54 135.914 265.851 132.84 267.811 129.543C270.186 125.726 271.557 122.647 271.922 120.307L272.079 120.043C272.15 119.986 272.171 119.886 272.128 119.805C272.137 119.716 272.109 119.626 272.05 119.558C271.969 119.509 271.878 119.479 271.784 119.472C271.694 119.462 271.605 119.491 271.536 119.55L271.391 119.678C271.344 119.76 271.313 119.851 271.302 119.945L271.26 119.958L271.246 120.164C270.84 122.443 269.493 125.435 267.206 129.139C265.245 132.388 262.934 135.413 260.315 138.159C259.013 139.552 257.639 140.877 256.201 142.129L255.824 142.453C258.32 138.59 258.383 133.812 256.012 128.119C253.488 133.739 253.425 138.517 255.824 142.453C250.305 147.207 251.472 147.06 241.422 153.272L241.812 153.95Z" fill="#1D6468"/>
<path d="M133.527 152.245C137.887 153.814 142.581 152.788 147.609 149.168C141.525 147.984 136.831 149.01 133.527 152.245Z" fill="#1D6468"/>
<path d="M140.184 146.255C144.329 147.067 148.416 145.495 152.444 141.54C146.797 141.31 142.71 142.882 140.184 146.255Z" fill="#1D6468"/>
<path d="M146.648 139.93C150.657 140.113 154.278 138.065 157.511 133.786C152.17 134.35 148.55 136.398 146.648 139.93Z" fill="#1D6468"/>
<path d="M159.869 126.079C155.553 127.49 152.917 129.825 151.961 133.083C155.318 132.521 157.954 130.186 159.869 126.079Z" fill="#1D6468"/>
<path d="M159.671 119.918C156.325 121.721 154.5 124.032 154.195 126.853C156.872 125.898 158.697 123.586 159.671 119.918Z" fill="#1D6468"/>
<path d="M153.081 124.095C155.239 122.247 156.117 119.435 155.714 115.657C153.235 118.541 152.357 121.354 153.081 124.095Z" fill="#1D6468"/>
<path d="M134.58 136.958C131.203 142.22 130.425 147.005 132.246 151.312C135.327 147.81 136.106 143.025 134.58 136.958Z" fill="#1D6468"/>
<path d="M143.625 140.305C145.023 136.747 144.286 132.849 141.413 128.609C140.293 133.598 141.03 137.497 143.625 140.305Z" fill="#1D6468"/>
<path d="M145.561 125.039C144.582 129.38 145.223 132.772 147.485 135.215C148.704 132.121 148.062 128.729 145.561 125.039Z" fill="#1D6468"/>
<path d="M150.363 129.362C151.575 126.268 150.933 122.876 148.439 119.187C147.461 123.53 148.102 126.922 150.363 129.362Z" fill="#1D6468"/>
<path d="M125.294 156.607C134.721 150.775 133.803 150.781 138.916 146.325C140.298 145.122 141.582 143.904 142.769 142.67C145.168 140.11 147.282 137.298 149.074 134.283C151.247 130.792 152.5 127.976 152.835 125.835L152.978 125.594C153.044 125.542 153.062 125.45 153.023 125.376C153.031 125.294 153.005 125.212 152.951 125.15C152.878 125.105 152.794 125.078 152.708 125.072C152.626 125.063 152.544 125.089 152.482 125.143L152.349 125.26C152.305 125.335 152.278 125.418 152.267 125.504L152.229 125.516L152.217 125.704C151.845 127.789 150.613 130.526 148.521 133.914C146.727 136.885 144.614 139.652 142.218 142.164C141.027 143.438 139.771 144.65 138.455 145.795L138.111 146.091C140.393 142.558 140.451 138.188 138.282 132.981C135.973 138.121 135.916 142.491 138.111 146.091C133.062 150.439 134.13 150.305 124.938 155.987L125.294 156.607Z" fill="#1D6468"/>
<path d="M20.5111 104.528C20.5111 104.528 18.271 108.464 21.6608 115.561C25.1164 122.792 24.399 127.8 24.399 127.8L27.604 130.591C27.604 130.591 28.3143 122.971 25.2611 117.293C21.4307 110.189 20.5111 104.528 20.5111 104.528Z" fill="#1D6468"/>
<path d="M10.901 106.628C10.901 106.628 10.2727 109.906 14.1457 114.527C18.1028 119.231 18.7265 123.037 18.7265 123.037L21.3977 125.223C21.3977 125.223 20.3004 118.812 16.9627 115.174C12.7932 110.621 10.901 106.628 10.901 106.628Z" fill="#1D6468"/>
<path d="M27.4531 112.136C27.4531 112.136 30.3736 114.212 32.1584 122.51C33.6138 129.273 32.0356 132.788 32.9528 136.932L28.8357 132.394C28.6132 129.459 30.5184 127.545 29.4957 121.349C28.54 115.548 27.4531 112.136 27.4531 112.136Z" fill="#1D6468"/>
<path d="M53.5827 137.42C53.5827 137.42 54.8508 140.783 51.7053 148.658C49.1426 155.085 45.7674 155.908 45.1032 157.39L43.6875 154.118C45.5086 151.603 47.5362 151.928 50.1424 146.214C52.5821 140.852 53.5827 137.42 53.5827 137.42Z" fill="#1D6468"/>
<path d="M34.2617 117.374C34.2617 117.374 36.2257 123.24 36.651 126.972C37.2656 132.276 35.1449 135.092 35.3833 140.555L39.5753 146.455C39.5753 146.455 40.9088 138.43 39.8887 131.915C38.1777 120.983 34.2617 117.374 34.2617 117.374Z" fill="#1D6468"/>
<path d="M44.3631 120.208C43.748 123.624 43.636 127.111 44.0304 130.559C45.3004 140.999 39.7227 148.85 39.7227 148.85L41.8834 150.954C41.8834 150.954 48.6726 145.509 47.3598 136.771C45.9621 127.539 44.3631 120.208 44.3631 120.208Z" fill="#1D6468"/>
<path d="M29.0517 133.136C29.0517 133.136 26.5963 132.245 16.358 133.477C9.79718 134.269 11.7317 131.798 5.53125 133.628C10.2364 134.076 11.8167 137.525 17.9618 137.144C22.8763 136.835 27.8074 136.912 32.7099 137.374L29.0517 133.136Z" fill="#1D6468"/>
<path d="M9.16797 139.65C9.16797 139.65 13.1504 144.734 22.2295 144.148C27.8178 143.802 33.425 144.377 38.8268 145.85L36.1207 141.259C36.1207 141.259 32.3802 138.504 22.9982 140.019C16.5524 141.059 9.16797 139.65 9.16797 139.65Z" fill="#1D6468"/>
<path d="M14.5156 148.311C14.5156 148.311 18.498 153.396 27.5772 152.81C33.1654 152.464 38.7727 153.038 44.1745 154.512L41.4683 149.921C41.4683 149.921 37.7278 147.165 28.346 148.681C21.8999 149.721 14.5156 148.311 14.5156 148.311Z" fill="#1D6468"/>
<path d="M2.87109 122.992C2.87109 122.992 5.74871 125.636 11.4724 125.05C17.2766 124.453 21.5321 125.731 21.5321 125.731L19.9119 124.012C19.9119 124.012 17.5478 122.27 11.6173 123.226C7.53911 123.882 2.87109 122.992 2.87109 122.992Z" fill="#1D6468"/>
<path d="M23.9721 128.545C23.9721 128.545 19.508 128.062 12.9385 128.594C8.79273 128.917 3.30078 126.385 3.30078 126.385C3.30078 126.385 7.50801 132.349 13.7089 131.478C20.8193 130.477 27.83 131.483 27.83 131.483L23.9721 128.545Z" fill="#1D6468"/>
<path d="M20.3405 124.701C20.3405 124.701 16.6717 118.854 10.4496 117.657C6.76823 116.916 3.23645 115.565 0 113.66C0 113.66 3.40402 119.692 9.23321 120.175C14.6131 120.636 18.324 124.215 18.324 124.215L20.3405 124.701Z" fill="#1D6468"/>
<path d="M44.601 157.492L45.5392 157.108C43.1699 151.322 32.4416 132.502 18.8439 123.06L18.2656 123.893C31.6741 133.205 42.2598 151.78 44.601 157.492Z" fill="#1D6468"/>
<path d="M210.093 111.043C210.093 111.043 208.371 114.069 210.977 119.527C213.635 125.087 213.083 128.938 213.083 128.938L215.548 131.085C215.548 131.085 216.094 125.225 213.746 120.858C210.801 115.396 210.093 111.043 210.093 111.043Z" fill="#1D6468"/>
<path d="M202.705 112.657C202.705 112.657 202.222 115.178 205.2 118.732C208.243 122.349 208.723 125.276 208.723 125.276L210.777 126.957C210.777 126.957 209.933 122.027 207.366 119.229C204.16 115.728 202.705 112.657 202.705 112.657Z" fill="#1D6468"/>
<path d="M215.43 116.893C215.43 116.893 217.675 118.489 219.048 124.871C220.167 130.071 218.954 132.774 219.659 135.961L216.493 132.472C216.322 130.214 217.787 128.742 217 123.978C216.266 119.516 215.43 116.893 215.43 116.893Z" fill="#1D6468"/>
<path d="M235.523 136.336C235.523 136.336 236.498 138.922 234.08 144.978C232.109 149.92 229.514 150.554 229.003 151.693L227.914 149.177C229.315 147.243 230.874 147.493 232.878 143.099C234.754 138.975 235.523 136.336 235.523 136.336Z" fill="#1D6468"/>
<path d="M220.668 120.921C220.668 120.921 222.178 125.432 222.505 128.302C222.978 132.381 221.347 134.546 221.53 138.747L223.754 141.499C223.754 141.499 225.779 137.113 224.995 132.103C223.679 123.696 220.668 120.921 220.668 120.921Z" fill="#1D6468"/>
<path d="M228.858 123.253C228.385 125.879 228.298 128.561 228.602 131.212C229.578 139.241 225.289 145.278 225.289 145.278L226.951 146.896C226.951 146.896 232.172 142.709 231.162 135.989C230.087 128.89 228.858 123.253 228.858 123.253Z" fill="#1D6468"/>
<path d="M216.661 133.042C216.661 133.042 214.773 132.357 206.9 133.304C201.855 133.913 203.342 132.013 198.574 133.421C202.193 133.765 203.408 136.417 208.133 136.124C211.912 135.887 215.704 135.946 219.474 136.301L216.661 133.042Z" fill="#1D6468"/>
<path d="M201.367 138.051C201.367 138.051 204.43 141.961 211.411 141.51C215.709 141.244 220.021 141.686 224.175 142.819L222.094 139.288C222.094 139.288 219.217 137.169 212.003 138.335C207.046 139.135 201.367 138.051 201.367 138.051Z" fill="#1D6468"/>
<path d="M205.484 144.712C205.484 144.712 208.547 148.622 215.529 148.171C219.826 147.905 224.138 148.347 228.292 149.48L226.211 145.949C226.211 145.949 223.334 143.83 216.12 144.996C211.163 145.796 205.484 144.712 205.484 144.712Z" fill="#1D6468"/>
<path d="M196.527 125.242C196.527 125.242 198.74 127.274 203.142 126.824C207.605 126.365 210.878 127.347 210.878 127.347L209.632 126.026C209.632 126.026 207.814 124.686 203.253 125.421C200.117 125.926 196.527 125.242 196.527 125.242Z" fill="#1D6468"/>
<path d="M212.756 129.512C212.756 129.512 209.323 129.14 204.271 129.549C201.083 129.797 196.859 127.85 196.859 127.85C196.859 127.85 200.095 132.437 204.863 131.767C210.331 130.997 215.722 131.771 215.722 131.771L212.756 129.512Z" fill="#1D6468"/>
<path d="M209.962 126.555C209.962 126.555 207.141 122.059 202.356 121.138C199.525 120.568 196.809 119.53 194.32 118.065C194.32 118.065 196.938 122.703 201.42 123.075C205.558 123.43 208.411 126.181 208.411 126.181L209.962 126.555Z" fill="#1D6468"/>
<path d="M228.619 151.771L229.34 151.476C227.518 147.026 219.268 132.554 208.812 125.294L208.367 125.934C218.678 133.095 226.818 147.379 228.619 151.771Z" fill="#1D6468"/>
<path d="M301.88 122.206C301.88 122.206 302.758 125.541 298.874 130.101C294.916 134.746 294.464 138.572 294.464 138.572L291.559 139.999C291.559 139.999 292.527 134.252 295.886 130.67C300.095 126.193 301.88 122.206 301.88 122.206Z" fill="#1D6468"/>
<path d="M308.544 125.632C308.544 125.632 308.365 128.168 304.611 130.811C300.777 133.499 299.574 136.177 299.574 136.177L297.18 137.263C297.18 137.263 299.242 132.76 302.411 130.735C306.37 128.201 308.544 125.632 308.544 125.632Z" fill="#1D6468"/>
<path d="M295.283 126.447C295.283 126.447 292.728 127.403 289.79 133.161C287.395 137.853 287.869 140.748 286.383 143.619L290.301 141.085C291.039 138.968 290.012 137.187 291.977 132.827C293.816 128.745 295.283 126.447 295.283 126.447Z" fill="#1D6468"/>
<path d="M271.104 139.94C271.104 139.94 269.513 142.167 270.286 148.579C270.915 153.809 273.237 155.076 273.436 156.297L275.118 154.166C274.27 151.958 272.715 151.801 271.915 147.085C271.169 142.662 271.104 139.94 271.104 139.94Z" fill="#1D6468"/>
<path d="M289.246 128.969C289.246 128.969 286.653 132.902 285.61 135.565C284.119 139.348 285.129 141.836 283.884 145.81L281.056 147.878C281.056 147.878 280.233 143.164 282.259 138.57C285.658 130.859 289.246 128.969 289.246 128.969Z" fill="#1D6468"/>
<path d="M281.259 129.077C281.043 131.712 280.443 134.3 279.478 136.76C276.5 144.195 279.069 151.065 279.069 151.065L277.067 152.19C277.067 152.19 273.136 146.854 275.812 140.681C278.648 134.159 281.259 129.077 281.259 129.077Z" fill="#1D6468"/>
<path d="M289.994 141.589C289.994 141.589 291.976 141.414 299.27 144.324C303.943 146.191 303.003 143.994 307.208 146.555C303.658 145.963 301.819 148.192 297.372 146.708C293.815 145.519 290.171 144.611 286.473 143.991L289.994 141.589Z" fill="#1D6468"/>
<path d="M303.354 150.274C303.354 150.274 299.427 153.237 292.86 151.029C288.815 149.68 284.576 149.005 280.312 149.032L283.203 146.183C283.203 146.183 286.495 144.888 293.103 147.84C297.643 149.866 303.354 150.274 303.354 150.274Z" fill="#1D6468"/>
<path d="M297.721 155.602C297.721 155.602 293.795 158.564 287.227 156.356C283.183 155.007 278.943 154.333 274.68 154.36L277.57 151.511C277.57 151.511 280.862 150.215 287.47 153.167C292.01 155.194 297.721 155.602 297.721 155.602Z" fill="#1D6468"/>
<path d="M311.25 139.248C311.25 139.248 308.615 140.63 304.517 139.078C300.363 137.503 296.98 137.611 296.98 137.611L298.509 136.663C298.509 136.663 300.59 135.844 304.768 137.708C307.641 138.989 311.25 139.248 311.25 139.248Z" fill="#1D6468"/>
<path d="M294.633 139.204C294.633 139.204 298.013 139.722 302.744 141.399C305.731 142.449 310.269 141.66 310.269 141.66C310.269 141.66 306.005 145.226 301.612 143.371C296.575 141.243 291.219 140.612 291.219 140.612L294.633 139.204Z" fill="#1D6468"/>
<path d="M298.059 137.086C298.059 137.086 301.903 133.501 306.716 133.838C309.571 134.013 312.435 133.71 315.189 132.941C315.189 132.941 311.504 136.714 307.119 135.929C303.069 135.215 299.638 137.123 299.638 137.123L298.059 137.086Z" fill="#1D6468"/>
<path d="M273.787 156.47L273.172 156.004C276.048 152.209 287.627 140.459 299.482 136.172L299.745 136.898C288.054 141.127 276.628 152.725 273.787 156.47Z" fill="#1D6468"/>
<path d="M150.905 37.0055C150.375 36.0677 149.725 35.1101 148.974 34.1593C148.689 33.7986 148.75 33.2749 149.111 32.9899C149.472 32.7048 149.996 32.7663 150.281 33.1272C151.084 34.1448 151.782 35.1738 152.354 36.1859C152.581 36.5862 152.44 37.0942 152.04 37.3205C151.946 37.3735 151.847 37.4063 151.746 37.4205C151.417 37.4668 151.078 37.3124 150.905 37.0055ZM146.658 31.5834C145.828 30.7677 144.948 30.0041 144.043 29.3138C143.677 29.035 143.607 28.5125 143.886 28.1469C144.165 27.7812 144.687 27.7109 145.053 27.9897C146.013 28.7218 146.946 29.5314 147.826 30.3958C148.153 30.7181 148.158 31.2452 147.836 31.5732C147.702 31.709 147.534 31.7894 147.359 31.814C147.111 31.8489 146.851 31.7723 146.658 31.5834ZM104.525 34.2166C104.066 34.2457 103.671 33.8972 103.642 33.4384C103.612 32.9794 103.961 32.5838 104.42 32.5546C105.504 32.4857 106.665 32.3394 107.862 32.1209C108.314 32.0383 108.748 32.338 108.831 32.7904C108.913 33.2427 108.613 33.6764 108.161 33.759C107.695 33.8442 107.229 33.9198 106.777 33.9836C106.007 34.0922 105.25 34.1706 104.525 34.2166ZM110.686 32.3607C110.564 31.9171 110.825 31.4591 111.269 31.3376C112.355 31.0402 113.483 30.6879 114.622 30.2902C115.056 30.1384 115.531 30.3678 115.682 30.8019C115.834 31.236 115.605 31.7109 115.171 31.8625C113.996 32.2725 112.831 32.6363 111.709 32.9437C111.674 32.9533 111.639 32.9604 111.604 32.9654C111.195 33.0231 110.798 32.7693 110.686 32.3607ZM100.821 34.1589C99.4918 34.0187 98.2558 33.7385 97.1477 33.3262C96.7168 33.1659 96.4974 32.6864 96.6578 32.2554C96.8182 31.8244 97.2976 31.605 97.7285 31.7654C98.7058 32.1291 99.8052 32.3771 100.996 32.5028C101.453 32.551 101.785 32.9609 101.737 33.4181C101.696 33.8058 101.395 34.1033 101.026 34.1554C100.959 34.1649 100.891 34.1663 100.821 34.1589ZM141.163 27.4138C140.133 26.8363 139.086 26.3561 138.05 25.987C137.616 25.8326 137.39 25.3564 137.545 24.9232C137.699 24.49 138.175 24.2641 138.609 24.4184C139.733 24.8189 140.866 25.3381 141.978 25.9614C142.379 26.1863 142.521 26.6937 142.297 27.0949C142.164 27.3306 141.935 27.4771 141.686 27.5122C141.512 27.5369 141.328 27.5066 141.163 27.4138ZM117.461 30.1207C117.285 29.696 117.486 29.2087 117.911 29.0325C118.979 28.5894 120.062 28.1064 121.13 27.5969C121.546 27.399 122.043 27.5751 122.24 27.9902C122.438 28.4053 122.262 28.9022 121.847 29.1001C120.753 29.6218 119.643 30.1166 118.549 30.5705C118.482 30.5983 118.414 30.6166 118.346 30.6263C117.979 30.6782 117.609 30.4787 117.461 30.1207ZM123.938 27.1281C123.72 26.7235 123.871 26.2183 124.275 25.9998C124.664 25.79 125.045 25.5795 125.417 25.369C126.114 24.9749 126.835 24.6344 127.561 24.3571C127.99 24.1928 128.472 24.408 128.636 24.8376C128.8 25.2671 128.585 25.7484 128.155 25.9127C127.507 26.1604 126.862 26.4653 126.236 26.8187C125.855 27.0344 125.465 27.2501 125.067 27.465C124.977 27.5133 124.883 27.5437 124.788 27.557C124.453 27.6044 124.109 27.4431 123.938 27.1281ZM93.8263 31.4119C92.9613 30.6821 92.2132 29.8049 91.6026 28.8048C91.363 28.4123 91.4869 27.8999 91.8793 27.6602C92.2718 27.4206 92.7843 27.5444 93.0239 27.937C93.541 28.7841 94.1724 29.5249 94.9003 30.1393C95.2517 30.4359 95.2961 30.9612 94.9997 31.3126C94.8622 31.4754 94.6757 31.5725 94.48 31.6001C94.2535 31.6321 94.0149 31.5712 93.8263 31.4119ZM134.76 25.1743C133.626 25.0206 132.498 25.0034 131.407 25.1234C130.95 25.1737 130.538 24.8439 130.488 24.3867C130.438 23.9296 130.768 23.5183 131.225 23.468C132.451 23.3332 133.716 23.3521 134.984 23.5241C135.439 23.5858 135.759 24.0054 135.697 24.4611C135.646 24.8389 135.349 25.123 134.989 25.1738C134.915 25.1844 134.838 25.1849 134.76 25.1743Z" fill="white"/>
<path d="M152.691 34.1575L151.102 37.7993L170.417 47.4211L152.691 34.1575Z" fill="#BEBCB5"/>
<path d="M149.836 42.082L151.434 45.7884L169.556 46.9737L149.836 42.082Z" fill="#BEBCB5"/>
<path d="M170.418 47.4212L139.242 41.3624L149.045 36.3248L170.418 47.4212Z" fill="white"/>
<path d="M152.691 34.1575L170.416 47.4212L158.789 30.5353L152.691 34.1575Z" fill="white"/>
<path d="M192.916 166.88C286.524 166.88 362.407 163.343 362.407 158.979C362.407 154.615 286.524 151.077 192.916 151.077C99.3093 151.077 23.4258 154.615 23.4258 158.979C23.4258 163.343 99.3093 166.88 192.916 166.88Z" fill="#EFEFEF"/>
<path d="M109.367 158.43L50.7462 158.467C45.29 158.471 40.3209 154.05 39.6475 148.593L23.5018 17.7712C22.8283 12.3145 26.7055 7.8882 32.1618 7.88484L90.7824 7.84772C96.2386 7.84417 101.208 12.2649 101.881 17.7216L118.027 148.544C118.7 154 114.823 158.426 109.367 158.43Z" fill="#152347"/>
<path d="M114.812 158.43L56.1916 158.467C50.7354 158.471 45.7663 154.05 45.0929 148.593L28.9471 17.7711C28.2737 12.3144 32.1508 7.88813 37.6071 7.88478L96.2277 7.84766C101.684 7.84411 106.653 12.2649 107.326 17.7215L123.472 148.544C124.146 154 120.268 158.426 114.812 158.43Z" fill="black"/>
<path d="M111.911 154.263L58.0628 154.297C53.807 154.3 49.9312 150.852 49.406 146.596L33.864 20.6659C33.3386 16.4097 36.3629 12.9573 40.6187 12.9546L94.467 12.9205C98.7229 12.9178 102.599 16.366 103.124 20.6221L118.666 146.552C119.191 150.808 116.167 154.26 111.911 154.263Z" fill="white"/>
<path d="M109.625 148.612L58.929 148.645C55.6419 148.647 52.6483 145.984 52.2426 142.696L50.9228 131.996L50.353 127.372L49.2548 118.47L40.7921 49.8356L37.5692 23.699C37.1635 20.4119 39.4991 17.7444 42.7862 17.7426L50.497 17.7388L50.6457 18.9416C50.9209 21.1543 52.9352 22.9462 55.149 22.9441L83.8465 22.9134C86.0594 22.9115 87.6305 21.115 87.3562 18.9022L87.2094 17.7147L93.4834 17.7109C96.7695 17.708 99.7631 20.3726 100.17 23.6597L101.054 30.8315L114.842 142.656C115.249 145.945 112.912 148.611 109.625 148.612Z" fill="#232C48"/>
<path d="M80.626 20.5932H56.4174C55.6372 20.5932 54.9269 19.9607 54.8311 19.1805C54.7352 18.4002 55.2901 17.7678 56.0704 17.7678H80.2789C81.0592 17.7678 81.7694 18.4002 81.8652 19.1805C81.961 19.9607 81.4061 20.5932 80.626 20.5932Z" fill="#8197DB"/>
<path d="M109.624 148.612L58.9281 148.645C55.641 148.647 52.6474 145.984 52.2417 142.696L50.9219 131.996L114.841 142.656C115.248 145.945 112.911 148.611 109.624 148.612Z" fill="#2F3958"/>
<path d="M216.617 102.545L214.766 101.994L216.235 98.3591L218.659 98.8159L216.617 102.545Z" fill="#735349"/>
<path d="M218.865 102.248C218.989 100.266 221.345 99.1154 221.454 99.8338C221.581 100.674 221.246 101.93 221.246 101.93C221.795 102.201 224.321 101.247 223.198 98.0482L224.066 96.6727L222.198 95.1732L220.963 95.9147C217.083 96.8821 216.52 98.1176 216.38 101.192C216.243 104.217 218.749 104.112 218.865 102.248Z" fill="#BB7E61"/>
<path d="M221.179 100.035C221.117 100.059 221.053 100.07 220.988 100.074C220.993 100.084 220.998 100.094 221.002 100.105C221.25 100.729 221.088 101.379 220.64 101.556C220.567 101.586 220.49 101.599 220.412 101.6C220.429 102.027 220.256 102.395 219.936 102.522C219.809 102.572 219.673 102.578 219.537 102.548C219.582 102.973 219.392 103.37 219.034 103.512C218.586 103.69 218.052 103.402 217.84 102.869C217.628 102.337 217.82 101.761 218.268 101.583C218.381 101.538 218.5 101.523 218.618 101.534C218.464 100.969 218.634 100.423 219.039 100.262C219.112 100.233 219.189 100.219 219.267 100.218C219.25 99.7912 219.423 99.4232 219.743 99.2963C219.86 99.2496 219.986 99.2412 220.112 99.2641C220.056 98.8882 220.217 98.5301 220.532 98.4053C220.91 98.2553 221.362 98.4984 221.54 98.9483C221.719 99.3981 221.557 99.8846 221.179 100.035Z" fill="#735349"/>
<path d="M217.754 97.2179C217.848 96.677 218.391 95.5763 219.367 95.4721C220.343 95.3679 221.669 97.1831 220.884 97.2179C220.099 97.2528 219.463 96.5783 219.463 96.5783L217.754 97.2179Z" fill="#735349"/>
<path d="M251.319 57.4587C245.623 57.4751 239.82 59.7621 239.962 70.6313C240.105 81.5003 239.154 91.8951 236.148 93.4963C239.002 96.2511 259.147 102.035 267.194 94.681C263.615 90.3271 261.587 75.5612 261.587 71.5552C261.587 66.0973 260.063 57.4334 251.319 57.4587Z" fill="#201D40"/>
<path d="M255.84 153.913C255.581 151.325 258.693 131.712 258.693 131.712C262.469 114.398 259.209 101.923 259.209 101.923L248.871 111.212L251.374 128.502C251.374 128.502 250.919 129.76 250.678 130.766C249.375 136.22 250.673 142.738 251.476 147.083C251.848 149.096 252.426 153.327 252.441 154.289L250.811 156.397C250.811 156.397 256.711 162.927 257.619 162.969C259.384 163.048 258.864 161.301 258.864 161.301C256.438 158.81 255.915 154.654 255.84 153.913Z" fill="#BB7E61"/>
<path d="M250.709 158.711L251.034 162.907L251.788 162.941L252.169 159.044C254.177 159.556 255.615 163.199 255.615 163.199C256.997 163.695 260.512 164.035 261.763 163.391C262.065 162.165 258.858 161.305 258.858 161.305C258.568 161.649 256.856 161.911 256.248 161.544C254.009 159.638 252.918 156.866 252.44 154.289C252.44 154.289 248.903 154.536 250.709 158.711Z" fill="#201D40"/>
<path d="M242.411 105.932C239.521 113.085 239.162 123.561 238.977 127.257C232.44 128.389 219.64 138.056 219.64 138.056L217.266 138.177C217.266 138.177 216.274 145.962 216.773 146.6C217.744 147.841 218.625 146.474 218.625 146.474C218.902 143.386 220.866 141.145 221.268 140.616C221.871 139.821 241.555 134.962 245.446 133.302C249.337 131.641 252.99 106.634 252.99 106.634L242.411 105.932Z" fill="#BB7E61"/>
<path d="M215.643 139.452L212.992 142.109L213.407 142.639L216.265 140.634C217.084 142.29 215.454 145.379 215.454 145.379C215.922 146.602 217.732 149.178 218.895 149.65C219.9 149.143 218.619 146.473 218.619 146.473C218.219 146.476 217.046 145.471 216.942 144.846C216.932 142.224 218.173 139.876 219.641 138.056C219.641 138.056 217.419 135.806 215.643 139.452Z" fill="#201D40"/>
<path d="M256.94 77.8447C256.94 77.8447 262.611 82.4029 267.195 88.3051C268.458 90.3952 269.7 94.2425 269.7 94.2425C268.12 94.7823 254.307 83.7643 254.307 83.7643C254.307 83.7643 252.471 82.8629 253.138 80.5157C253.858 77.9836 256.94 77.8447 256.94 77.8447Z" fill="#BB7E61"/>
<path d="M252.647 74.3271L248.695 73.7352L249.01 77.4035C249.01 77.4035 251.012 81.0101 252.911 80.3889C254.809 79.7678 253.883 78.1746 253.883 78.1746L252.647 74.3271Z" fill="#735349"/>
<path d="M247.024 70.6119C248.593 74.9415 250.987 76.9563 254.453 76.2139C257.316 75.6003 259.642 70.9572 258.422 66.6128C257.202 62.2685 253.447 59.5233 250.035 60.4813C246.623 61.4394 245.487 66.3693 247.024 70.6119Z" fill="#BB7E61"/>
<path d="M250.607 68.8822C250.653 68.8617 250.694 68.8258 250.719 68.7774C251.087 68.0727 251.996 67.9755 252.006 67.9745C252.133 67.9621 252.226 67.8489 252.214 67.7216C252.202 67.5942 252.001 67.3833 251.763 67.4309C251.717 67.4403 250.748 67.5435 250.261 68.4746C250.202 68.5882 250.292 68.8159 250.406 68.8753C250.471 68.9094 250.545 68.9095 250.607 68.8822Z" fill="#201D40"/>
<path d="M257.675 67.2602C257.697 67.2482 257.717 67.2326 257.735 67.2132C257.821 67.1187 257.815 66.9719 257.72 66.8854C256.986 66.2141 256.126 66.5376 256.089 66.5517C255.97 66.5981 255.911 66.7327 255.957 66.8521C256.003 66.9711 256.137 67.0303 256.256 66.9847C256.285 66.9741 256.891 66.7557 257.407 67.2279C257.482 67.2966 257.591 67.3066 257.675 67.2602Z" fill="#201D40"/>
<path d="M254.763 69.5508C255.097 69.8695 255.393 70.1998 255.708 70.3816C255.814 70.4429 255.852 70.5795 255.796 70.6884C255.565 71.1383 254.854 71.5289 254.417 71.7351C254.353 71.7651 254.297 71.6822 254.348 71.6336C254.781 71.2228 254.963 70.9257 255.038 70.7635C255.075 70.6828 255.07 70.5898 255.027 70.5122C254.928 70.3341 254.731 69.9706 254.595 69.6687C254.548 69.5642 254.68 69.4719 254.763 69.5508Z" fill="#735349"/>
<path d="M252.799 73.462C252.664 73.348 252.729 73.129 252.904 73.1093C253.35 73.0589 254.084 72.9607 254.769 72.7995C255.453 72.6383 256.154 72.3988 256.576 72.2449C256.742 72.1844 256.897 72.3512 256.828 72.5133C256.613 73.012 256.114 73.8095 255.065 74.0565C254.015 74.3036 253.213 73.8125 252.799 73.462Z" fill="white"/>
<path d="M244.59 70.7077C248.679 69.9979 254.264 65.0789 254.652 62.9114C253.757 60.3603 250.851 58.7248 248.505 60.0135C246.159 61.3022 242.723 67.526 244.59 70.7077Z" fill="#201D40"/>
<path d="M253.302 64.6015C253.302 64.6015 255.962 65.8444 258.513 66.0973C257.276 63.3059 256.376 61.1849 254.798 60.6616C253.22 60.1384 251.562 60.2234 251.562 60.2234L253.302 64.6015Z" fill="#201D40"/>
<path d="M248.091 69.0258C248.953 69.6444 249.241 70.7179 248.735 71.4234C248.229 72.1289 247.119 72.1994 246.257 71.5807C245.395 70.9619 245.107 69.8885 245.613 69.1831C246.119 68.4776 247.228 68.4071 248.091 69.0258Z" fill="#BB7E61"/>
<path d="M247.699 71.2644C247.73 71.2477 247.757 71.2237 247.778 71.1932C248.083 70.7532 248.094 70.2716 247.809 69.9051C247.517 69.5297 246.995 69.373 246.569 69.5325C246.449 69.5775 246.388 69.711 246.433 69.8311C246.478 69.951 246.611 70.0119 246.731 69.9671C246.965 69.8797 247.277 69.9777 247.443 70.1901C247.602 70.3941 247.585 70.6565 247.396 70.9289C247.324 71.0342 247.35 71.1787 247.455 71.2518C247.53 71.3035 247.624 71.3052 247.699 71.2644Z" fill="#735349"/>
<path d="M255.939 68.2565C255.983 68.6033 256.3 68.8488 256.647 68.8046C256.994 68.7605 257.239 68.4435 257.195 68.0966C257.151 67.7498 256.834 67.5043 256.487 67.5485C256.14 67.5927 255.895 67.9097 255.939 68.2565Z" fill="black"/>
<path d="M251.326 69.5636C251.373 69.9336 251.711 70.1954 252.081 70.1483C252.451 70.1012 252.713 69.763 252.666 69.3929C252.619 69.0229 252.281 68.761 251.911 68.808C251.54 68.8552 251.279 69.1934 251.326 69.5636Z" fill="black"/>
<path d="M265.582 76.6221C265.267 81.871 266.331 88.207 266.13 91.5131L269.698 94.2426C271.586 91.6114 270.551 83.6874 268.273 78.4128C267.373 77.2351 265.582 76.6221 265.582 76.6221Z" fill="#BB7E61"/>
<path d="M268.03 73.0889C268.03 73.0889 268.952 75.002 269.358 76.7599C269.345 76.7991 268.57 77.9113 268.273 78.4127C267.175 77.8024 266.293 77.4935 265.48 76.7044C265.841 73.7963 267.76 73.0924 268.03 73.0889Z" fill="#735349"/>
<path d="M268.499 79.873C267.66 80.0344 266.85 79.4851 266.688 78.6463L265.281 71.3328L268.319 70.7484L269.726 78.0617C269.888 78.9007 269.338 79.7115 268.499 79.873Z" fill="#494C7F"/>
<path d="M269.729 76.8679C269.685 76.8137 269.632 76.7713 269.575 76.7341C269.585 76.7269 269.594 76.7205 269.604 76.7129C270.15 76.2733 270.337 75.5992 270.021 75.2075C269.969 75.1433 269.906 75.0917 269.836 75.0505C270.071 74.6711 270.103 74.2477 269.878 73.968C269.788 73.857 269.668 73.7817 269.529 73.7392C269.788 73.3755 269.819 72.917 269.567 72.6039C269.251 72.2123 268.617 72.1991 268.151 72.5744C267.685 72.9497 267.563 73.5716 267.879 73.9634C267.958 74.0626 268.059 74.1372 268.172 74.1877C267.741 74.6218 267.614 75.2063 267.9 75.5606C267.952 75.6249 268.015 75.6764 268.085 75.7176C267.85 76.0972 267.818 76.5205 268.043 76.8002C268.126 76.9033 268.236 76.9758 268.363 77.0198C268.118 77.3323 268.081 77.7409 268.302 78.0162C268.569 78.347 269.105 78.3582 269.498 78.0412C269.892 77.7238 269.995 77.1988 269.729 76.8679Z" fill="#BB7E61"/>
<path d="M265.39 76.7246C264.908 75.9721 264.593 73.7453 266.244 72.7724C268.138 71.6562 267.401 73.2523 266.964 73.6091C265.785 74.5709 266.768 75.3418 266.323 76.1949C266.089 76.6436 265.699 77.2074 265.39 76.7246Z" fill="#BB7E61"/>
<path d="M273.016 54.4807C273.016 54.4807 270.664 61.3959 265.555 64.5061C265.721 64.895 268.999 70.4615 268.999 70.4615C268.999 70.4615 275.441 69.1714 281.661 70.9487C279.162 67.061 273.016 54.4807 273.016 54.4807Z" fill="#95A6DB"/>
<path d="M280.21 61.1029C282.562 65.7951 283.379 70.1445 282.036 70.8174C280.694 71.4904 277.699 68.232 275.348 63.5398C272.996 58.8476 272.178 54.4981 273.521 53.8254C274.864 53.1523 277.859 56.4106 280.21 61.1029Z" fill="#494C7F"/>
<path d="M265.836 64.3295C264.614 64.8849 260.749 66.7021 262.285 70.1301C263.517 72.8791 267.279 71.4983 269 70.4615C268.294 69.2592 265.836 64.3295 265.836 64.3295Z" fill="#494C7F"/>
<path d="M274.109 60.7481C274.109 60.7481 276.72 59.2299 278.219 61.507C279.441 63.6731 277.074 65.2265 276.352 65.3931C275.586 64.4637 274.109 60.7481 274.109 60.7481Z" fill="#768FDB"/>
<path d="M237.391 126.527C238.322 123.411 237.299 105.156 245.52 99.092L259.667 100.583C262.936 105.874 262.19 120.675 262.609 133.317C246.661 137.457 248.695 125.76 237.391 126.527Z" fill="#FEE564"/>
<path d="M259.839 97.0916C259.839 93.9936 262.524 89.3523 261.237 86.2247C260.3 83.7089 258.458 78.0332 256.451 77.6499C255.637 77.4945 254.618 77.4076 253.615 77.3392C253.615 77.3392 254.204 79.9665 252.879 80.0728C250.327 80.2775 248.986 77.0065 248.986 77.0065C247.611 76.8751 242.813 78.3069 242.816 78.8249C242.831 82.8832 244.616 89.4458 245.694 93.8334C245.894 96.0675 245.736 97.8005 245.512 99.0648C245.104 100.383 244.605 101.137 244.602 101.422C244.602 101.422 254.059 104.635 260.076 101.322C260.076 101.322 259.839 99.1841 259.839 97.0916Z" fill="#FEE564"/>
<path d="M223.837 96.8641C228.104 93.6371 230.587 89.6155 232.553 86.9499L228.668 83.3835C226.383 85.7081 224.071 90.3255 221.996 95.2971C222.112 96.7751 223.837 96.8641 223.837 96.8641Z" fill="#BB7E61"/>
<path d="M246.404 84.0259C246.404 84.0259 237.393 87.1728 232.553 86.9499C230.165 86.4403 228.668 83.3835 228.668 83.3835L243.857 77.9652C243.857 77.9652 245.771 77.2432 247.026 79.3359C248.38 81.5932 246.404 84.0259 246.404 84.0259Z" fill="#BB7E61"/>
<path d="M310.364 58.7953C310.075 54.8615 311.212 51.3861 314.349 49.6163C317.528 47.8224 321.511 49.5818 321.511 49.5818C321.511 49.5818 324.882 48.3825 327.937 51.7478C330.992 55.1132 328.681 58.0747 329.931 60.5291C330.671 61.9826 334.435 62.2822 333.463 67.0166C333.182 68.382 331.54 69.301 330.149 69.3924C327.705 69.553 325.43 68.6082 324.439 69.553C321.175 72.666 313.941 71.5402 312.928 68.6926C312.615 67.8095 306.107 69.5182 306.756 63.5044C307.085 60.4568 310.622 62.3105 310.364 58.7953Z" fill="#CCCCCC"/>
<path d="M330.197 78.1606C333.503 76.4615 341.091 73.6021 344.289 70.4797L339.378 66.9873C339.378 66.9873 328.153 70.6478 325.653 71.979C323.744 73.5367 326.471 77.4111 330.197 78.1606Z" fill="#FDE467"/>
<path d="M348.868 48.1395C347.665 46.5734 346.988 47.6587 346.364 47.9813C344.621 48.8812 345.83 44.7736 343.911 45.3379C344.422 48.2428 343.251 48.173 344.134 50.9751L343.927 52.1398L346.733 54.2029L347.047 52.9173C348.855 52.1045 350.811 50.5919 348.868 48.1395Z" fill="#735349"/>
<path d="M349.303 48.7764C348.918 47.8309 348.247 47.3808 347.933 47.2298C347.558 47.0597 346.419 47.4687 346.23 47.905C346.041 48.3411 346.176 48.811 346.523 48.9856C346.617 49.0281 346.706 49.0424 346.819 49.024C346.663 49.4837 346.798 49.9536 347.112 50.1046C347.173 50.1236 347.234 50.1426 347.295 50.1615C347.266 50.5135 347.406 50.8379 347.654 50.9418C347.748 50.9843 347.866 50.9941 347.95 50.9802C347.884 51.2805 347.979 51.7243 348.228 51.8283C348.468 52.1617 348.937 52.0003 349.208 51.7214C349.76 51.151 349.954 50.3771 349.303 48.7764Z" fill="#BB7E61"/>
<path d="M343.808 51.8174C343.808 51.8174 340.371 62.6683 339.375 66.9874C338.98 68.7025 342.931 70.2132 344.286 70.4797C345.75 69.0413 346.733 65.4742 347.191 53.523C346.164 52.3459 343.808 51.8174 343.808 51.8174Z" fill="#FDE467"/>
<path d="M311.895 78.1606C308.18 77.1102 299.6 72.934 296.402 69.8116L300.218 66.2316C300.218 66.2316 311.214 69.2786 313.713 70.6099C313.959 72.9017 313.763 76.7845 311.895 78.1606Z" fill="#FDE467"/>
<path d="M291.235 46.7389C292.439 45.1729 293.115 46.258 293.74 46.5807C295.482 47.4805 294.274 43.3731 296.192 43.9373C295.681 46.842 296.852 46.7723 295.969 49.5744L296.176 50.7393L293.37 52.8023L293.057 51.5167C291.248 50.7038 289.292 49.1911 291.235 46.7389Z" fill="#735349"/>
<path d="M290.801 47.3756C291.185 46.4302 291.857 45.9801 292.171 45.8291C292.546 45.659 293.685 46.068 293.874 46.5043C294.063 46.9403 293.928 47.4102 293.581 47.5849C293.487 47.6274 293.398 47.6416 293.285 47.6231C293.441 48.0829 293.306 48.5528 292.992 48.7038C292.931 48.7228 292.87 48.7417 292.809 48.7607C292.838 49.1127 292.698 49.4371 292.449 49.541C292.356 49.5835 292.238 49.5933 292.154 49.5794C292.22 49.8797 292.125 50.3235 291.876 50.4275C291.635 50.7608 291.166 50.5996 290.896 50.3206C290.344 49.7504 290.15 48.9764 290.801 47.3756Z" fill="#BB7E61"/>
<path d="M296.293 50.4169C296.293 50.4169 299.697 61.7794 300.693 66.0984C301.088 67.8135 297.753 69.5449 296.398 69.8116C295.98 68.2054 292.794 63.765 292.909 52.1224C293.937 50.9451 296.293 50.4169 296.293 50.4169Z" fill="#FDE467"/>
<path d="M317.047 63.765V72.7679C317.047 72.7679 320.39 74.3685 323.287 72.7679C322.841 70.7674 322.577 64.3939 322.577 64.3939L317.047 63.765Z" fill="#735349"/>
<path d="M313.364 70.6097H317.047C317.047 70.6097 318.617 73.2176 320.871 73.016C323.125 72.8145 322.987 70.6097 322.987 70.6097L327.528 71.2121C327.528 71.2121 331.022 77.3117 330.484 82.1758C329.913 87.3441 326.25 89.4489 326.448 97.3071C320.683 99.1205 314.951 99.1205 310.949 94.3416C312.398 88.8477 312.476 84.3732 311.338 77.7577C311.931 74.5898 313.364 70.6097 313.364 70.6097Z" fill="#FFF3B7"/>
<path d="M327.228 60.4088C327.228 65.1294 324.382 68.9561 320.87 68.9561C317.358 68.9561 314.512 65.1294 314.512 60.4088C314.512 55.6884 317.358 51.8616 320.87 51.8616C324.382 51.8616 327.228 55.6884 327.228 60.4088Z" fill="#BB7E61"/>
<path d="M314.09 60.4088C317.6 59.96 320.863 58.0042 322.706 55.4768C323.897 58.4309 327.229 60.4088 327.229 60.4088C327.229 60.4088 329.726 54.758 325.185 51.7098C320.852 48.8018 310.516 50.7887 314.09 60.4088Z" fill="#CCCCCC"/>
<path d="M318.195 62.2327C317.822 62.2327 317.52 61.9302 317.52 61.557C317.52 61.1837 317.822 60.8812 318.195 60.8812C318.568 60.8812 318.871 61.1837 318.871 61.557C318.871 61.9301 318.568 62.2327 318.195 62.2327Z" fill="black"/>
<path d="M323.582 62.2327C323.209 62.2327 322.906 61.9302 322.906 61.557C322.906 61.1837 323.209 60.8812 323.582 60.8812C323.955 60.8812 324.258 61.1837 324.258 61.557C324.258 61.9301 323.955 62.2327 323.582 62.2327Z" fill="black"/>
<path d="M324.772 60.9481C324.662 60.9482 324.554 60.8913 324.493 60.789C324.326 60.5076 324.124 60.3389 323.892 60.2877C323.492 60.199 323.095 60.4664 323.091 60.4691C322.943 60.57 322.742 60.5332 322.64 60.3865C322.538 60.2397 322.574 60.0389 322.72 59.9365C322.745 59.9189 323.345 59.5057 324.025 59.6523C324.442 59.7424 324.788 60.0134 325.051 60.4581C325.143 60.6122 325.092 60.8113 324.938 60.9027C324.886 60.9335 324.829 60.9481 324.772 60.9481Z" fill="#CCCCCC"/>
<path d="M316.914 60.9809C316.843 60.9809 316.771 60.9576 316.711 60.9097C316.572 60.7976 316.549 60.5933 316.661 60.4535C317.088 59.921 317.56 59.6312 318.064 59.5922C318.715 59.5417 319.163 59.9432 319.182 59.9604C319.314 60.0813 319.323 60.2866 319.202 60.4189C319.082 60.5505 318.878 60.5602 318.746 60.4413C318.736 60.4332 318.47 60.2082 318.106 60.24C317.791 60.2676 317.475 60.476 317.168 60.8594C317.104 60.9393 317.009 60.9809 316.914 60.9809Z" fill="#CCCCCC"/>
<path d="M321.54 62.444C322.414 63.0741 322.686 63.3328 323.024 63.5429C322.791 64.3232 321.567 64.7107 321.219 64.6207C322.071 64.2005 322.191 63.6313 322.191 63.6313L321.54 62.444Z" fill="#735349"/>
<path d="M314.081 60.2262C314.081 60.2262 313.499 52.4012 321.219 52.0148C324.571 51.847 326.816 54.2029 326.816 54.2029C326.816 54.2029 325.256 50.3336 320.37 50.7723C315.546 51.1711 312.05 54.5458 314.081 60.2262Z" fill="#C4204A"/>
<path d="M315.462 61.0684C316.19 61.9911 316.227 63.177 315.543 63.717C314.859 64.2571 313.714 63.9467 312.985 63.0239C312.257 62.1011 312.22 60.9153 312.904 60.3753C313.588 59.8353 314.733 60.1456 315.462 61.0684Z" fill="#BB7E61"/>
<path d="M314.822 63.0619C314.794 63.0619 314.766 63.0565 314.738 63.045C314.628 62.9984 314.577 62.8715 314.623 62.7614C314.778 62.3956 314.781 62.1013 314.634 61.8868C314.406 61.5555 313.868 61.4532 313.477 61.4662C313.358 61.4704 313.258 61.3766 313.254 61.2572C313.25 61.1377 313.344 61.0377 313.463 61.0337C313.987 61.0163 314.664 61.1667 314.99 61.6416C315.153 61.8782 315.29 62.2937 315.022 62.9297C314.987 63.0123 314.907 63.0619 314.822 63.0619Z" fill="#735349"/>
<path d="M319.182 65.7747C319.092 65.6268 319.22 65.4427 319.39 65.4785C319.822 65.5696 320.537 65.7049 321.225 65.7663C321.913 65.8278 322.641 65.8211 323.082 65.808C323.255 65.8028 323.349 66.0068 323.234 66.1364C322.879 66.5351 322.167 67.1246 321.112 67.0304C320.057 66.9364 319.461 66.23 319.182 65.7747Z" fill="white"/>
<path d="M317.048 70.4796C317.048 70.4796 318.355 72.8067 320.684 73.0263C320.168 73.9159 319.633 74.5904 318.526 74.327C316.452 73.833 317.048 70.4796 317.048 70.4796Z" fill="white"/>
<path d="M322.988 70.6097C322.842 71.1902 323.118 72.8586 320.684 73.0262C320.924 73.4704 321.418 74.7616 322.847 74.3005C324.481 73.7735 323.624 70.9408 322.988 70.6097Z" fill="white"/>
<path d="M294.34 111.822L291.57 114.857C291.57 114.857 290.015 115.171 288.896 115.641C288.683 115.731 288.485 115.826 288.317 115.927C288.311 115.93 288.305 115.934 288.299 115.937C288.094 116.061 287.826 116.217 287.518 116.38C287.339 116.476 287.145 116.574 286.942 116.671C285.723 117.25 284.162 117.767 283.196 117.244C281.003 114.455 284.386 111.041 287.182 109.761C289.978 108.481 290.848 106.593 292.183 107.015C293.518 107.436 294.34 111.822 294.34 111.822Z" fill="#494C7F"/>
<path d="M292.789 110.599C293.332 110.996 295.322 112.617 295.322 112.617L292.62 116.572C292.62 116.572 292.102 115.775 290.892 114.639C288.381 112.283 291.496 109.655 292.789 110.599Z" fill="#BB7E61"/>
<path d="M310.059 124.4C305.938 117.722 294.742 111.359 294.742 111.359C294.742 111.359 292.841 113.897 292.035 116.72C292.035 116.72 302.156 127.654 305.104 130.639C308.08 132.886 312.117 128.431 310.059 124.4Z" fill="#201D40"/>
<path d="M316.231 136.132L314.008 139.351L317.561 140.686L319.83 138.128L316.231 136.132Z" fill="#BB7E61"/>
<path d="M326.242 101.987L316.086 107.571C316.086 107.571 326.236 121.575 332.34 124.938C333.403 125.524 339.21 122.125 339.138 120.905C338.872 116.457 326.242 101.987 326.242 101.987Z" fill="#201D40"/>
<path d="M331.471 118.526C330.36 118.391 316.23 136.132 316.23 136.132C316.23 136.132 318.568 138.143 321.016 139.049C330.945 129.488 335.91 125.62 339.182 121.793C340.387 118.707 335.665 116.377 331.471 118.526Z" fill="#201D40"/>
<path d="M320.583 104.878C320.583 104.878 311.51 95.0161 308.91 97.5183C306.31 100.021 305.748 120.254 304.281 127.847C303.548 131.638 309.134 132.968 310.451 131.13C312.827 127.811 320.583 104.878 320.583 104.878Z" fill="#201D40"/>
<path d="M321.583 147.372C317.227 146.036 314.21 143.463 312.803 142.054C312.273 141.522 312.262 140.665 312.781 140.122C313.496 139.372 314.403 138.461 314.987 137.933C315.102 137.829 315.204 137.741 315.29 137.671L318.662 139.444L318.799 139.516C318.709 140.206 318.859 140.801 319.142 141.333C319.231 141.501 319.333 141.663 319.446 141.819C319.593 142.025 319.758 142.223 319.932 142.414C320.061 142.555 320.195 142.693 320.331 142.829C321.764 144.254 323.411 145.388 321.583 147.372Z" fill="#494C7F"/>
<path d="M307.403 103.309C307.403 103.309 306.789 99.1989 310.951 94.3417C314.463 97.1117 317.975 98.8203 326.45 97.3072C327.135 101.678 326.763 102.933 326.763 102.933L319.667 106.955L307.403 103.309Z" fill="#28244F"/>
<path d="M151.455 110.005C151.455 110.005 149.938 109.614 150.417 109.131C151.185 108.357 151.228 109.431 152.041 109.595C152.763 109.741 151.666 106.164 148.176 106.757C147.669 106.843 146.693 105.971 146.693 105.971L145.598 108.596L145.669 109.139C145.643 111.144 146.611 111.75 147.393 112.23L151.455 110.005Z" fill="#735349"/>
<path d="M126.44 81.7112C123.732 85.7878 125.795 92.1043 130.541 102.319C134.812 102.082 135.791 99.2445 135.791 99.2445C135.791 99.2445 134.778 89.7533 133.913 86.8986C131.838 80.0469 127.745 79.7459 126.44 81.7112Z" fill="#BEBCB5"/>
<path d="M146.926 105.971L135.789 99.2444L130.539 102.319C133.603 105.064 137.466 107.51 145.582 109.365C146.638 107.939 146.926 105.971 146.926 105.971Z" fill="#BEBCB5"/>
<path d="M90.7436 114.408L87.9397 117.48C87.9397 117.48 86.3669 117.797 85.2343 118.273C85.0183 118.364 84.8183 118.461 84.6482 118.562C84.6422 118.565 84.6361 118.57 84.63 118.573C84.4226 118.698 84.1518 118.856 83.84 119.021C83.6585 119.118 83.4619 119.217 83.2566 119.315C82.0228 119.901 80.4436 120.425 79.4658 119.895C77.2467 117.073 80.6708 113.618 83.4996 112.323C86.3291 111.028 87.21 109.117 88.5606 109.544C89.9113 109.971 90.7436 114.408 90.7436 114.408Z" fill="#181630"/>
<path d="M85.2351 118.273C85.0191 118.364 84.8191 118.461 84.6491 118.562L83.8281 116.504C83.7612 116.337 83.8427 116.147 84.0096 116.081C84.0547 116.063 84.1007 116.056 84.1463 116.058C84.2698 116.064 84.384 116.141 84.4325 116.262L85.2351 118.273Z" fill="white"/>
<path d="M83.8398 119.021C83.6582 119.118 83.4617 119.217 83.2563 119.315L82.5777 117.616C82.5115 117.448 82.593 117.259 82.7599 117.192C82.8042 117.174 82.8511 117.167 82.8959 117.169C83.0194 117.175 83.1343 117.252 83.1829 117.374L83.8398 119.021Z" fill="white"/>
<path d="M89.1741 113.171C89.7241 113.573 91.738 115.213 91.738 115.213L89.0038 119.215C89.0038 119.215 88.4791 118.409 87.2544 117.26C84.7135 114.875 87.8657 112.216 89.1741 113.171Z" fill="#BB7E61"/>
<path d="M106.649 127.137C102.479 120.379 91.1497 113.941 91.1497 113.941C91.1497 113.941 89.2256 116.508 88.4102 119.365C88.4102 119.365 98.6521 130.43 101.635 133.45C104.647 135.724 108.732 131.216 106.649 127.137Z" fill="#201D40"/>
<path d="M131.148 152.621L132.493 156.344L135.682 154.202L134.908 150.83L131.148 152.621Z" fill="#BB7E61"/>
<path d="M121.923 105.971L111.105 110.503C111.105 110.503 119.82 125.682 125.602 129.719C126.609 130.422 132.817 127.623 132.874 126.388C133.084 121.884 121.923 105.971 121.923 105.971Z" fill="#201D40"/>
<path d="M125.603 129.719C124.838 130.555 131.15 152.621 131.15 152.621C131.15 152.621 134.181 151.878 136.365 150.393C134.324 136.595 134.056 130.231 132.826 125.287C130.992 122.481 126.297 125.001 125.603 129.719Z" fill="#201D40"/>
<path d="M117.298 107.419C117.298 107.419 109.111 99.7259 106.48 102.258C103.849 104.79 102.286 122.978 100.801 130.662C100.06 134.499 105.712 135.845 107.045 133.984C109.45 130.625 117.298 107.419 117.298 107.419Z" fill="#181630"/>
<path d="M131.192 61.9156C132.436 58.3345 130.404 53.3314 126.434 54.2029C122.463 55.0744 120.121 56.3554 118.735 51.5417C117.632 47.7083 112.765 45.3623 107.629 47.56C101.058 50.3715 105.563 53.831 101.866 54.164C98.1687 54.4971 94.5857 55.2256 96.4881 59.9685C98.3904 64.7114 103.884 66.6771 108.991 63.8426C114.097 61.0079 113.599 65.2663 116.667 65.1316C121.028 64.9401 131.192 61.9156 131.192 61.9156Z" fill="#201D40"/>
<path d="M123.532 66.5769C121.836 71.049 123.309 75.7543 126.821 77.0862C130.334 78.4182 134.556 75.8725 136.252 71.4004C137.948 66.9282 136.475 62.223 132.963 60.8911C129.45 59.5592 125.228 62.1048 123.532 66.5769Z" fill="#BB7E61"/>
<path d="M124.039 71.8403L128.08 76.6501C128.08 76.6501 127.757 79.2793 127.742 79.6494C127.679 81.211 125.676 81.1523 124.481 79.7253C123.286 78.2981 122.668 76.6879 122.668 76.6879L124.039 71.8403Z" fill="#BB7E61"/>
<path d="M136.756 70.5887C135.577 70.0241 129.433 65.7463 129.103 64.2269C128.084 67.1667 122.455 68.863 122.184 67.7883C122.128 61.6333 125.342 57.5739 131.821 58.61C140.706 60.0308 136.756 70.5887 136.756 70.5887Z" fill="#CCCCCC"/>
<path d="M128.18 70.0011C128.265 70.4084 128.664 70.6698 129.071 70.5849C129.479 70.5001 129.74 70.1011 129.655 69.6938C129.57 69.2864 129.171 69.025 128.764 69.1099C128.357 69.1947 128.095 69.5937 128.18 70.0011Z" fill="black"/>
<path d="M133.144 71.7674C133.224 72.1498 133.598 72.3952 133.98 72.3155C134.363 72.2359 134.608 71.8615 134.529 71.479C134.449 71.0966 134.074 70.8513 133.692 70.9309C133.31 71.0106 133.064 71.385 133.144 71.7674Z" fill="black"/>
<path d="M135.487 71.0449C135.516 71.043 135.545 71.0357 135.574 71.0228C135.712 70.9591 135.776 70.7813 135.717 70.6259C135.259 69.4183 134.181 69.3198 134.135 69.3162C133.986 69.3043 133.856 69.4305 133.848 69.5981C133.84 69.7653 133.954 69.9104 134.104 69.9231C134.139 69.9263 134.893 70.0072 135.216 70.8564C135.263 70.9801 135.374 71.0525 135.487 71.0449Z" fill="#CCCCCC"/>
<path d="M127.989 68.4098C127.968 68.3892 127.951 68.3646 127.938 68.3362C127.875 68.1976 127.942 68.0209 128.088 67.9417C129.224 67.3261 130.104 67.9546 130.141 67.9816C130.263 68.0705 130.278 68.2505 130.175 68.3829C130.072 68.515 129.891 68.5504 129.769 68.4622C129.74 68.4417 129.116 68.0107 128.317 68.4436C128.201 68.5067 128.07 68.4892 127.989 68.4098Z" fill="#CCCCCC"/>
<path d="M132.463 72.0594C132.508 72.5716 132.513 73.0648 132.642 73.448C132.686 73.5772 132.618 73.7195 132.491 73.7696C131.967 73.9756 131.086 73.7796 130.569 73.6308C130.494 73.6089 130.508 73.4981 130.586 73.4951C131.25 73.4703 131.62 73.3553 131.802 73.2747C131.892 73.2346 131.956 73.1536 131.977 73.057C132.026 72.8354 132.128 72.3866 132.236 72.0344C132.273 71.9128 132.451 71.9326 132.463 72.0594Z" fill="#735349"/>
<path d="M124.53 68.9769C124.985 70.0056 124.672 71.1412 123.83 71.5134C122.988 71.8856 121.937 71.3534 121.482 70.3248C121.027 69.2961 121.341 68.1605 122.183 67.7883C123.024 67.4162 124.076 67.9482 124.53 68.9769Z" fill="#BB7E61"/>
<path d="M123.358 70.6278C123.394 70.6203 123.429 70.6044 123.46 70.5798C123.905 70.2278 124.065 69.743 123.889 69.2832C123.708 68.8124 123.228 68.4925 122.746 68.5226C122.611 68.5311 122.508 68.6479 122.516 68.7834C122.525 68.919 122.641 69.0219 122.777 69.0135C123.041 68.997 123.327 69.1928 123.43 69.4592C123.528 69.7152 123.43 69.9761 123.155 70.1941C123.048 70.2784 123.03 70.4331 123.114 70.5396C123.174 70.6152 123.269 70.6462 123.358 70.6278Z" fill="#735349"/>
<path d="M124.245 108.73C114.018 108.848 105.523 103.2 105.523 103.2C105.992 102.02 107.241 99.6293 110.575 96.1987C111.426 92.5609 113.217 84.147 113.823 82.0932C116.884 77.1154 117.904 78.7378 117.883 75.8491L122.729 76.5153C122.729 76.5153 123.6 79.8299 126.275 80.4366C127.946 80.8155 127.78 78.9935 127.78 78.9935C127.78 78.9935 130.137 80.8341 130.769 81.5685C130.769 81.5685 132.206 87.8419 131.806 89.5784C131.078 92.7444 126.104 101.256 126.104 101.256C126.104 101.256 124.167 107.82 124.245 108.73Z" fill="#BEBCB5"/>
<path d="M95.7048 99.9865C95.637 98.7909 95.6783 97.0625 96.3496 97.168C97.4275 97.3372 97.7812 97.7452 98.5821 97.9635C99.2923 98.1573 98.9522 96.834 96.4472 94.7575L96.5463 93.796L93.9608 92.9487L93.8896 93.4012C92.1815 94.354 91.2826 96.7638 92.2146 99.27C92.6131 100.341 95.7951 101.581 95.7048 99.9865Z" fill="#BB7E61"/>
<path d="M121.122 77.5752C117.659 74.1167 111.43 75.3497 100.48 77.9878C100.32 81.1558 101.201 83.6567 101.201 83.6567C101.201 83.6567 111.593 84.1638 114.562 83.8788C121.689 83.195 122.791 79.2427 121.122 77.5752Z" fill="#BEBCB5"/>
<path d="M96.9036 94.2543L104.239 83.5059C104.239 83.5059 101.932 79.2635 100.48 77.9877C97.8024 81.6711 95.2763 86.1609 93.5312 92.8574C94.9404 93.9353 96.9036 94.2543 96.9036 94.2543Z" fill="#BEBCB5"/>
<path d="M145.057 154.625C141.396 157.429 136.001 158.595 134.013 158.926C133.263 159.05 132.55 158.555 132.407 157.809C132.21 156.778 131.992 155.496 131.901 154.705C131.883 154.549 131.87 154.413 131.863 154.301L135.306 152.565L135.445 152.495C135.961 152.974 136.539 153.2 137.144 153.279C137.334 153.306 137.528 153.316 137.723 153.316C137.979 153.315 138.239 153.296 138.499 153.264C138.691 153.242 138.883 153.212 139.075 153.18C141.091 152.836 144.497 151.953 145.057 154.625Z" fill="#181630"/>
<path d="M137.724 153.315L137.749 154.329C137.753 154.488 137.627 154.621 137.467 154.625C137.307 154.628 137.175 154.503 137.171 154.343L137.145 153.279C137.335 153.306 137.528 153.316 137.724 153.315Z" fill="white"/>
<path d="M139.076 153.179L139.096 153.946C139.099 154.106 138.973 154.238 138.814 154.243C138.654 154.247 138.522 154.121 138.518 153.961L138.5 153.264C138.692 153.242 138.885 153.211 139.076 153.179Z" fill="white"/>
<path d="M117.558 108.068L117.125 107.962C119.072 103.44 123.141 96.0471 125.574 91.515C125.796 91.1019 126.004 90.7143 126.195 90.3571C128.411 86.2222 126.497 80.525 126.478 80.4698L126.947 80.4589C126.967 80.517 127.487 81.9719 127.671 83.9078C127.842 85.7017 127.792 88.3131 126.585 90.5658C126.393 90.9232 126.185 91.3108 125.963 91.7239C123.533 96.2498 119.497 103.563 117.558 108.068Z" fill="#FEE564"/>
<path d="M128.174 74.137C128.151 73.9769 128.319 73.8492 128.446 73.9317C128.769 74.1416 129.31 74.4751 129.854 74.7343C130.398 74.9936 130.998 75.2032 131.365 75.3218C131.509 75.3686 131.516 75.5801 131.377 75.6626C130.949 75.9166 130.162 76.2367 129.328 75.8394C128.494 75.4421 128.246 74.6294 128.174 74.137Z" fill="white"/>
<path d="M189.609 76.3184C184.296 79.4121 189.745 93.2786 195.282 97.6307C195.282 97.6307 201.997 96.5306 200.558 93.7568C196.466 85.8704 193.77 73.896 189.609 76.3184Z" fill="#BEBCB5"/>
<path d="M216.324 98.3401L199.746 92.4257C199.746 92.4257 197.292 94.6021 195.285 97.6307C197.929 99.4522 202.781 101.441 214.854 101.975C215.703 101.056 216.324 98.3401 216.324 98.3401Z" fill="#BEBCB5"/>
<path d="M185.154 68.2041L185.157 68.2045L187.873 68.6684L187.647 75.5624L183.965 76.3334L180.859 74.113L182.481 67.7678L185.154 68.2041Z" fill="#BB7E61"/>
<path d="M180.518 62.7252C180.359 67.4821 183.259 71.4395 186.995 71.5644C190.731 71.6893 193.888 67.9343 194.047 63.1775C194.206 58.4207 191.307 54.4631 187.571 54.3382C183.835 54.2134 180.677 57.9683 180.518 62.7252Z" fill="#BB7E61"/>
<path d="M189.421 64.316C189.947 65.3041 190.617 66.5115 190.617 66.5115C190.617 66.5115 190.201 67.4861 188.883 67.4085C189.456 67.2168 190.034 66.8799 189.858 66.1207C189.683 65.3615 189.421 64.316 189.421 64.316Z" fill="#735349"/>
<path d="M179.637 58.7322C179.981 54.232 184.301 53.4568 184.301 53.4568C184.301 53.4568 183.442 52.9832 183.887 51.6798C184.465 52.1831 185.222 52.498 185.987 52.5491C191.141 52.8936 194.192 54.2601 193.356 56.1627C193.059 56.8397 196.287 57.7512 194.039 62.1979C193.818 61.5915 193.883 59.4653 192.974 58.8427C192.061 58.218 192.377 59.9386 190.18 59.3124C187.964 58.6808 186.649 57.4978 184.854 58.1153C183.403 58.7042 180.856 63.828 180.869 64.2095C180.839 63.3344 179.486 60.7099 179.637 58.7322Z" fill="#201D40"/>
<path d="M193.66 65.7242C193.66 65.7242 192.806 68.181 192.141 68.7646C192.203 67.6558 189.7 67.9421 188.647 67.8598C186.74 67.7108 185.111 65.7245 184.066 68.087C181.65 67.8261 181.658 62.4122 181.658 62.4122C179.307 67.4312 181.301 71.7113 187.014 73.2151C190.778 74.206 193.71 69.681 193.66 65.7242Z" fill="#201D40"/>
<path d="M186.755 63.5878C186.395 63.5523 186.132 63.2317 186.167 62.8716C186.203 62.5117 186.524 62.2485 186.884 62.2841C187.243 62.3196 187.507 62.6402 187.471 63.0003C187.435 63.3603 187.115 63.6234 186.755 63.5878Z" fill="black"/>
<path d="M192.126 64.2818C191.766 64.2463 191.503 63.9256 191.538 63.5656C191.574 63.2056 191.895 62.9425 192.255 62.9781C192.615 63.0137 192.878 63.3343 192.842 63.6943C192.806 64.0544 192.486 64.3174 192.126 64.2818Z" fill="black"/>
<path d="M193.423 63.1124C193.313 63.1016 193.211 63.0343 193.161 62.9265C193.022 62.6297 192.837 62.4417 192.611 62.3678C192.221 62.24 191.799 62.4675 191.795 62.4699C191.638 62.5558 191.441 62.4993 191.354 62.3431C191.267 62.1868 191.322 61.9903 191.478 61.9026C191.504 61.8874 192.143 61.535 192.806 61.7477C193.213 61.8784 193.53 62.1825 193.749 62.6515C193.825 62.8141 193.755 63.0076 193.592 63.0834C193.538 63.1091 193.479 63.118 193.423 63.1124Z" fill="#201D40"/>
<path d="M185.472 62.314C185.401 62.3069 185.332 62.2767 185.277 62.2229C185.149 62.0975 185.147 61.8917 185.272 61.7635C185.75 61.2748 186.249 61.0325 186.755 61.0432C187.409 61.0569 187.815 61.5011 187.832 61.5199C187.952 61.6534 187.941 61.8588 187.807 61.9787C187.675 62.0981 187.471 62.0877 187.351 61.9562C187.342 61.9471 187.099 61.6968 186.733 61.6928C186.416 61.6893 186.081 61.8658 185.737 62.2176C185.665 62.291 185.567 62.3232 185.472 62.314Z" fill="#201D40"/>
<path d="M181.594 62.4237C182.267 63.3181 182.219 64.4896 181.487 65.0401C180.755 65.5905 179.616 65.312 178.944 64.4176C178.271 63.5231 178.319 62.3518 179.051 61.8011C179.783 61.2505 180.921 61.5293 181.594 62.4237Z" fill="#BB7E61"/>
<path d="M180.495 64.554C180.531 64.5467 180.566 64.5312 180.597 64.5071C181.043 64.1602 181.206 63.6791 181.034 63.2203C180.858 62.7503 180.383 62.4282 179.903 62.4544C179.768 62.4619 179.665 62.5771 179.672 62.712C179.68 62.8471 179.795 62.9504 179.93 62.9431C180.193 62.9288 180.476 63.1259 180.576 63.3919C180.671 63.6473 180.572 63.9062 180.296 64.121C180.19 64.204 180.171 64.3578 180.254 64.4644C180.313 64.5399 180.407 64.5716 180.495 64.554Z" fill="#735349"/>
<path d="M188.684 69.9539C187.025 69.9539 185.961 68.5506 185.947 68.532C185.859 68.4127 185.884 68.2446 186.003 68.1564C186.122 68.0682 186.29 68.0932 186.379 68.2121C186.441 68.2955 187.929 70.2406 190.101 69.0107C190.23 68.9376 190.394 68.983 190.467 69.1122C190.54 69.2412 190.494 69.405 190.365 69.4781C189.758 69.8222 189.193 69.9539 188.684 69.9539Z" fill="#735349"/>
<path d="M189.598 151.692L190.358 154.619L194.632 153.2L194.542 151.077L189.598 151.692Z" fill="#BB7E61"/>
<path d="M160.535 153.394L161.15 150.656L165.913 150.96L164.844 153.163L160.535 153.394Z" fill="#BB7E61"/>
<path d="M194.629 153.089C196.947 156.628 203.04 154.227 202.619 158.846C193.36 158.348 189.508 158.225 189.508 158.225C189.57 157.162 189.873 154.648 190.133 153.67L194.629 153.089Z" fill="#181630"/>
<path d="M164.823 152.947C166.955 156.601 173.392 154.616 172.734 159.207L159.672 158.321C159.672 156.626 160.221 154.357 160.532 153.394L164.823 152.947Z" fill="#181630"/>
<path d="M185.097 100.099L173.023 106.885C173.023 106.885 183.556 125.462 189.467 131.139C190.496 132.127 196.181 130.384 196.559 129.154C197.936 124.673 185.097 100.099 185.097 100.099Z" fill="#181630"/>
<path d="M188.484 128.76C186.419 137.272 188.924 152.318 188.924 152.318C188.924 152.318 192.735 152.452 195.628 151.294C195.312 136.787 197.211 131.924 196.492 126.643C194.7 123.454 190.07 124.034 188.484 128.76Z" fill="#181630"/>
<path d="M182.476 103.086L168.64 102.465C168.64 102.465 167.761 123.802 169.778 131.746C170.129 133.129 174.579 134.898 175.549 134.054C179.087 130.978 182.476 103.086 182.476 103.086Z" fill="#201D40"/>
<path d="M169.727 128.278C164.121 135.007 160.434 150.363 160.434 150.363C160.434 150.363 163.193 152.454 166.3 152.691C173.554 140.052 174.585 136.18 176.771 131.835C178.197 127.648 173.235 124.735 169.727 128.278Z" fill="#201D40"/>
<path d="M172.195 74.1585C172.195 74.1585 176.348 72.0431 181.111 73.4584C185.799 77.3167 187.656 75.3063 187.656 75.3063C189.621 75.3486 191.741 76.3334 191.741 76.3334C192.238 86.1925 189.848 106.631 189.848 106.631C189.848 106.631 182.644 107.9 177.286 106.631C171.946 105.288 167.258 103.042 167.258 103.042C167.258 103.042 170.799 79.8675 172.195 74.1585Z" fill="#DEDACC"/>
<path d="M178.702 75.12C174.022 68.6659 164.429 79.8637 159.559 85.0561C159.559 85.0561 159.989 91.5955 164.76 91.3731C168.505 90.0799 181.53 79.0194 178.702 75.12Z" fill="#BEBCB5"/>
<path d="M148.611 111.203C148.735 109.22 151.091 108.07 151.2 108.789C151.327 109.629 150.992 110.885 150.992 110.885C151.541 111.156 154.067 110.202 152.944 107.003L154.463 105.555L151.496 103.004L150.709 104.87C146.829 105.837 145.972 107.172 145.833 110.247C145.696 113.271 148.495 113.066 148.611 111.203Z" fill="#735349"/>
<path d="M154.793 107.4L165.499 90.7914C165.499 90.7914 161.759 87.9467 159.558 85.056C157.089 87.8083 155.098 92.4183 150.625 103.645C151.214 104.749 154.793 107.4 154.793 107.4Z" fill="#BEBCB5"/>
<path d="M148.09 110.528C148.151 110.531 148.209 110.546 148.265 110.567C148.265 110.556 148.264 110.546 148.265 110.536C148.29 109.921 148.667 109.438 149.108 109.456C149.18 109.459 149.249 109.477 149.315 109.504C149.46 109.141 149.742 108.897 150.056 108.91C150.181 108.916 150.297 108.962 150.4 109.037C150.521 108.665 150.828 108.403 151.18 108.418C151.621 108.436 151.961 108.876 151.939 109.4C151.918 109.925 151.543 110.335 151.103 110.317C150.991 110.312 150.886 110.281 150.791 110.227C150.71 110.758 150.364 111.152 149.966 111.135C149.894 111.132 149.824 111.115 149.759 111.087C149.614 111.451 149.332 111.694 149.017 111.681C148.901 111.676 148.793 111.636 148.696 111.57C148.603 111.906 148.335 112.145 148.025 112.133C147.653 112.117 147.365 111.746 147.384 111.303C147.402 110.86 147.718 110.513 148.09 110.528Z" fill="#BB7E61"/>
<path d="M68 142.198L68.3966 144.672L72.5438 143.592L72.5059 141.502L68 142.198Z" fill="#BB7E61"/>
<path d="M72.5588 143.323C74.7835 146.72 80.6514 144.212 80.2473 148.645L67.5898 148.639C67.6499 147.619 67.9938 144.819 68.2437 143.88L72.5588 143.323Z" fill="#181630"/>
<path d="M64.435 94.3225L54.2305 100.059C54.2305 100.059 63.1325 115.761 68.1286 120.559C68.9983 121.394 73.8042 119.92 74.1235 118.881C75.2875 115.093 64.435 94.3225 64.435 94.3225Z" fill="#181630"/>
<path d="M67.2977 118.548C64.8662 126.538 67.4287 142.728 67.4287 142.728C67.4287 142.728 70.65 142.841 73.0952 141.862C72.8282 129.601 74.674 121.222 74.0659 116.758C72.5512 114.063 68.6382 114.553 67.2977 118.548Z" fill="#181630"/>
<path d="M62.2187 96.8475L50.5243 96.3231C50.5243 96.3231 49.7816 114.358 51.4867 121.071C51.7835 122.24 55.544 123.736 56.3642 123.023C59.3542 120.423 62.2187 96.8475 62.2187 96.8475Z" fill="#201D40"/>
<path d="M55.7747 123.691C54.3851 124.486 52.6294 125.772 50.3522 127.373L49.2539 118.471C50.3449 118.118 51.4243 117.912 52.4728 117.896C56.5991 117.037 58.7342 121.408 55.7747 123.691Z" fill="#201D40"/>
<path d="M85.2446 71.9069C84.7173 72.5227 83.7851 73.957 83.1519 74.642L81.1746 73.6244C80.5489 71.1091 81.6915 68.4838 81.7903 68.1663C82.047 67.3416 82.1165 66.9383 82.2484 66.9198C82.3803 66.9014 83.1691 66.997 82.834 68.2091C82.4133 69.7301 84.0887 69.8205 85.4424 66.7071C85.7814 65.9277 86.83 65.9378 86.8711 66.7316C86.9167 67.6062 87.6437 69.105 85.2446 71.9069Z" fill="#BB7E61"/>
<path d="M71.3254 81.2576C70.8612 82.4894 72.4702 87.5881 72.9241 87.5107C77.9578 84.7514 83.4295 74.5619 83.4295 74.5619L80.6774 72.8434C80.6774 72.8434 77.3068 77.1021 71.3254 81.2576Z" fill="#BEBCB5"/>
<path d="M60.8529 74.6819C62.7588 78.0178 71.5448 87.3309 72.9225 87.5108L73.4036 80.9565C73.4036 80.9565 66.802 70.7901 65.4574 69.1156C63.1358 66.2108 57.7309 69.2416 60.8529 74.6819Z" fill="#BEBCB5"/>
<path d="M87.1257 66.49L83.0011 72.8972C82.8358 73.154 82.4937 73.2282 82.237 73.0629L81.3709 72.5053C81.1141 72.3401 81.04 71.9979 81.2052 71.7413L85.3299 65.334C85.4952 65.0773 85.8373 65.0031 86.094 65.1683L86.9601 65.7259C87.2168 65.8912 87.2909 66.2333 87.1257 66.49Z" fill="#201D40"/>
<path d="M86.7429 66.2399L82.6182 72.6472C82.453 72.9039 82.1109 72.978 81.8541 72.8128L80.988 72.2553C80.7313 72.0899 80.6572 71.7479 80.8224 71.4911L84.947 65.0838C85.1123 64.8272 85.4544 64.753 85.711 64.9182L86.5772 65.4759C86.834 65.6411 86.9081 65.9833 86.7429 66.2399Z" fill="white"/>
<path d="M85.0547 69.7792C85.1539 69.3083 85.0114 67.3493 85.6069 67.3559C85.7522 67.4072 85.8068 67.6947 85.8068 67.6947C85.8914 67.4045 86.0634 66.1282 86.5368 66.3536C86.9404 66.7067 86.8771 66.9838 86.8771 66.9838L85.0547 69.7792Z" fill="#BB7E61"/>
<path d="M64.0183 69.3172C64.6036 70.3305 58.9197 70.5845 58.4318 68.5761C57.944 66.5678 59.8389 61.2749 59.8389 61.2749L64.842 63.2428C64.842 63.2428 63.2566 67.9982 64.0183 69.3172Z" fill="#735349"/>
<path d="M58.255 56.9561C58.189 61.5882 61.0847 65.385 64.7226 65.4369C68.3606 65.4889 71.3633 61.7759 71.4293 57.1438C71.4953 52.5118 68.5996 48.7148 64.9617 48.6629C61.3237 48.6112 58.321 52.3242 58.255 56.9561Z" fill="#BB7E61"/>
<path d="M69.4234 58.6875C69.583 59.031 69.9908 59.1801 70.3343 59.0205C70.6778 58.8609 70.8269 58.4531 70.6674 58.1096C70.5078 57.7661 70.0999 57.6171 69.7564 57.7767C69.4129 57.9362 69.2638 58.3439 69.4234 58.6875Z" fill="black"/>
<path d="M64.8584 58.1148C65.0311 58.4866 65.4726 58.648 65.8444 58.4752C66.2163 58.3023 66.3776 57.861 66.2049 57.489C66.0321 57.1172 65.5906 56.9558 65.2188 57.1287C64.8471 57.3014 64.6855 57.7429 64.8584 58.1148Z" fill="black"/>
<path d="M68.107 58.6632C68.3491 59.7253 68.6702 61.0303 68.6702 61.0303C68.6702 61.0303 68.031 61.8396 66.8125 61.4305C67.4003 61.3967 68.0286 61.2276 68.0572 60.4696C68.086 59.7119 68.107 58.6632 68.107 58.6632Z" fill="#735349"/>
<path d="M69.4844 57.1099C69.5653 57.1489 69.664 57.1455 69.7442 57.0925C69.7522 57.0873 70.0236 56.9164 70.2994 56.994C70.4938 57.0486 70.6611 57.2197 70.7961 57.5021C70.8588 57.6332 71.016 57.6886 71.147 57.6259C71.278 57.5633 71.3334 57.4062 71.2708 57.2751C71.066 56.8469 70.7847 56.5812 70.4345 56.4853C69.922 56.3452 69.4715 56.6417 69.4526 56.6545C69.3318 56.7353 69.2996 56.8988 69.3806 57.0195C69.4075 57.0597 69.4437 57.0901 69.4844 57.1099Z" fill="#201D40"/>
<path d="M66.0085 56.6716C65.9225 56.6976 65.8255 56.6792 65.7545 56.6143C65.7474 56.6081 65.5056 56.3974 65.2212 56.4315C65.0206 56.4556 64.8291 56.5988 64.652 56.857C64.5699 56.9769 64.4062 57.0074 64.2863 56.9253C64.1664 56.8432 64.1359 56.6794 64.218 56.5596C64.4863 56.1679 64.8053 55.9489 65.166 55.9082C65.694 55.8487 66.0934 56.2111 66.1101 56.2265C66.217 56.3251 66.2236 56.4916 66.125 56.5984C66.0922 56.634 66.0517 56.6586 66.0085 56.6716Z" fill="#201D40"/>
<path d="M68.2125 63.0729C68.3525 62.9632 68.295 62.7405 68.1193 62.714C67.6724 62.6467 66.9377 62.5205 66.2549 62.3327C65.572 62.145 64.8761 61.8778 64.4576 61.7072C64.293 61.6401 64.1298 61.8022 64.194 61.9679C64.3915 62.4777 64.8635 63.2988 65.9101 63.5865C66.9566 63.8744 67.7822 63.41 68.2125 63.0729Z" fill="white"/>
<path d="M59.4447 59.0853C59.8194 57.4317 60.5381 57.4659 61.7676 55.9016C62.4154 53.7555 63.6369 52.4612 65.3597 53.7534C67.1281 55.0798 68.6725 55.1848 69.5544 54.7283C71.6035 53.6675 71.4308 56.9714 71.4308 56.9714C71.4308 56.9714 73.504 53.5061 72.3111 51.606C70.6093 48.8956 69.6598 50.2424 67.7471 48.3753C65.8342 46.5081 62.4293 46.7046 61.4727 47.914C60.4643 49.189 60.5293 49.7198 58.3657 50.2836C56.2021 50.8473 54.5865 53.0774 55.9234 55.557C57.2603 58.0365 53.7955 58.5491 56.395 61.1456C57.4032 62.1528 59.1608 62.4932 59.5806 62.1432C59.1398 61.275 59.203 60.1513 59.4447 59.0853Z" fill="#CCCCCC"/>
<path d="M60.8117 57.0805C61.2986 58.0549 61.0468 59.1679 60.2494 59.5663C59.4519 59.9648 58.4107 59.4979 57.9239 58.5233C57.437 57.5488 57.6888 56.4359 58.4862 56.0375C59.2837 55.639 60.3249 56.106 60.8117 57.0805Z" fill="#BB7E61"/>
<path d="M59.5172 58.8223C59.4967 58.8132 59.4774 58.8003 59.4604 58.7835C59.3849 58.709 59.3842 58.5874 59.4587 58.512C59.7327 58.2345 59.8452 57.984 59.7927 57.7674C59.7054 57.4069 59.1792 57.1619 58.9839 57.098C58.8832 57.0648 58.8281 56.9566 58.8611 56.8557C58.8941 56.755 59.0026 56.7 59.1033 56.7331C59.1403 56.7452 60.0109 57.0369 60.1659 57.6771C60.2518 58.0317 60.1058 58.4034 59.732 58.7819C59.6742 58.8404 59.5882 58.8539 59.5172 58.8223Z" fill="#735349"/>
<path d="M67.6418 98.6431C63.5751 98.9197 51.8192 100.464 48.2522 98.4916C47.1023 96.2554 49.3123 85.8878 49.9219 81.7178C51.6604 69.8278 52.6999 66.5001 58.3554 66.0529C59.6228 66.8549 62.7011 67.8377 64.186 68.0486C64.186 68.0486 66.9268 73.1771 67.1282 76.6609C67.3325 80.1936 66.5865 86.3259 66.1777 89.8408C65.724 93.7443 67.4669 96.1223 67.6418 98.6431Z" fill="#FEE564"/>
<path d="M44.2344 77.751C44.2344 77.751 53.392 64.5625 57.2178 66.7437C60.1374 69.1157 53.3203 78.3115 45.0714 84.5395L44.2344 77.751Z" fill="#BEBCB5"/>
<path d="M261.584 43.3485H287.389C289.424 43.3485 291.075 41.6983 291.075 39.6628V28.6511C291.075 26.6156 289.424 24.9655 287.389 24.9655H261.584C259.549 24.9655 257.898 26.6156 257.898 28.6511V39.6628C257.898 41.6983 259.549 43.3485 261.584 43.3485Z" fill="white"/>
<path d="M262.598 42.5248V49.3683C262.598 49.9177 263.337 50.0946 263.586 49.605L267.182 42.5248H262.598Z" fill="white"/>
<path d="M262.225 30.7108H286.438C287.37 30.7108 288.124 29.9558 288.124 29.0247C288.124 28.0935 287.37 27.3386 286.438 27.3386H262.225C261.294 27.3386 260.539 28.0935 260.539 29.0247C260.539 29.9558 261.294 30.7108 262.225 30.7108Z" fill="#E3EAFF"/>
<path d="M262.225 36.0593H286.438C287.37 36.0593 288.124 35.3043 288.124 34.3732C288.124 33.442 287.37 32.6871 286.438 32.6871H262.225C261.294 32.6871 260.539 33.442 260.539 34.3732C260.539 35.3043 261.294 36.0593 262.225 36.0593Z" fill="#E3EAFF"/>
<path d="M261.978 41.4078H277.516C278.311 41.4078 278.955 40.7638 278.955 39.9692V39.4741C278.955 38.6795 278.311 38.0355 277.516 38.0355H261.978C261.183 38.0355 260.539 38.6795 260.539 39.4741V39.9692C260.539 40.7637 261.183 41.4078 261.978 41.4078Z" fill="#E3EAFF"/>
<path d="M203.146 26.9067C204.343 30.4861 202.412 34.3587 198.833 35.5564C195.253 36.7539 191.381 34.8231 190.183 31.2437C188.986 27.6642 190.916 23.7916 194.496 22.594C198.075 21.3964 201.948 23.3272 203.146 26.9067Z" fill="#BEBCB5"/>
<path d="M193.149 27.9859C193.751 27.7842 194.403 28.1093 194.605 28.7118C194.807 29.3144 194.482 29.9664 193.879 30.1679C193.277 30.3695 192.625 30.0444 192.423 29.4419C192.221 28.8393 192.546 28.1874 193.149 27.9859Z" fill="white"/>
<path d="M198.704 26.1279C199.306 25.9261 199.958 26.2513 200.16 26.8539C200.361 27.4563 200.036 28.1083 199.434 28.3099C198.831 28.5115 198.179 28.1864 197.978 27.5839C197.776 26.9814 198.101 26.3295 198.704 26.1279Z" fill="white"/>
<path d="M194.461 31.7163C194.403 31.7357 194.347 31.7631 194.294 31.7987C194.062 31.9578 194.004 32.2187 194.166 32.3816C194.963 33.1849 196.409 33.4199 197.764 32.9667C199.079 32.5265 200.062 31.5372 200.267 30.4463C200.309 30.2187 200.117 30.0369 199.837 30.0405C199.557 30.0438 199.295 30.2312 199.253 30.4588C199.11 31.2179 198.427 31.9061 197.511 32.2125C196.569 32.5278 195.563 32.3643 195.008 31.8055C194.883 31.679 194.662 31.6491 194.461 31.7163Z" fill="white"/>
<path d="M292.615 89.8558C291.321 93.4015 287.397 95.2261 283.852 93.9315C280.306 92.6369 278.481 88.7133 279.776 85.1677C281.07 81.6221 284.994 79.7975 288.54 81.092C292.085 82.3865 293.91 86.3102 292.615 89.8558Z" fill="#BEBCB5"/>
<path d="M284.127 84.4678C284.724 84.6856 285.031 85.3462 284.813 85.9431C284.595 86.54 283.935 86.8471 283.338 86.6291C282.741 86.4112 282.434 85.7506 282.652 85.1539C282.87 84.5571 283.531 84.2499 284.127 84.4678Z" fill="white"/>
<path d="M289.627 86.4762C290.224 86.694 290.531 87.3544 290.314 87.9515C290.096 88.5482 289.435 88.8554 288.838 88.6375C288.241 88.4196 287.934 87.7591 288.152 87.1622C288.37 86.5654 289.031 86.2582 289.627 86.4762Z" fill="white"/>
<path d="M282.827 88.2037C282.769 88.1827 282.708 88.1692 282.645 88.1646C282.364 88.1439 282.157 88.3122 282.182 88.5402C282.304 89.6651 283.288 90.7501 284.63 91.24C285.933 91.7159 287.318 91.5546 288.159 90.8293C288.334 90.678 288.297 90.4159 288.076 90.2441C287.855 90.0722 287.533 90.0558 287.358 90.207C286.773 90.7117 285.81 90.824 284.903 90.4928C283.97 90.1519 283.285 89.3971 283.199 88.6144C283.18 88.4377 283.026 88.2766 282.827 88.2037Z" fill="white"/>
<path d="M225.328 45.3978C223.794 48.7092 219.866 50.1499 216.554 48.6158C213.243 47.0817 211.802 43.1536 213.336 39.8422C214.871 36.5308 218.799 35.0901 222.11 36.6243C225.421 38.1584 226.862 42.0865 225.328 45.3978Z" fill="white"/>
<path d="M217.584 39.5198C218.141 39.778 218.384 40.4393 218.126 40.9967C217.868 41.554 217.206 41.7965 216.649 41.5383C216.091 41.28 215.849 40.6188 216.107 40.0613C216.365 39.5041 217.027 39.2615 217.584 39.5198Z" fill="#DEDACC"/>
<path d="M222.721 41.8998C223.278 42.1581 223.521 42.8192 223.262 43.3766C223.004 43.934 222.343 44.1766 221.786 43.9183C221.228 43.6601 220.986 42.9989 221.244 42.4415C221.502 41.884 222.163 41.6415 222.721 41.8998Z" fill="#DEDACC"/>
<path d="M216.032 43.0143C215.978 42.9895 215.92 42.9714 215.86 42.9618C215.591 42.9193 215.378 43.0645 215.383 43.2862C215.41 44.38 216.271 45.5049 217.524 46.0857C218.741 46.6495 220.088 46.6063 220.956 45.9754C221.138 45.8438 221.123 45.5884 220.924 45.4049C220.725 45.2213 220.416 45.1796 220.235 45.3112C219.631 45.7502 218.694 45.7803 217.847 45.3879C216.975 44.984 216.376 44.2012 216.357 43.4404C216.353 43.2682 216.218 43.1005 216.032 43.0143Z" fill="#DEDACC"/>
<path d="M26.6985 85.7692C28.0205 88.7684 26.6609 92.2712 23.6618 93.5932C20.6626 94.9152 17.1596 93.5556 15.8377 90.5565C14.5157 87.5572 15.8753 84.0543 18.8744 82.7325C21.8737 81.4104 25.3766 82.7701 26.6985 85.7692Z" fill="white"/>
<path d="M18.1393 87.5025C18.6441 87.28 19.2338 87.5089 19.4563 88.0138C19.6788 88.5187 19.45 89.1082 18.9451 89.3308C18.4403 89.5533 17.8506 89.3246 17.628 88.8197C17.4056 88.3145 17.6345 87.725 18.1393 87.5025Z" fill="#DEDACC"/>
<path d="M22.7916 85.4518C23.2965 85.2292 23.8861 85.458 24.1087 85.963C24.3312 86.4678 24.1023 87.0574 23.5974 87.28C23.0925 87.5025 22.5029 87.2736 22.2804 86.7687C22.0579 86.2639 22.2868 85.6743 22.7916 85.4518Z" fill="#DEDACC"/>
<path d="M19.5732 90.6228C19.5246 90.6442 19.4781 90.6725 19.436 90.7074C19.2476 90.8636 19.2188 91.0938 19.3715 91.2216C20.1251 91.8523 21.3939 91.9399 22.529 91.4396C23.6313 90.9536 24.4017 90.0196 24.4915 89.0599C24.5103 88.8597 24.3294 88.7181 24.0876 88.7434C23.8457 88.7686 23.6346 88.9516 23.6158 89.1519C23.5534 89.8196 23.0173 90.4694 22.2503 90.8076C21.4606 91.1557 20.5778 91.0948 20.0536 90.6561C19.9351 90.5568 19.7418 90.5485 19.5732 90.6228Z" fill="#DEDACC"/>
<path d="M351.076 131.458L353.809 140.15C353.913 140.482 353.73 140.834 353.399 140.938L338.292 145.688C337.961 145.792 337.609 145.608 337.504 145.277L334.771 136.584C334.667 136.253 334.851 135.9 335.182 135.796L350.289 131.047C350.62 130.943 350.972 131.126 351.076 131.458Z" fill="#DEDACC"/>
<path d="M351.076 131.458L351.227 131.938L345.898 139.046C345.387 139.756 344.474 140.052 343.644 139.776L334.858 136.859L334.771 136.584C334.667 136.253 334.851 135.9 335.182 135.796L350.288 131.047C350.619 130.943 350.972 131.127 351.076 131.458Z" fill="white"/>
<path d="M249.846 10.0948L246.295 19.2658C246.16 19.6154 245.767 19.7886 245.418 19.6535L229.48 13.4815C229.131 13.3463 228.958 12.954 229.093 12.6044L232.644 3.43346C232.78 3.08394 233.172 2.91052 233.521 3.04576L249.46 9.21776C249.809 9.35301 249.982 9.74531 249.846 10.0948Z" fill="#DEDACC"/>
<path d="M249.846 10.0948L249.649 10.6018L240.367 13.0055C239.458 13.26 238.489 12.8942 237.974 12.1023L232.531 3.72303L232.643 3.43345C232.779 3.08412 233.171 2.91071 233.521 3.04595L249.458 9.21757C249.807 9.35281 249.981 9.74569 249.846 10.0948Z" fill="white"/>
<path d="M144.848 66.6889C144.811 66.4732 144.828 66.2621 144.883 66.0635C145.141 64.1104 147.866 63.7808 151.694 63.0288C152.334 62.9033 151.837 62.2111 151.326 60.5916C150.993 59.5383 151.407 57.7619 152.581 57.5599C154.517 57.2267 152.916 59.0676 155.275 62.5326C156.535 64.3841 158.386 62.9068 158.733 64.9248L159.524 69.518C159.659 70.3033 159.712 71.0716 158.623 71.3869C157.568 71.6925 157.942 72.414 156.39 72.681L148.624 74.0177C147.833 74.1537 147.079 73.6235 146.943 72.8359C146.887 72.5093 146.951 72.1922 147.095 71.9194C146.614 71.7503 146.233 71.3403 146.141 70.8046C146.085 70.4789 146.148 70.1618 146.292 69.8896C145.809 69.7212 145.428 69.3108 145.335 68.7743C145.268 68.3848 145.366 68.0045 145.577 67.7022C145.206 67.4963 144.925 67.137 144.848 66.6889Z" fill="white"/>
<path d="M150.23 67.2328L146.527 67.8702C146.023 67.9568 145.505 67.7699 145.173 67.3827C145.036 67.2231 145.056 66.9828 145.217 66.8462C145.377 66.7096 145.618 66.7293 145.755 66.8889C145.912 67.0732 146.159 67.1613 146.398 67.1203L150.19 66.4676C150.566 66.403 150.819 66.0461 150.755 65.6721C150.69 65.298 150.332 65.0464 149.957 65.111L147.423 65.5471C147.215 65.5828 147.017 65.4439 146.982 65.237C146.946 65.0301 147.086 64.833 147.294 64.7973L149.828 64.3611C150.619 64.2249 151.373 64.7548 151.508 65.5424C151.584 65.9816 151.446 66.4054 151.177 66.7217C151.487 66.9354 151.713 67.2669 151.782 67.6646C151.858 68.1051 151.719 68.5305 151.448 68.8467C151.756 69.0602 151.98 69.3909 152.049 69.7877C152.131 70.2675 151.964 70.7323 151.642 71.0545C151.911 71.268 152.109 71.5725 152.172 71.9358C152.307 72.7233 151.774 73.4747 150.983 73.6108L148.622 74.017C148.119 74.1038 147.6 73.9174 147.268 73.5302C147.131 73.3707 147.151 73.1304 147.311 72.9938C147.472 72.858 147.713 72.876 147.85 73.0357C148.008 73.2198 148.255 73.3084 148.493 73.2673L150.854 72.8611C151.23 72.7964 151.483 72.4396 151.418 72.0656C151.354 71.6915 150.996 71.4398 150.62 71.5045L147.82 71.9864C147.317 72.073 146.797 71.8863 146.466 71.499C146.329 71.339 146.348 71.0988 146.509 70.9627C146.67 70.8241 146.911 70.8449 147.047 71.0046C147.207 71.1919 147.448 71.2783 147.691 71.2366L150.731 70.7135C151.107 70.6488 151.36 70.2915 151.296 69.9174C151.231 69.5435 150.873 69.2918 150.497 69.3563L147.015 69.9556C146.512 70.0423 145.992 69.856 145.661 69.4686C145.524 69.3091 145.543 69.0689 145.704 68.9323C145.865 68.7959 146.106 68.8146 146.242 68.9742C146.402 69.1609 146.643 69.2476 146.886 69.2057L150.464 68.5901C150.839 68.5254 151.093 68.1686 151.028 67.7945C150.964 67.4202 150.606 67.1681 150.23 67.2328Z" fill="#BEBCB5"/>
<path d="M159.753 71.5492L162.171 71.1331C162.506 71.0755 162.731 70.7573 162.674 70.4224L161.437 63.2365C161.379 62.9016 161.061 62.6768 160.726 62.7345L158.308 63.1506C157.973 63.2082 157.748 63.5266 157.806 63.8614L159.043 71.0474C159.1 71.3821 159.418 71.6069 159.753 71.5492Z" fill="#BEBCB5"/>
<path d="M314.458 10.5278C314.51 10.3155 314.508 10.1036 314.467 9.9016C314.346 7.93539 311.65 7.41715 307.883 6.401C307.253 6.23123 307.798 5.57534 308.42 3.9952C308.825 2.96763 308.536 1.16678 307.379 0.883537C305.47 0.416611 306.939 2.36431 304.346 5.65716C302.96 7.41657 301.216 5.81446 300.729 7.80322L299.622 12.3303C299.432 13.1045 299.326 13.8674 300.39 14.2574C301.421 14.6354 300.999 15.3294 302.528 15.7036L310.183 17.5765C310.962 17.7673 311.751 17.2907 311.941 16.5143C312.02 16.1925 311.978 15.8717 311.854 15.5896C312.345 15.4543 312.754 15.0717 312.883 14.5438C312.961 14.2229 312.92 13.9021 312.796 13.6205C313.289 13.486 313.698 13.1031 313.827 12.5744C313.921 12.1905 313.85 11.8043 313.661 11.4881C314.045 11.3086 314.35 10.9695 314.458 10.5278Z" fill="#E3EAFF"/>
<path d="M309.051 10.6966L312.701 11.5897C313.198 11.7111 313.728 11.5607 314.086 11.1975C314.233 11.0477 314.231 10.8067 314.08 10.6593C313.929 10.5118 313.687 10.5148 313.539 10.6645C313.37 10.8374 313.117 10.9082 312.882 10.8505L309.144 9.93605C308.774 9.84541 308.546 9.47191 308.636 9.10301C308.727 8.7344 309.101 8.50823 309.472 8.59887L311.969 9.21005C312.174 9.26012 312.381 9.13524 312.431 8.93122C312.481 8.7273 312.355 8.52108 312.15 8.47101L309.652 7.85973C308.872 7.66885 308.084 8.14518 307.894 8.92134C307.788 9.35431 307.896 9.78661 308.142 10.1209C307.819 10.3126 307.569 10.6275 307.473 11.0194C307.367 11.4537 307.476 11.8876 307.724 12.2219C307.402 12.4136 307.155 12.7277 307.059 13.1189C306.944 13.5919 307.079 14.0672 307.377 14.4109C307.094 14.6052 306.875 14.8952 306.788 15.2533C306.598 16.0296 307.077 16.8161 307.857 17.0069L310.183 17.5762C310.68 17.6977 311.211 17.5478 311.568 17.1845C311.716 17.0349 311.713 16.7939 311.563 16.6464C311.412 16.4998 311.17 16.5011 311.023 16.6508C310.852 16.8235 310.6 16.8946 310.364 16.837L308.038 16.2678C307.668 16.1771 307.44 15.8036 307.53 15.4349C307.62 15.0662 307.995 14.84 308.365 14.9307L311.125 15.6059C311.621 15.7275 312.153 15.5772 312.51 15.2138C312.658 15.0638 312.655 14.8229 312.504 14.6759C312.353 14.5264 312.111 14.5304 311.964 14.6802C311.791 14.8559 311.545 14.9255 311.306 14.8669L308.309 14.1338C307.939 14.0431 307.711 13.6692 307.802 13.3005C307.892 12.9317 308.266 12.7056 308.637 12.7961L312.069 13.6361C312.565 13.7575 313.096 13.6076 313.454 13.2444C313.602 13.0948 313.599 12.8537 313.448 12.7063C313.297 12.5592 313.056 12.561 312.908 12.7107C312.735 12.8859 312.489 12.9555 312.25 12.8969L308.724 12.0342C308.353 11.9435 308.126 11.57 308.216 11.2013C308.306 10.8326 308.681 10.6058 309.051 10.6966Z" fill="#BEBCB5"/>
<path d="M299.251 14.3409L296.868 13.7577C296.538 13.6769 296.335 13.344 296.416 13.0137L298.149 5.93117C298.23 5.60112 298.563 5.39892 298.893 5.47978L301.277 6.06305C301.607 6.14372 301.809 6.47684 301.728 6.80689L299.995 13.8894C299.914 14.2196 299.581 14.4217 299.251 14.3409Z" fill="#BEBCB5"/>
<path d="M221.879 115.788C222.416 113.514 221.008 111.235 218.734 110.698C216.46 110.161 214.181 111.57 213.644 113.844C213.107 116.118 214.515 118.396 216.789 118.933C219.063 119.47 221.342 118.062 221.879 115.788Z" fill="white"/>
<path d="M119.418 9.35208C118.247 10.5236 116.347 10.5236 115.176 9.35208C114.004 8.18045 114.004 6.281 115.176 5.10936C116.347 3.93783 118.247 3.93783 119.418 5.10936C120.59 6.281 120.59 8.18045 119.418 9.35208Z" fill="white"/>
<path d="M361.864 82.9294C360.692 84.1011 358.792 84.1011 357.621 82.9294C356.449 81.7578 356.449 79.8581 357.621 78.6867C358.792 77.5151 360.692 77.5151 361.864 78.6867C363.035 79.8581 363.035 81.7578 361.864 82.9294Z" fill="#E3EAFF"/>
<path d="M224.371 5.12137C223.2 6.29291 221.3 6.29291 220.129 5.12137C218.957 3.94983 218.957 2.05019 220.129 0.878652C221.3 -0.292884 223.2 -0.292884 224.371 0.878652C225.543 2.05028 225.543 3.94983 224.371 5.12137Z" fill="#E3EAFF"/>
<path d="M226.732 111.187C225.013 111.187 223.613 109.787 223.613 108.068C223.613 106.348 225.013 104.948 226.732 104.948C228.452 104.948 229.851 106.348 229.851 108.068C229.851 109.787 228.452 111.187 226.732 111.187ZM226.732 106.143C225.671 106.143 224.808 107.006 224.808 108.068C224.808 109.129 225.671 109.992 226.732 109.992C227.794 109.992 228.657 109.129 228.657 108.068C228.657 107.006 227.794 106.143 226.732 106.143Z" fill="white"/>
<path d="M355.8 95.3196C353.627 95.3196 351.859 93.5517 351.859 91.3787C351.859 89.2057 353.627 87.4377 355.8 87.4377C357.973 87.4377 359.741 89.2057 359.741 91.3787C359.741 93.5517 357.973 95.3196 355.8 95.3196ZM355.8 88.9467C354.459 88.9467 353.368 90.0378 353.368 91.3786C353.368 92.7194 354.459 93.8105 355.8 93.8105C357.141 93.8105 358.232 92.7194 358.232 91.3786C358.232 90.0378 357.141 88.9467 355.8 88.9467Z" fill="#E3EAFF"/>
</svg>
