<svg width="22" height="22" viewBox="0 0 22 22" fill="none" xmlns="http://www.w3.org/2000/svg">
<path fill-rule="evenodd" clip-rule="evenodd" d="M11.7735 1.75074C12.9051 0.65779 14.4208 0.0530236 15.9939 0.0666941C17.5671 0.0803646 19.072 0.711378 20.1844 1.82383C21.2969 2.93628 21.9279 4.44115 21.9416 6.01433C21.9552 7.58751 21.3505 9.10313 20.2575 10.2347L20.2454 10.2471L17.2455 13.247C16.6372 13.8554 15.9051 14.3261 15.0991 14.6267C14.293 14.9274 13.4316 15.0513 12.5735 14.9898C11.7153 14.9283 10.8804 14.683 10.1253 14.2705C9.37031 13.858 8.71282 13.288 8.19748 12.599C7.86668 12.1568 7.95702 11.5301 8.39927 11.1993C8.84152 10.8685 9.46821 10.9588 9.79901 11.401C10.1426 11.8604 10.5809 12.2404 11.0843 12.5154C11.5876 12.7904 12.1442 12.9539 12.7163 12.9949C13.2884 13.0359 13.8627 12.9533 14.4001 12.7529C14.9375 12.5524 15.4255 12.2387 15.831 11.833L18.8247 8.83937C19.5497 8.0856 19.9507 7.07774 19.9417 6.03171C19.9325 4.98292 19.5119 3.97967 18.7702 3.23804C18.0286 2.49641 17.0253 2.07573 15.9766 2.06662C14.93 2.05752 13.9218 2.45894 13.1679 3.18458L11.4533 4.88919C11.0616 5.27858 10.4285 5.27673 10.0391 4.88507C9.6497 4.49341 9.65154 3.86024 10.0432 3.47086L11.7632 1.76086L11.7735 1.75074ZM6.8974 7.37331C7.70351 7.07261 8.56486 6.94879 9.42303 7.01025C10.2812 7.07171 11.1161 7.31701 11.8712 7.72952C12.6262 8.14203 13.2837 8.71209 13.799 9.40105C14.1298 9.8433 14.0395 10.47 13.5972 10.8008C13.155 11.1316 12.5283 11.0413 12.1975 10.599C11.8539 10.1397 11.4156 9.75966 10.9122 9.48465C10.4089 9.20965 9.85228 9.04611 9.28016 9.00514C8.70805 8.96416 8.13381 9.04671 7.59641 9.24718C7.059 9.44765 6.57099 9.76135 6.16548 10.167L3.17184 13.1606C2.4468 13.9144 2.04575 14.9223 2.05484 15.9683C2.06395 17.0171 2.48463 18.0204 3.22626 18.762C3.96789 19.5036 4.97114 19.9243 6.01993 19.9334C7.06599 19.9425 8.07386 19.5415 8.82764 18.8164L10.5311 17.1129C10.9217 16.7224 11.5548 16.7224 11.9454 17.1129C12.3359 17.5034 12.3359 18.1366 11.9454 18.5271L10.2354 20.2371L10.223 20.2493C9.09134 21.3423 7.57573 21.947 6.00255 21.9334C4.42937 21.9197 2.9245 21.2887 1.81205 20.1762C0.699598 19.0638 0.0685848 17.5589 0.0549143 15.9857C0.0412438 14.4125 0.64601 12.8969 1.73896 11.7653L1.75114 11.7529L4.75101 8.75305C5.35925 8.14462 6.09134 7.67399 6.8974 7.37331Z" fill="white"/>
</svg>
