<svg width="23" height="22" viewBox="0 0 23 22" fill="none" xmlns="http://www.w3.org/2000/svg">
<path fill-rule="evenodd" clip-rule="evenodd" d="M7.96429 2C7.71442 2 7.47106 2.1009 7.28878 2.28649C7.1059 2.4727 7.00001 2.72903 7.00001 3C7.00001 3.27097 7.1059 3.5273 7.28878 3.71351C7.47106 3.8991 7.71442 4 7.96429 4H10.1343C10.0619 3.82865 9.97857 3.65116 9.88356 3.47527C9.39769 2.57581 8.77398 2 7.96429 2ZM10.5 6V9L3.10001 9C2.80348 9 2.64122 8.99922 2.52464 8.9897C2.52 8.98932 2.5156 8.98893 2.51145 8.98855C2.51107 8.9844 2.51069 8.98001 2.51031 8.97537C2.50078 8.85878 2.50001 8.69653 2.50001 8.4V6.6C2.50001 6.30347 2.50078 6.14122 2.51031 6.02463C2.51069 6.01999 2.51107 6.0156 2.51145 6.01145C2.5156 6.01107 2.52 6.01068 2.52464 6.0103C2.64122 6.00078 2.80348 6 3.10001 6H10.5ZM5.16953 4C5.05822 3.68133 5.00001 3.34339 5.00001 3C5.00001 2.21011 5.30802 1.44902 5.86188 0.885078C6.41635 0.320531 7.17224 0 7.96429 0C9.759 0 10.8725 1.21845 11.5 2.27223C12.1275 1.21845 13.241 0 15.0357 0C15.8278 0 16.5837 0.320531 17.1381 0.885078C17.692 1.44902 18 2.21011 18 3C18 3.34339 17.9418 3.68133 17.8305 4L19.9319 4C20.1843 3.99997 20.4301 3.99994 20.6382 4.01695C20.8668 4.03562 21.1366 4.07969 21.408 4.21799C21.7843 4.40973 22.0903 4.7157 22.282 5.09202C22.4203 5.36344 22.4644 5.63318 22.4831 5.86177C22.5001 6.06992 22.5 6.31571 22.5 6.56808V8.43192C22.5 8.68429 22.5001 8.93008 22.4831 9.13823C22.4644 9.36682 22.4203 9.63656 22.282 9.90798C22.0903 10.2843 21.7843 10.5903 21.408 10.782C21.1366 10.9203 20.8668 10.9644 20.6382 10.9831C20.5938 10.9867 20.5476 10.9895 20.5 10.9918V17.8386C20.5 18.3657 20.5 18.8205 20.4694 19.195C20.4371 19.5904 20.3658 19.9836 20.173 20.362C19.8854 20.9265 19.4265 21.3854 18.862 21.673C18.4836 21.8658 18.0904 21.9371 17.695 21.9694C17.3205 22 16.8657 22 16.3386 22H11.5L11.4986 22H6.66144C6.1343 22 5.67954 22 5.30498 21.9694C4.90963 21.9371 4.51641 21.8658 4.13803 21.673C3.57355 21.3854 3.1146 20.9265 2.82699 20.362C2.63419 19.9836 2.56288 19.5904 2.53057 19.195C2.49997 18.8205 2.49999 18.3657 2.5 17.8385L2.50001 10.9918C2.45241 10.9895 2.40624 10.9867 2.36178 10.9831C2.13318 10.9644 1.86345 10.9203 1.59202 10.782C1.2157 10.5903 0.909739 10.2843 0.717992 9.90798C0.579695 9.63656 0.535627 9.36682 0.51695 9.13823C0.499943 8.93007 0.499973 8.68428 0.500003 8.4319L0.500005 6.6C0.500005 6.58936 0.500004 6.57872 0.500003 6.5681C0.499973 6.31572 0.499943 6.06993 0.516951 5.86177C0.535627 5.63318 0.579695 5.36344 0.717992 5.09202C0.909739 4.71569 1.2157 4.40973 1.59202 4.21799C1.86345 4.07969 2.13318 4.03562 2.36178 4.01695C2.56993 3.99994 2.81573 3.99997 3.06811 4C3.07873 4 3.08936 4 3.10001 4H5.16953ZM4.50001 11V17.8C4.50001 18.3766 4.50078 18.7488 4.52393 19.0322C4.54613 19.3038 4.58381 19.4045 4.609 19.454C4.70487 19.6421 4.85785 19.7951 5.04601 19.891C5.09546 19.9162 5.19618 19.9539 5.46784 19.9761C5.75118 19.9992 6.12345 20 6.70001 20H10.5V11H4.50001ZM12.5 11V20H16.3C16.8766 20 17.2488 19.9992 17.5322 19.9761C17.8038 19.9539 17.9046 19.9162 17.954 19.891C18.1422 19.7951 18.2951 19.6422 18.391 19.454C18.4162 19.4045 18.4539 19.3038 18.4761 19.0322C18.4992 18.7488 18.5 18.3766 18.5 17.8V11H12.5ZM19.9 9C20.1965 9 20.3588 8.99922 20.4754 8.9897C20.48 8.98932 20.4844 8.98893 20.4886 8.98854C20.4889 8.9844 20.4893 8.98001 20.4897 8.97537C20.4992 8.85878 20.5 8.69653 20.5 8.4V6.6C20.5 6.30347 20.4992 6.14122 20.4897 6.02463C20.4893 6.01999 20.4889 6.0156 20.4885 6.01145C20.4844 6.01107 20.48 6.01068 20.4754 6.0103C20.3588 6.00078 20.1965 6 19.9 6H12.5V9H19.9ZM15.0357 4C15.2856 4 15.5289 3.8991 15.7112 3.71351C15.8941 3.5273 16 3.27097 16 3C16 2.72903 15.8941 2.4727 15.7112 2.28649C15.5289 2.1009 15.2856 2 15.0357 2C14.226 2 13.6023 2.57581 13.1165 3.47527C13.0214 3.65116 12.9381 3.82865 12.8658 4H15.0357Z" fill="white"/>
</svg>
