<svg width="20" height="20" viewBox="0 0 20 20" fill="none" xmlns="http://www.w3.org/2000/svg">
<path d="M9.11605 1.60944C4.98378 1.60944 1.61768 4.97554 1.61768 9.10782C1.61768 13.2401 4.98378 16.6127 9.11605 16.6127C10.8811 16.6127 12.5043 15.9942 13.7873 14.9672L16.9106 18.0889C17.0683 18.24 17.2788 18.3234 17.4971 18.3211C17.7154 18.3189 17.9242 18.2313 18.0787 18.077C18.2332 17.9227 18.3212 17.7141 18.3237 17.4958C18.3262 17.2775 18.2432 17.0668 18.0923 16.909L14.9689 13.7856C15.9968 12.5007 16.616 10.8749 16.616 9.10782C16.616 4.97554 13.2483 1.60944 9.11605 1.60944ZM9.11605 3.27613C12.3476 3.27613 14.9478 5.87629 14.9478 9.10782C14.9478 12.3393 12.3476 14.946 9.11605 14.946C5.88452 14.946 3.28434 12.3393 3.28434 9.10782C3.28434 5.87629 5.88452 3.27613 9.11605 3.27613Z" fill="black"/>
</svg>
