<svg width="48" height="48" viewBox="0 0 48 48" fill="none" xmlns="http://www.w3.org/2000/svg">
<path d="M47.5881 0.411937C47.2222 0.0461244 46.6851 -0.0892506 46.1896 0.0593431L3.1695 12.9654C1.27369 13.5341 0 15.246 0 17.2259C0 19.1783 1.31109 20.9166 3.18853 21.453L21.3563 26.6437L26.547 44.8115C27.0834 46.6888 28.8217 48 30.7748 48C32.754 48 34.4659 46.7263 35.0347 44.8305L47.9407 1.81031C48.0893 1.31484 47.954 0.777749 47.5881 0.411937ZM2.8125 17.2252C2.8125 16.4977 3.28069 15.8684 3.97763 15.6593L41.6554 4.356L22.0845 23.9269L3.96112 18.7488C3.28491 18.5555 2.8125 17.9293 2.8125 17.2252ZM32.3407 44.0224C32.1317 44.7193 31.5024 45.1875 30.7741 45.1875C30.0707 45.1875 29.4445 44.7152 29.2513 44.0389L24.0732 25.9155L43.6441 6.34462L32.3407 44.0224Z" fill="black"/>
</svg>
