<svg width="28" height="31" viewBox="0 0 28 31" fill="none" xmlns="http://www.w3.org/2000/svg">
<path d="M25.0943 22.784L22.2325 24.6293C22.275 24.9015 22.2678 25.179 22.2111 25.4485L25.0613 27.2864C25.4299 27.0671 25.8623 26.9799 26.2871 27.0394C26.7118 27.0988 27.1037 27.3013 27.3979 27.6134C27.6921 27.9255 27.8712 28.3286 27.9055 28.7562C27.9398 29.1838 27.8273 29.6102 27.5866 29.9653C27.3459 30.3203 26.9914 30.5827 26.5815 30.7091C26.1716 30.8356 25.7309 30.8185 25.332 30.6607C24.9332 30.503 24.6 30.2139 24.3875 29.8413C24.175 29.4687 24.0959 29.0348 24.1631 28.6112L21.345 26.7936C21.0046 27.0455 20.6002 27.1966 20.178 27.2297C19.7558 27.2628 19.3328 27.1766 18.9573 26.9808C18.5818 26.7851 18.2688 26.4878 18.0541 26.1228C17.8394 25.7578 17.7316 25.3398 17.743 24.9164C17.7544 24.4931 17.8846 24.0815 18.1187 23.7286C18.3528 23.3757 18.6813 23.0957 19.0669 22.9205C19.4524 22.7454 19.8794 22.6821 20.2992 22.7379C20.719 22.7937 21.1146 22.9664 21.441 23.2363L24.1695 21.4763C24.0941 21.0541 24.1647 20.6188 24.3699 20.2422C24.5751 19.8655 24.9025 19.5701 25.2981 19.4046C25.6938 19.239 26.134 19.2133 26.5463 19.3316C26.9585 19.45 27.3181 19.7053 27.5657 20.0554C27.8133 20.4056 27.9342 20.8297 27.9084 21.2578C27.8826 21.6859 27.7116 22.0924 27.4237 22.4103C27.1358 22.7282 26.7481 22.9384 26.3247 23.0064C25.9012 23.0743 25.4672 22.9959 25.0943 22.784Z" fill="black"/>
<path fill-rule="evenodd" clip-rule="evenodd" d="M19.2 9.6C19.2 4.29806 14.902 0 9.6 0C4.29806 0 0 4.29806 0 9.6C0 14.3917 3.51058 18.3632 8.1 19.0834V12.375H5.6625V9.6H8.1V7.485C8.1 5.079 9.53322 3.74999 11.7261 3.74999C12.7764 3.74999 13.875 3.9375 13.875 3.9375V6.3H12.6644C11.4719 6.3 11.0999 7.04001 11.0999 7.79919V9.6H13.7625L13.3369 12.375H11.0999V19.0834C15.6894 18.3632 19.2 14.3917 19.2 9.6Z" fill="black"/>
</svg>
