<svg width="32" height="32" viewBox="0 0 32 32" fill="none" xmlns="http://www.w3.org/2000/svg">
<path d="M24.7992 17.0667C24.7992 16.8545 24.8835 16.651 25.0335 16.501C25.1836 16.351 25.387 16.2667 25.5992 16.2667C25.8114 16.2667 26.0149 16.351 26.1649 16.501C26.3149 16.651 26.3992 16.8545 26.3992 17.0667V22.4C26.3992 22.6122 26.3149 22.8157 26.1649 22.9657C26.0149 23.1157 25.8114 23.2 25.5992 23.2C25.387 23.2 25.1836 23.1157 25.0335 22.9657C24.8835 22.8157 24.7992 22.6122 24.7992 22.4V17.0667ZM4.53575 22.4672C4.53376 22.4449 4.53269 22.4224 4.53255 22.4V17.0667C4.53255 16.8545 4.61684 16.651 4.76687 16.501C4.9169 16.351 5.12038 16.2667 5.33255 16.2667C5.54473 16.2667 5.74821 16.351 5.89824 16.501C6.04827 16.651 6.13255 16.8545 6.13255 17.0667V22.4H19.4659V17.0667C19.4659 16.8545 19.5502 16.651 19.7002 16.501C19.8502 16.351 20.0537 16.2667 20.2659 16.2667C20.4781 16.2667 20.6815 16.351 20.8316 16.501C20.9816 16.651 21.0659 16.8545 21.0659 17.0667V22.4H26.971C27.98 22.4 28.7992 23.2192 28.7992 24.2283V25.9051C28.7992 26.9141 27.98 27.7333 26.971 27.7333H5.02749C4.78739 27.7333 4.54965 27.686 4.32784 27.5942C4.10602 27.5023 3.90448 27.3676 3.73471 27.1978C3.39184 26.855 3.19922 26.39 3.19922 25.9051V24.2283C3.19922 23.3888 3.76455 22.6816 4.53575 22.4672ZM5.02749 24C4.99751 24 4.96783 24.0059 4.94013 24.0174C4.91244 24.0288 4.88727 24.0457 4.86608 24.0669C4.84488 24.0881 4.82807 24.1132 4.81659 24.1409C4.80512 24.1686 4.79922 24.1983 4.79922 24.2283V25.9051C4.79922 26.0309 4.90162 26.1333 5.02749 26.1333H26.971C27.0315 26.1333 27.0896 26.1093 27.1324 26.0665C27.1752 26.0237 27.1992 25.9656 27.1992 25.9051V24.2283C27.1992 24.1677 27.1752 24.1097 27.1324 24.0669C27.0896 24.024 27.0315 24 26.971 24H5.02749ZM7.16722 5.6L4.95922 9.46347C4.85132 9.64233 4.67773 9.7719 4.47556 9.82448C4.27339 9.87705 4.05867 9.84846 3.8773 9.74482C3.69593 9.64118 3.56229 9.47071 3.50495 9.26984C3.4476 9.06897 3.4711 8.85364 3.57042 8.66987L5.89575 4.59733C6.13362 4.21547 6.55389 4 7.00509 4H24.9923C25.4424 4 25.8627 4.21547 26.1166 4.624L28.4259 8.66987C28.481 8.76119 28.5173 8.8626 28.5326 8.96815C28.5479 9.07369 28.542 9.18123 28.5151 9.28445C28.4883 9.38767 28.4411 9.48448 28.3763 9.56918C28.3115 9.65389 28.2304 9.72478 28.1378 9.7777C28.0452 9.83061 27.9429 9.86448 27.8371 9.8773C27.7312 9.89012 27.6238 9.88165 27.5213 9.85237C27.4187 9.82309 27.323 9.7736 27.2399 9.70682C27.1567 9.64003 27.0878 9.55729 27.0371 9.46347L24.8334 5.6H7.16722ZM10.9155 16.9184C11.0005 16.8561 11.0969 16.8113 11.1993 16.7864C11.3017 16.7616 11.408 16.7571 11.512 16.7735C11.6161 16.7898 11.716 16.8265 11.8058 16.8815C11.8957 16.9365 11.9738 17.0087 12.0357 17.0939C12.0975 17.1792 12.142 17.2759 12.1664 17.3783C12.1908 17.4808 12.1948 17.5871 12.178 17.6911C12.1612 17.7951 12.1241 17.8948 12.0687 17.9844C12.0133 18.074 11.9408 18.1518 11.8552 18.2133L9.26642 20.0939C9.09465 20.2174 8.88094 20.2678 8.67207 20.2341C8.4632 20.2005 8.27617 20.0854 8.15191 19.9142C8.02765 19.743 7.97627 19.5295 8.00903 19.3205C8.04178 19.1115 8.156 18.9239 8.32669 18.7989L10.9155 16.9184ZM15.4094 16.9184C15.4944 16.8566 15.5907 16.8122 15.6929 16.7877C15.7951 16.7631 15.9012 16.759 16.005 16.7754C16.1088 16.7919 16.2083 16.8286 16.2979 16.8835C16.3875 16.9384 16.4654 17.0104 16.5272 17.0955C16.589 17.1805 16.6334 17.2769 16.6579 17.379C16.6825 17.4812 16.6866 17.5873 16.6702 17.6911C16.6538 17.7949 16.617 17.8944 16.5621 17.984C16.5072 18.0736 16.4352 18.1516 16.3502 18.2133L12.4675 21.0347C12.2958 21.1594 12.0815 21.2109 11.8719 21.1777C11.6622 21.1444 11.4744 21.0293 11.3496 20.8576C11.2249 20.6859 11.1734 20.4716 11.2066 20.262C11.2398 20.0524 11.355 19.8645 11.5267 19.7397L15.4094 16.9184Z" fill="black"/>
<path fill-rule="evenodd" clip-rule="evenodd" d="M28.7992 11.4282C28.7992 13.4485 27.2184 15.0858 25.2686 15.0858C23.9384 15.0858 22.7811 14.3242 22.1784 13.2C21.5758 14.3242 20.4184 15.0858 19.0894 15.0858C17.7592 15.0858 16.6019 14.3242 15.9992 13.2C15.3966 14.3242 14.2392 15.0858 12.9091 15.0858C11.58 15.0858 10.4227 14.3242 9.82002 13.2C9.21735 14.3242 8.06002 15.0858 6.72989 15.0858C4.78002 15.0858 3.19922 13.4485 3.19922 11.4282C3.19922 11.0293 3.52242 10.7061 3.92135 10.7061H28.0771C28.476 10.7061 28.7992 11.0293 28.7992 11.4282Z" fill="black"/>
</svg>
