<svg width="32" height="32" viewBox="0 0 32 32" fill="none" xmlns="http://www.w3.org/2000/svg">
<path d="M2.30383 20.541C1.90734 20.9258 1.89758 21.5586 2.28234 21.9551L6.12805 25.9189C6.12829 25.9192 6.12866 25.9193 6.1289 25.9196C6.31066 26.1077 6.56323 26.2266 6.84582 26.2266C7.12841 26.2266 7.38098 26.1077 7.56274 25.9196C7.56298 25.9193 7.56335 25.9192 7.56359 25.9189L11.4103 21.9551C11.795 21.5586 11.7853 20.9258 11.3888 20.541C10.9923 20.1562 10.3595 20.166 9.97473 20.5625L7.84582 22.7565V6.77344C7.84582 6.2207 7.39855 5.77344 6.84582 5.77344C6.29309 5.77344 5.84582 6.2207 5.84582 6.77344V22.7562L3.71789 20.5625C3.33312 20.166 2.70031 20.1562 2.30383 20.541Z" fill="black"/>
<path d="M26.8799 12.9229C26.8799 12.3701 26.4326 11.9229 25.8799 11.9229H15.0283C14.4756 11.9229 14.0283 12.3701 14.0283 12.9229C14.0283 13.4756 14.4756 13.9229 15.0283 13.9229H25.8799C26.4326 13.9229 26.8799 13.4756 26.8799 12.9229Z" fill="black"/>
<path d="M23.7598 19.0732C23.7598 18.5205 23.3125 18.0732 22.7598 18.0732H15.0283C14.4756 18.0732 14.0283 18.5205 14.0283 19.0732C14.0283 19.626 14.4756 20.0732 15.0283 20.0732H22.7598C23.3125 20.0732 23.7598 19.626 23.7598 19.0732Z" fill="black"/>
<path d="M15.0283 24.2266C14.4756 24.2266 14.0283 24.6738 14.0283 25.2266C14.0283 25.7793 14.4756 26.2266 15.0283 26.2266H19.6396C20.1924 26.2266 20.6396 25.7793 20.6396 25.2266C20.6396 24.6738 20.1924 24.2266 19.6396 24.2266H15.0283Z" fill="black"/>
<path d="M29 5.77344H15.0283C14.4756 5.77344 14.0283 6.2207 14.0283 6.77344C14.0283 7.32617 14.4756 7.77344 15.0283 7.77344H29C29.5527 7.77344 30 7.32617 30 6.77344C30 6.2207 29.5527 5.77344 29 5.77344Z" fill="black"/>
</svg>
