<svg width="24" height="24" viewBox="0 0 24 24" fill="none" xmlns="http://www.w3.org/2000/svg">
<g clip-path="url(#clip0_352_3931)">
<path d="M4.34801 16.9018V15.9671C4.34801 15.76 4.51591 15.5921 4.72301 15.5921C4.9301 15.5921 5.09801 15.76 5.09801 15.9671V16.9018C5.09801 17.1089 4.9301 17.2768 4.72301 17.2768C4.51591 17.2768 4.34801 17.1089 4.34801 16.9018ZM23.9531 12.5694V17.2492C23.9531 18.9504 23.2229 20.3745 21.8414 21.3674L18.3748 23.859C18.3094 23.906 18.2327 23.9295 18.1559 23.9295C18.0792 23.9295 18.0025 23.906 17.9371 23.859L15.4646 22.082H0.42185C0.301522 22.082 0.18846 22.0242 0.11796 21.9267C0.0474597 21.8291 0.0280534 21.7037 0.0657878 21.5894L0.536225 20.1651C0.586991 20.0115 0.730569 19.9077 0.892335 19.9077H1.23508V7.94337C0.718569 7.39071 0.434272 6.66068 0.434272 5.87904C0.434272 5.81079 0.452882 5.74385 0.488132 5.6854L3.33574 0.962601C3.66583 0.415101 4.22191 0.100195 4.86138 0.0986946L16.8686 0.0713196H16.8732C17.5156 0.0713196 18.0734 0.387023 18.4042 0.938179L21.25 5.67827C21.285 5.73659 21.3035 5.80334 21.3035 5.8713C21.3035 6.65623 21.0191 7.38865 20.5027 7.94234V10.7334C21.4994 11.0359 22.565 11.5323 23.7694 12.2469C23.8833 12.3144 23.9531 12.4369 23.9531 12.5694ZM3.32416 8.10377C4.41101 8.10377 5.31054 7.28913 5.44582 6.23852H1.21146C1.37224 7.30919 2.24224 8.10377 3.32416 8.10377ZM10.4939 0.835851L7.43233 0.842835L6.33649 5.48852H10.4939V0.835851ZM11.2439 5.48852H15.4029L14.3021 0.827179L11.2439 0.834163V5.48852ZM6.23229 6.23852C6.36762 7.28913 7.26715 8.10377 8.35399 8.10377C9.43479 8.10377 10.3043 7.30943 10.4663 6.23852H6.23229ZM11.2713 6.23852C11.4334 7.30943 12.303 8.10377 13.3838 8.10377C14.4706 8.10377 15.3701 7.28913 15.5054 6.23852H11.2713ZM20.5253 6.23852H16.2919C16.4272 7.28913 17.3268 8.10377 18.4136 8.10377C19.4933 8.10377 20.3619 7.30962 20.5253 6.23852ZM15.0724 0.825398L16.1735 5.48852H20.2613L17.7612 1.32419C17.5665 0.99982 17.2511 0.821273 16.8731 0.821273C16.8722 0.821273 16.8713 0.821273 16.8703 0.821273L15.0724 0.825398ZM1.48258 5.48852H5.56587L6.66129 0.84457L4.86307 0.848648C4.48666 0.849538 4.17232 1.02752 3.97793 1.34984L1.48258 5.48852ZM1.98508 19.9076H3.19924V13.1762C3.19924 12.7619 3.53627 12.4249 3.95055 12.4249H8.27023C8.68455 12.4249 9.02158 12.7619 9.02158 13.1762V19.9076H13.0858C12.6066 19.1356 12.3588 18.2395 12.3588 17.2491V14.1213H11.2266C10.8124 14.1213 10.4753 13.7842 10.4753 13.3699V11.1254C10.4753 10.7111 10.8124 10.3741 11.2266 10.3741H17.5935C17.6287 10.3741 17.6638 10.3774 17.6986 10.3824C17.8515 10.3729 18.0039 10.3681 18.1559 10.3681C18.6802 10.3681 19.2083 10.4239 19.7526 10.5393V8.52073C19.3452 8.73808 18.8887 8.85377 18.4135 8.85377C17.3368 8.85377 16.3958 8.26188 15.8986 7.38644C15.4015 8.26188 14.4604 8.85377 13.3837 8.85377C12.6086 8.85377 11.8825 8.54735 11.3392 7.9909C11.1532 7.8003 10.9956 7.58726 10.8688 7.35715C10.742 7.58721 10.5845 7.80026 10.3984 7.99085C9.85526 8.5473 9.12916 8.85377 8.35399 8.85377C7.27732 8.85377 6.33626 8.26188 5.8391 7.38644C5.34194 8.26188 4.40083 8.85377 3.32421 8.85377C2.84913 8.85377 2.39262 8.73818 1.98513 8.52096L1.98508 19.9076ZM14.7326 11.1241H11.2267L11.2254 13.3699L12.3589 13.3709V12.5693C12.3589 12.4369 12.4286 12.3144 12.5425 12.2468C13.3247 11.7828 14.0483 11.4109 14.7326 11.1241ZM8.27163 13.1762L3.95055 13.1749L3.94929 19.9077H8.27158V13.1762H8.27163ZM0.940616 21.332H14.4225C14.1405 21.1249 13.8858 20.8999 13.6601 20.6576H1.16332L0.940616 21.332ZM23.2031 12.784C19.3637 10.5498 16.9482 10.5497 13.1088 12.784V17.2492C13.1088 18.6989 13.7309 19.9124 14.9081 20.7584L18.1559 23.0927L21.4037 20.7584C22.5809 19.9123 23.2031 18.6988 23.2031 17.2492V12.784ZM13.903 13.0234C17.0828 11.2838 19.2292 11.2838 22.4089 13.0234C22.5291 13.0891 22.6039 13.2153 22.6039 13.3524V17.2492C22.6039 18.5157 22.0825 19.5326 21.054 20.2718L18.3748 22.1974C18.3094 22.2445 18.2327 22.2679 18.156 22.2679C18.0792 22.2679 18.0025 22.2445 17.9371 22.1974L15.2578 20.2718C14.2294 19.5327 13.708 18.5157 13.708 17.2492V13.3524C13.708 13.2153 13.7828 13.0892 13.903 13.0234ZM14.458 17.2492C14.458 18.2748 14.8628 19.0643 15.6955 19.6628L18.1559 21.4312L20.6163 19.6628C21.449 19.0642 21.8539 18.2748 21.8539 17.2492V13.5762C19.0816 12.1041 17.2302 12.104 14.458 13.5762L14.458 17.2492ZM16.4411 18.3764L15.1666 16.7726C15.0019 16.5655 14.9277 16.3065 14.9577 16.0435C14.9878 15.7804 15.1184 15.5449 15.3257 15.3801C15.5329 15.2154 15.7918 15.1413 16.0549 15.1713C16.3179 15.2014 16.5536 15.332 16.7182 15.5393L17.3317 16.3113L19.5177 14.1252H19.5177C19.9046 13.7383 20.5341 13.7384 20.9209 14.1252C21.3078 14.5121 21.3078 15.1416 20.9209 15.5284L17.9493 18.5001C17.762 18.6873 17.5106 18.7907 17.2488 18.7907C17.2196 18.7907 17.1904 18.7894 17.1611 18.7868C16.8717 18.7612 16.61 18.6119 16.4411 18.3764ZM15.7537 16.306L17.0346 17.9179C17.0395 17.924 17.0441 17.9302 17.0485 17.9365C17.1051 18.0176 17.1845 18.036 17.2269 18.0397C17.2686 18.0433 17.3494 18.0392 17.4189 17.9697L20.3906 14.9981C20.485 14.9036 20.485 14.75 20.3906 14.6555C20.2961 14.561 20.1425 14.561 20.048 14.6555L17.5648 17.1388C17.4892 17.2144 17.3851 17.2544 17.2783 17.2481C17.1716 17.242 17.0725 17.1906 17.006 17.107L16.1311 16.0059C16.091 15.9555 16.0338 15.9237 15.9698 15.9165C15.9605 15.9154 15.9512 15.9149 15.9419 15.9149C15.8877 15.9149 15.8355 15.933 15.7924 15.9673C15.742 16.0073 15.7102 16.0646 15.7029 16.1286C15.6956 16.1926 15.7136 16.2556 15.7537 16.306Z" fill="white"/>
</g>
<defs>
<clipPath id="clip0_352_3931">
<rect width="24" height="24" fill="white" transform="translate(0 0.000396729)"/>
</clipPath>
</defs>
</svg>
