<svg width="24" height="24" viewBox="0 0 24 24" fill="none" xmlns="http://www.w3.org/2000/svg">
<path d="M24 8.19623C24 7.29242 23.2674 6.55982 22.3636 6.55982C21.46 6.55982 20.7274 7.29242 20.7274 8.19623C20.7299 8.2627 20.7365 8.32898 20.7473 8.39472L15.995 10.7709L12.8688 6.30475C13.6348 5.82483 13.8664 4.81501 13.3865 4.04926C12.9067 3.28333 11.8969 3.05152 11.131 3.53144C10.3652 4.01136 10.1334 5.02118 10.6134 5.78693C10.7446 5.9964 10.9215 6.17347 11.131 6.30475L8.00502 10.7709L3.2527 8.39472C3.26332 8.32898 3.2701 8.2627 3.27266 8.19623C3.27706 7.29242 2.54793 6.55634 1.64431 6.55194C0.740681 6.54755 0.00441413 7.27649 1.95979e-05 8.1803C-0.00400872 9.00995 0.613422 9.71124 1.43685 9.8125L3.27284 18.0751V20.1962C3.27284 20.4974 3.51692 20.7417 3.81813 20.7417H20.1819C20.4831 20.7417 20.7274 20.4974 20.7274 20.1962V18.0751L22.5632 9.81232C23.3813 9.71344 23.9976 9.02039 24 8.19623ZM22.3636 7.65076C22.665 7.65076 22.9091 7.89502 22.9091 8.19623C22.9091 8.49762 22.665 8.7417 22.3636 8.7417C22.0624 8.7417 21.8181 8.49762 21.8181 8.19623C21.8183 7.89502 22.0624 7.65094 22.3636 7.65076ZM12 4.37812C12.3012 4.37812 12.5455 4.6222 12.5455 4.92359C12.5455 5.2248 12.3012 5.46906 12 5.46906C11.6988 5.46906 11.4545 5.2248 11.4545 4.92359C11.4547 4.62238 11.6988 4.3783 12 4.37812ZM8.62867 11.7816L12 6.96576L15.3713 11.7816C15.5263 12.0034 15.8203 12.0779 16.0622 11.9568L21.2311 9.37268C21.3126 9.45032 21.4017 9.51953 21.4973 9.57886L19.7444 17.469H4.25557L2.5027 9.57886C2.59828 9.51935 2.68746 9.45032 2.76894 9.37268L7.93782 11.9568C8.1797 12.0775 8.47358 12.003 8.62867 11.7816ZM1.09096 8.19623C1.09096 7.89502 1.33504 7.65076 1.63643 7.65076C1.93764 7.65076 2.1819 7.89502 2.1819 8.19623C2.1819 8.49762 1.93764 8.7417 1.63643 8.7417C1.33522 8.74152 1.09114 8.49744 1.09096 8.19623ZM19.6364 19.6507H4.3636V18.5598H19.6364V19.6507Z" fill="white"/>
</svg>
