<svg width="24" height="24" viewBox="0 0 24 24" fill="none" xmlns="http://www.w3.org/2000/svg">
<path d="M16.8475 16.5973L13.7836 15.576C14.5584 15.1764 15.1764 14.5279 15.5382 13.7348C15.9001 12.9417 15.9849 12.0499 15.779 11.2028C15.5732 10.3557 15.0885 9.60236 14.4029 9.06383C13.7174 8.5253 12.8707 8.23282 11.9989 8.23338C7.9081 8.28742 6.64397 13.6954 10.2143 15.576L7.15038 16.5973C6.48747 16.8175 5.91083 17.2411 5.50236 17.8077C5.09389 18.3744 4.87438 19.0553 4.875 19.7538V21.2814C4.87533 21.6045 5.00384 21.9143 5.23233 22.1428C5.46082 22.3713 5.77062 22.4998 6.09375 22.5001H17.9041C18.2273 22.4998 18.5371 22.3713 18.7656 22.1428C18.9941 21.9143 19.1226 21.6045 19.1229 21.2814V19.7538C19.1235 19.0553 18.904 18.3744 18.4955 17.8077C18.0871 17.2411 17.5104 16.8175 16.8475 16.5973ZM8.85907 12.1235C8.85998 11.291 9.19108 10.4929 9.77972 9.90428C10.3684 9.31563 11.1665 8.98452 11.9989 8.9836C16.1586 9.14135 16.1577 15.106 11.9989 15.2632C11.1665 15.2623 10.3684 14.9312 9.77977 14.3426C9.19114 13.754 8.86003 12.9559 8.85907 12.1235ZM18.3727 21.2814C18.3725 21.4056 18.3231 21.5247 18.2352 21.6125C18.1474 21.7003 18.0284 21.7497 17.9041 21.7499H6.09374C5.96953 21.7497 5.85046 21.7003 5.76263 21.6125C5.67481 21.5247 5.62539 21.4056 5.62522 21.2814V19.7538C5.62479 19.2128 5.79484 18.6853 6.11124 18.2464C6.42763 17.8074 6.87428 17.4793 7.38775 17.3087L10.5846 16.2431C11.503 15.9392 12.4949 15.9392 13.4133 16.2431L16.6101 17.3087C17.1236 17.4793 17.5702 17.8074 17.8866 18.2464C18.203 18.6853 18.3731 19.2128 18.3727 19.7538V21.2814Z" fill="white"/>
<path d="M9.06289 7.32638C9.09714 7.37777 9.14354 7.41991 9.19799 7.44905C9.25244 7.47819 9.31324 7.49343 9.37499 7.49342H14.6239C14.6857 7.49343 14.7465 7.47819 14.8009 7.44905C14.8554 7.41991 14.9018 7.37777 14.936 7.32638L17.5607 3.38958C17.6041 3.32176 17.6246 3.24184 17.6193 3.16152C17.614 3.08119 17.5831 3.00466 17.5312 2.94312C17.4794 2.88158 17.4091 2.83824 17.3309 2.81944C17.2526 2.80065 17.1704 2.80737 17.0962 2.83864L14.3961 4.0387L12.2817 1.62211C12.2455 1.58359 12.2017 1.5529 12.1532 1.53192C12.1047 1.51094 12.0523 1.50012 11.9995 1.50012C11.9466 1.50012 11.8943 1.51094 11.8457 1.53192C11.7972 1.5529 11.7535 1.58359 11.7172 1.62211L9.60284 4.0387L6.90273 2.83864C6.82855 2.80741 6.74633 2.8007 6.66808 2.81951C6.58982 2.83832 6.51963 2.88166 6.46775 2.94319C6.41588 3.00473 6.38503 3.08124 6.37973 3.16155C6.37442 3.24186 6.39493 3.32176 6.43826 3.38958L9.06289 7.32638ZM9.55064 4.83653C9.62384 4.86896 9.70548 4.87716 9.78367 4.85993C9.86185 4.8427 9.93249 4.80094 9.98527 4.74074L11.9995 2.43881L14.0137 4.74074C14.0664 4.80095 14.1371 4.84273 14.2153 4.85996C14.2934 4.87719 14.3751 4.86898 14.4483 4.83653L16.2191 4.0495L14.4232 6.74321H9.57574L7.77986 4.0495L9.55064 4.83653Z" fill="white"/>
</svg>
