<svg width="24" height="24" viewBox="0 0 24 24" fill="none" xmlns="http://www.w3.org/2000/svg">
<g opacity="0.6">
<path d="M14.5 17.25C14.9142 17.25 15.25 17.5858 15.25 18C15.25 18.4142 14.9142 18.75 14.5 18.75H9.5C9.08578 18.75 8.75 18.4142 8.75 18C8.75 17.5858 9.08578 17.25 9.5 17.25H14.5Z" fill="white" stroke="white" stroke-width="0.5"/>
<path fill-rule="evenodd" clip-rule="evenodd" d="M14.1688 2.57514C12.8972 1.57126 11.1028 1.57126 9.83124 2.57514L3.33124 7.70672C2.49051 8.37046 2 9.38264 2 10.4538V18.5C2 20.433 3.567 22 5.5 22H18.5C20.433 22 22 20.433 22 18.5V10.4538C22 9.38264 21.5095 8.37046 20.6688 7.70672L14.1688 2.57514ZM10.4509 3.36002C11.3592 2.64296 12.6408 2.64296 13.5491 3.36002L20.0491 8.4916C20.6496 8.9657 21 9.68869 21 10.4538V18.5C21 19.8807 19.8807 21 18.5 21H5.5C4.11929 21 3 19.8807 3 18.5V10.4538C3 9.68869 3.35036 8.9657 3.95089 8.4916L10.4509 3.36002Z" fill="white"/>
</g>
</svg>
