<svg width="18" height="15" viewBox="0 0 18 15" fill="none" xmlns="http://www.w3.org/2000/svg">
<path d="M8.83333 5.00001C8.2145 5.00001 7.621 4.75418 7.18342 4.31659C6.74583 3.87901 6.5 3.28552 6.5 2.66668C6.5 2.04784 6.74583 1.45435 7.18342 1.01676C7.621 0.579176 8.2145 0.333344 8.83333 0.333344C9.45217 0.333344 10.0457 0.579176 10.4832 1.01676C10.9208 1.45435 11.1667 2.04784 11.1667 2.66668C11.1667 3.28552 10.9208 3.87901 10.4832 4.31659C10.0457 4.75418 9.45217 5.00001 8.83333 5.00001ZM1.16667 7.66668H2.5C2.67681 7.66668 2.84638 7.73691 2.9714 7.86194C3.09643 7.98696 3.16667 8.15653 3.16667 8.33334V14C3.16667 14.1768 3.09643 14.3464 2.9714 14.4714C2.84638 14.5964 2.67681 14.6667 2.5 14.6667H1.16667C0.989856 14.6667 0.820286 14.5964 0.695262 14.4714C0.570238 14.3464 0.5 14.1768 0.5 14V8.33334C0.5 8.15653 0.570238 7.98696 0.695262 7.86194C0.820286 7.73691 0.989856 7.66668 1.16667 7.66668Z" fill="white"/>
<path d="M7.20492 8.87802L4.18892 9.41335C4.05834 9.43652 3.92391 9.40686 3.81521 9.33091C3.7065 9.25496 3.63241 9.13893 3.60925 9.00835C3.58609 8.87778 3.61575 8.74335 3.6917 8.63464C3.76765 8.52593 3.88368 8.45185 4.01425 8.42869L7.07358 7.88535L7.16092 7.87802H10.0516C11.5589 7.87802 12.5763 8.82802 12.1229 10.6394C12.0959 10.7475 12.0335 10.8434 11.9457 10.912C11.8579 10.9806 11.7497 11.0179 11.6383 11.018H8.52825C8.39564 11.018 8.26847 10.9653 8.1747 10.8716C8.08093 10.7778 8.02825 10.6506 8.02825 10.518C8.02825 10.3854 8.08093 10.2582 8.1747 10.1645C8.26847 10.0707 8.39564 10.018 8.52825 10.018H11.2216C11.3063 9.20269 10.8583 8.87802 10.0516 8.87802H7.20492ZM12.4196 9.95469L12.0016 10.2214C11.8899 10.2893 11.756 10.3108 11.6287 10.2813C11.5013 10.2517 11.3906 10.1734 11.3203 10.0633C11.2499 9.95307 11.2255 9.81971 11.2523 9.69175C11.2791 9.56379 11.3549 9.45141 11.4636 9.37869L11.9929 9.04069C12.0733 8.9893 12.1668 8.962 12.2623 8.96202C12.4289 8.96202 12.5909 8.90535 12.7196 8.80202L14.3923 7.46402L14.4509 7.42402C14.8335 7.1985 15.2843 7.1176 15.7215 7.196C16.1586 7.27441 16.5532 7.50692 16.8336 7.85135L16.8969 7.93002C17.1581 8.25103 17.2899 8.65806 17.2665 9.07124C17.2431 9.48442 17.0661 9.87394 16.7703 10.1634L13.2769 13.7254C12.4126 14.442 11.325 14.834 10.2023 14.8334H7.15092C6.64692 14.8334 6.14758 14.74 5.68025 14.5594L3.92158 13.878C3.7979 13.8301 3.69833 13.735 3.64475 13.6137C3.59118 13.4923 3.588 13.3547 3.63592 13.231C3.68383 13.1073 3.77892 13.0078 3.90025 12.9542C4.02159 12.9006 4.15924 12.8974 4.28292 12.9454L6.04225 13.6267C6.39425 13.7634 6.77092 13.8334 7.15158 13.8334H10.2029C11.0949 13.8334 11.9583 13.5227 12.6016 12.9914L16.0656 9.45469C16.1855 9.33944 16.2576 9.18333 16.2677 9.01735C16.2779 8.85137 16.2252 8.68765 16.1203 8.55869L16.0569 8.48069C15.9308 8.3266 15.7549 8.22128 15.5595 8.18283C15.3641 8.14439 15.1614 8.17522 14.9863 8.27002L13.3449 9.58335C13.0797 9.79507 12.7575 9.9242 12.4196 9.95469Z" fill="white"/>
</svg>
